<svg width="136" height="145" viewBox="0 0 136 145" fill="none" xmlns="http://www.w3.org/2000/svg">
<g clip-path="url(#clip0_35_332)">
<path d="M17.5 118.15V128.45H111.37V118.15C111.37 102.35 87.97 94.3199 64.43 94.3499C41.05 94.3699 17.5 101.41 17.5 118.15Z" fill="#00BFA5"/>
<path d="M63.9999 90.08H54.9199V99.67C54.9199 104.01 58.6199 107.53 63.1799 107.53H64.8299C69.3899 107.53 73.0899 104.01 73.0899 99.67V90.08H63.9999Z" fill="#E49800"/>
<path opacity="0.54" d="M36.4099 119.37H39.4099V127.83H36.4099V119.37ZM88.6999 119.37H91.6999V127.83H88.6999V119.37Z" fill="black"/>
<path d="M96.19 51.47C96.19 51.47 102.08 52.49 102.08 58.84C102.08 64.44 97.78 66.65 93.48 66.65V51.47H96.19ZM31.91 51.47C31.91 51.47 26.02 52.49 26.02 58.84C26.02 64.44 30.32 66.65 34.62 66.65V51.47H31.91Z" fill="#E39400"/>
<path d="M64.05 9.91003C38.65 9.91003 32.01 29.6 32.01 57.26C32.01 85.94 50.44 93.36 64.05 93.36C77.46 93.36 96.09 86.16 96.09 57.26C96.1 29.59 89.45 9.91003 64.05 9.91003Z" fill="#FAC01B"/>
<path d="M53.4999 59.82C53.4999 62.68 51.5899 64.99 49.2199 64.99C46.8599 64.99 44.9299 62.67 44.9299 59.82C44.9299 56.96 46.8499 54.64 49.2199 54.64C51.5899 54.64 53.4999 56.96 53.4999 59.82ZM74.5999 59.82C74.5999 62.68 76.5099 64.99 78.8899 64.99C81.2499 64.99 83.1699 62.67 83.1699 59.82C83.1699 56.96 81.2499 54.64 78.8899 54.64C76.5099 54.64 74.5999 56.96 74.5999 59.82Z" fill="#444444"/>
<path d="M73.3299 77.29H54.7899C53.7299 77.29 53.2699 78 53.9699 79.08C54.9499 80.58 58.6099 83.46 64.0599 83.46C69.5099 83.46 73.1699 80.58 74.1499 79.08C74.8499 78.01 74.3899 77.29 73.3299 77.29Z" fill="#513F35"/>
<path d="M68.5299 69.41C66.9499 69.86 65.3099 70.07 64.0499 70.07C62.7899 70.07 61.1499 69.85 59.5699 69.41C58.8999 69.22 58.6299 69.86 58.8699 70.28C59.3699 71.16 61.3899 72.94 64.0499 72.94C66.7099 72.94 68.7299 71.16 69.2299 70.28C69.4699 69.86 69.2099 69.22 68.5299 69.41Z" fill="#E39400"/>
<path d="M64.82 6.29002C64.82 6.29002 64.32 6.27002 64.11 6.28002C63.9 6.28002 63.4 6.29002 63.4 6.29002C35.99 6.82002 27.73 23.31 27.73 34.74C27.73 45.85 27.74 54.02 27.74 54.02C27.74 54.02 28.18 53.57 28.98 52.94C29.84 52.27 30.79 51.9 30.79 51.9L32.17 61.18L41.3 42.1C41.36 41.98 41.48 41.91 41.61 41.93L47.02 42.53C52.46 43.13 57.93 43.43 63.39 43.44V43.45C63.63 43.45 63.86 43.44 64.1 43.44C64.34 43.44 64.57 43.45 64.81 43.45V43.44C70.27 43.42 75.74 43.13 81.18 42.53L86.59 41.93C86.72 41.92 86.84 41.99 86.9 42.1L96.03 61.18L97.41 51.9C97.41 51.9 98.36 52.28 99.22 52.94C100.03 53.57 100.46 54.02 100.46 54.02C100.46 54.02 100.47 45.86 100.47 34.74C100.49 23.31 92.23 6.82002 64.82 6.29002Z" fill="#F9E073"/>
</g>
<path d="M135.859 127.737C135.82 125.999 135.758 124.266 135.719 122.545C135.578 117.145 135.73 111.672 135.578 106.244C135.426 100.855 135.719 95.4775 135.696 90.0944C135.691 88.975 135.792 86.77 134.695 86.1063C132.327 84.6775 130.814 88.3844 130.167 89.8863C129.003 92.62 128.294 95.5113 127.439 98.3463C126.713 100.776 125.886 103.201 125.571 105.726C125.335 107.622 125.301 109.748 126.218 111.486C126.679 112.358 127.495 112.966 128.44 113.236C129.419 113.517 130.549 113.208 131.472 113.686C131.708 113.809 131.916 114.068 132.006 114.321C132.288 115.143 131.973 116.374 131.86 117.207C131.494 119.907 131.118 122.635 130.909 125.352C130.786 126.994 130.645 129.098 131.573 130.555C132.141 131.438 133.317 132.282 134.403 131.871C136.017 131.281 135.893 129.121 135.859 127.737ZM76.0657 87.2481C75.6045 87.445 75.7957 89.155 75.7845 89.6838C75.762 90.6288 75.8407 91.8831 75.7395 93.1094V93.1375C75.7339 93.2219 75.7226 93.3175 75.7114 93.4131C75.7001 93.5088 75.6832 93.5988 75.672 93.6888C75.582 94.285 75.402 94.9938 75.0476 95.3369C74.6482 95.725 73.7426 95.6575 73.4276 95.2019C72.9045 94.465 72.9326 92.7944 72.8988 92.7438C72.8707 91.9563 72.7357 89.5713 72.5557 88.0019C72.5388 87.8838 72.5107 87.1694 71.8864 87.1019C71.5939 87.0681 71.2845 87.3325 71.1945 87.805C70.9132 89.2 70.6657 91.8606 70.6488 92.2769C70.6488 92.3163 70.6432 92.3613 70.6432 92.4063V92.4175C70.6432 92.5019 70.5645 94.5888 70.0638 95.3088C69.7995 95.6856 69.1132 95.9894 68.427 95.5956C68.1514 95.4381 67.9601 95.1288 67.8251 94.8025C67.0882 92.4963 67.7014 89.9425 67.7801 88.7275C67.8026 88.3844 68.0895 87.2425 67.4257 87.2875C66.4245 87.355 65.1757 91.7875 64.9564 92.8056C64.4164 95.3313 64.3545 98.0313 65.367 100.456C65.9239 101.794 67.0095 102.891 68.3426 103.414C68.9332 103.645 69.5857 103.808 70.2776 103.898C70.0863 109.636 69.8614 115.626 69.6364 118.956C69.462 121.465 69.2538 124.002 69.3101 126.522C69.3438 128.024 69.3495 129.818 70.3113 131.073C71.3239 132.378 73.4164 131.753 73.9676 130.189C74.5864 128.429 74.3782 126.387 74.1364 123.164C73.8889 119.941 73.5964 115.542 73.4389 113.174C73.2082 109.692 73.107 106.643 73.062 103.864C74.8282 103.583 76.4707 102.784 77.382 101.322C77.7814 100.686 78.0401 99.9719 78.2145 99.2463C78.4845 98.1438 78.6082 96.9288 78.5351 95.7981C78.4564 94.7631 77.5451 86.6181 76.0657 87.2481Z" fill="#78A3AD"/>
<path d="M101.125 131.911C113.791 131.911 124.058 121.643 124.058 108.978C124.058 96.3119 113.791 86.0444 101.125 86.0444C88.4594 86.0444 78.1919 96.3119 78.1919 108.978C78.1919 121.643 88.4594 131.911 101.125 131.911Z" fill="#78A3AD"/>
<path d="M101.378 96.2031C116.211 95.6406 118.816 116.729 105.754 121.476C100.816 123.271 94.7182 122.371 91.0394 118.433C86.7138 113.804 86.8882 106.396 90.7019 101.558C91.8101 100.152 89.8357 98.1494 88.7107 99.5669C80.8807 109.501 86.6013 124.294 99.6626 125.133C110.676 125.836 119.434 115.694 116.734 104.877C114.996 97.9075 108.55 93.1206 101.378 93.3906C99.5726 93.4581 99.5669 96.2706 101.378 96.2031Z" fill="white"/>
<defs>
<clipPath id="clip0_35_332">
<rect width="128" height="128" fill="white"/>
</clipPath>
</defs>
</svg>
