<svg width="128" height="128" viewBox="0 0 128 128" fill="none" xmlns="http://www.w3.org/2000/svg">
<g clip-path="url(#clip0_36_334)">
<path d="M51.6899 90.1799H42.6099V99.7699C42.6099 104.11 46.3099 107.63 50.8699 107.63H52.5199C57.0799 107.63 60.7799 104.11 60.7799 99.7699V90.1799H51.6899Z" fill="#E49500"/>
<path d="M83.88 52.28C83.88 52.28 89.77 53.3 89.77 59.65C89.77 65.25 85.47 67.46 81.17 67.46V52.28H83.88ZM19.6 52.28C19.6 52.28 13.71 53.3 13.71 59.65C13.71 65.25 18.01 67.46 22.31 67.46V52.28H19.6Z" fill="#E39400"/>
<path d="M51.74 10.72C26.34 10.72 19.7 30.41 19.7 58.07C19.7 86.75 38.13 94.17 51.74 94.17C65.15 94.17 83.78 86.97 83.78 58.07C83.78 30.41 77.14 10.72 51.74 10.72Z" fill="#FAC01B"/>
<path d="M41.1901 60.63C41.1901 63.49 39.2801 65.8 36.9101 65.8C34.5501 65.8 32.6201 63.48 32.6201 60.63C32.6201 57.77 34.5401 55.45 36.9101 55.45C39.2801 55.46 41.1901 57.77 41.1901 60.63ZM62.2901 60.63C62.2901 63.49 64.2001 65.8 66.5801 65.8C68.9401 65.8 70.8601 63.48 70.8601 60.63C70.8601 57.77 68.9401 55.45 66.5801 55.45C64.2001 55.46 62.2901 57.77 62.2901 60.63Z" fill="#444444"/>
<path d="M61.0101 78.1H42.4701C41.4101 78.1 40.9501 78.81 41.6501 79.89C42.6301 81.39 46.2901 84.27 51.7401 84.27C57.1901 84.27 60.8501 81.39 61.8301 79.89C62.5301 78.82 62.0801 78.1 61.0101 78.1Z" fill="#513F35"/>
<path d="M56.2201 70.2199C54.6401 70.6699 53.0001 70.8799 51.7401 70.8799C50.4801 70.8799 48.8401 70.6599 47.2601 70.2199C46.5901 70.0299 46.3201 70.6699 46.5601 71.0899C47.0601 71.9699 49.0801 73.7499 51.7401 73.7499C54.4001 73.7499 56.4201 71.9699 56.9201 71.0899C57.1601 70.6699 56.9001 70.0299 56.2201 70.2199Z" fill="#E39400"/>
<path d="M52.51 7.09996C52.51 7.09996 52.01 7.07996 51.8 7.08996C51.59 7.08996 51.09 7.09996 51.09 7.09996C23.68 7.62996 17.54 24.32 15.42 35.56C13.56 45.42 15.43 54.84 15.43 54.84C15.43 54.84 15.87 54.39 16.67 53.76C17.53 53.09 18.48 52.72 18.48 52.72L19.86 62L28.99 42.92C29.05 42.8 29.17 42.73 29.3 42.75L34.71 43.35C40.15 43.95 45.62 44.25 51.08 44.26V44.27C51.32 44.27 51.55 44.26 51.79 44.26C52.03 44.26 52.26 44.27 52.5 44.27V44.26C57.96 44.24 63.43 43.95 68.87 43.35L74.28 42.75C74.41 42.74 74.53 42.81 74.59 42.92L83.72 62L85.1 52.72C85.1 52.72 86.05 53.1 86.91 53.76C87.72 54.39 88.15 54.84 88.15 54.84C88.15 54.84 90.04 46.79 90.04 35.67C90.05 24.23 79.91 7.62996 52.51 7.09996Z" fill="#6D4C41"/>
<path d="M8.16992 118.03V128H95.3099V118.03C95.3099 102.86 74.1599 98.03 52.2999 98.06C30.5899 98.08 8.16992 101.96 8.16992 118.03Z" fill="#C4C6C7"/>
<path d="M46.33 92.15H37.46C37.3 92.15 37.14 92.16 36.98 92.18V100.6H51.71C51.73 100.33 51.74 100.06 51.74 99.79C51.74 95.59 49.31 92.15 46.33 92.15Z" fill="#1565C0"/>
<path d="M57.15 92.15H66.02C66.18 92.15 66.34 92.16 66.5 92.18V100.6H51.77C51.75 100.33 51.74 100.06 51.74 99.79C51.74 95.59 54.18 92.15 57.15 92.15Z" fill="#1565C0"/>
<path d="M50.8101 103.5H53.8101V128H50.8101V103.5Z" fill="#959699"/>
<path d="M59.2199 110.98C60.4847 110.98 61.5099 109.955 61.5099 108.69C61.5099 107.425 60.4847 106.4 59.2199 106.4C57.9552 106.4 56.9299 107.425 56.9299 108.69C56.9299 109.955 57.9552 110.98 59.2199 110.98Z" fill="#959699"/>
<path d="M59.2199 122.5C60.4847 122.5 61.5099 121.475 61.5099 120.21C61.5099 118.945 60.4847 117.92 59.2199 117.92C57.9552 117.92 56.9299 118.945 56.9299 120.21C56.9299 121.475 57.9552 122.5 59.2199 122.5Z" fill="#959699"/>
<path d="M101.86 107.61C103.36 107.98 104.32 109.04 104.99 110.36C106.66 110.06 109.54 109.76 110.38 109.78C111.37 109.81 112.68 109.92 112.9 111.95C113.04 113.27 112.54 114.36 110.85 114.52C110.22 114.58 109.57 114.62 108.93 114.65L109.16 115.39C109.75 115.38 110.28 115.36 110.69 115.36C112.4 115.34 113.37 116.25 113.37 118.06C113.37 119.65 112 120.4 111 120.46C110.47 120.49 108.99 120.41 107.53 120.27L107.38 120.58L107.32 120.67C108.24 120.81 109.12 120.96 109.74 121.07C111.41 121.37 112.21 122.48 112.02 123.8C111.79 125.4 110.36 125.84 109.37 125.81C108.63 125.79 106.03 125.38 104.29 125.01L103.95 125.5C104.07 125.52 104.2 125.54 104.34 125.56C104.36 125.56 104.38 125.57 104.41 125.57L104.76 125.63C104.79 125.63 104.81 125.64 104.84 125.64C104.98 125.66 105.12 125.69 105.26 125.71H105.28C105.43 125.73 105.58 125.76 105.73 125.79C105.76 125.79 105.79 125.8 105.81 125.8L106.16 125.86C106.21 125.87 106.25 125.88 106.3 125.88C106.4 125.9 106.5 125.92 106.59 125.93L106.74 125.96C106.84 125.98 106.93 126 107.02 126.01L107.16 126.04C107.29 126.07 107.43 126.09 107.55 126.12C109.08 126.44 109.66 127.13 109.47 128.34C109.21 130.04 107.5 130.42 106.59 130.33C105.68 130.25 102.62 129.62 101.62 129.18L101.44 129.09L101.09 129.59C96.59 129.29 93.36 127.41 93.36 127.41C90.72 125.93 90.28 124.79 89.84 122.98C89.34 120.92 89.46 118.48 89.48 118.1C89.64 114 90.55 111.35 93.86 109.15C94.66 108.62 95.83 107.69 98.42 107.39C99.42 107.29 100.86 107.36 101.86 107.61Z" fill="#FBC11B"/>
<path d="M105.6 114.42C105.6 114.42 105.64 112.36 104.99 110.36L105.71 110.23C105.71 110.23 106.22 111.65 106.4 113.75C106.43 114.09 106.44 114.4 106.44 114.7L107.08 114.66L111.37 114.42C111.37 114.42 111.05 114.48 111.05 114.96C111.05 115.16 111.17 115.29 111.26 115.37C111.08 115.35 110.88 115.33 110.68 115.34L106.42 115.45C106.41 115.57 106.41 115.69 106.4 115.82C106.3 117.56 105.89 119.23 104.92 119.87C108.14 120.25 111 120.44 111 120.44C110.44 120.67 110.68 121.35 110.68 121.35C108.51 120.76 103.25 120.45 103.25 120.45C101.03 120.26 100.73 121.76 100.73 121.76C100.32 123.57 102.29 124.4 102.29 124.4C102.55 124.55 104.9 125.02 106.58 125.34L108.26 125.65L108.73 125.74C108.68 125.73 108.48 125.72 108.4 126.05C108.36 126.21 108.4 126.32 108.43 126.39C108.18 126.28 107.88 126.18 107.53 126.11C106.74 125.95 104.35 125.56 104.17 125.53L103.57 125.45C101.59 125.19 101.11 125.54 101.11 125.54C100.01 126.12 100.33 127.52 100.33 127.52C100.57 128.87 102.06 129.29 102.06 129.29C102.63 129.46 105.65 130.19 105.65 130.19L101.08 129.59C100.76 129.49 100.64 129.34 100.46 129.2C98.85 127.88 99.53 126.09 99.53 126.09C99.78 125.4 100.3 125.09 100.3 125.09C100.61 124.9 100.97 124.8 101.34 124.76C99.47 123.77 99.77 121.77 99.77 121.77C100.01 120.54 100.9 120.02 101.6 119.8C101.54 119.75 101.47 119.7 101.41 119.64C101.41 119.64 100.21 118.85 100.65 115.46C100.8 114.32 100.78 114.16 100.66 113.44C100.66 113.44 100.23 111.9 98.95 112.39C98.95 112.39 98.52 112.5 97.85 113.03C97.85 113.03 97.31 113.45 97.32 112.79C97.32 112.59 97.46 112.23 97.73 111.92C97.73 111.92 98.01 111.59 98.7 111.4C98.7 111.4 100.49 110.69 101.38 112.48C101.85 113.42 101.76 114.04 101.61 115C101.61 115 101.33 118.03 102.12 119C102.12 119 102.9 119.89 104.15 119.34C104.16 119.36 105.86 118.42 105.6 114.42Z" fill="#E49500"/>
<path d="M127.512 81.251C129.064 70.1979 121.363 59.9789 110.309 58.4262C99.2563 56.8736 89.0373 64.5753 87.4846 75.6285C85.932 86.6816 93.6337 96.9006 104.687 98.4533C115.74 100.006 125.959 92.3042 127.512 81.251Z" fill="#575757"/>
<path d="M105.37 123.94L97.3401 122.26L103.14 89.4299L110.06 90.3999L105.37 123.94Z" fill="#575757"/>
<path d="M119.57 78.9499C121.36 87.1799 115.02 95.2799 107.61 89.7299C100.2 84.1899 93.31 85.0599 96.19 77.9599C99.07 70.8599 101.38 64.5999 106.99 66.2199C112.6 67.8399 117.78 70.7199 119.57 78.9499Z" fill="white"/>
<path d="M107.5 83.65C110.593 83.65 113.1 81.1428 113.1 78.05C113.1 74.9572 110.593 72.45 107.5 72.45C104.407 72.45 101.9 74.9572 101.9 78.05C101.9 81.1428 104.407 83.65 107.5 83.65Z" fill="#FBC11B"/>
<path d="M110.89 120.45H111C111.99 120.39 113.36 119.64 113.37 118.05C113.37 116.31 112.48 115.41 110.89 115.36L110.82 114.99L111.34 114.96C112.22 114.75 112.68 114.22 112.84 113.54C112.9 113.44 112.92 112.3 112.91 112.17C112.83 111.1 112.44 110.6 112.44 110.6C112.04 109.58 109.58 109.81 109.58 109.81L105.09 110.41C104.93 110.36 104.77 110.31 104.62 110.26C103.97 109.24 103.1 108.45 101.85 108.14C100.85 107.9 99.4201 107.82 98.4101 107.94C95.8201 108.24 94.6501 109.17 93.8501 109.7C93.6801 109.81 93.5401 109.93 93.3901 110.05C94.3001 111.7 95.6801 113.43 97.3701 113.14C97.4801 112.89 97.6601 112.63 97.7401 112.54C98.1001 112.15 98.6001 111.87 99.1301 111.81C99.9601 111.71 100.82 112.12 101.27 112.82C101.97 113.9 101.16 115.33 101.11 116.62C101.09 117.23 101.59 117.82 101.71 118.42C101.82 118.99 102.04 119.59 102.53 119.9C102.56 119.92 102.61 119.92 102.64 119.94C102.61 120.04 102.54 120.24 102.46 120.5C102.14 120.52 101.83 120.58 101.56 120.73C100.94 121.07 100.62 121.82 100.7 122.51C100.76 123.02 101.03 123.49 101.41 123.84C101.17 124.62 100.97 125.32 100.87 125.73C100.18 126.26 100.11 127.39 100.59 128.14C101.09 128.93 102.01 129.36 102.92 129.59C103.83 129.82 104.77 129.9 105.66 130.2C105.61 130.19 105.57 130.19 105.52 130.18C105.97 130.26 106.35 130.32 106.59 130.34C107.49 130.42 109.21 130.04 109.47 128.35C109.62 127.38 109.26 126.75 108.33 126.37C108.26 126.12 108.14 125.84 108.07 125.63C108.24 125.66 108.42 125.7 108.59 125.73C108.92 125.77 109.2 125.8 109.37 125.8C110.36 125.83 111.8 125.39 112.02 123.79C112.17 122.73 111.68 121.82 110.62 121.34C110.23 121.26 109.83 121.2 109.44 121.13C109.6 120.87 109.76 120.61 109.92 120.36L110.89 120.45Z" fill="#FBC11B"/>
<path d="M111.33 115.39C111.19 115.21 111.16 114.92 111.16 114.92H111.13C110.77 114.89 106.46 114.71 106.46 114.71C106.44 113.32 105.87 111.66 105.48 110.33C105.22 110.3 104.91 110.33 104.64 110.24C104.98 111.55 105.61 113.08 105.65 114.42C105.68 115.32 105.62 116.21 105.43 117.09C105.28 117.8 105.04 118.52 104.52 119.03C104 119.54 103.15 119.75 102.54 119.36C102.05 119.05 101.84 118.45 101.72 117.88C101.6 117.28 101.55 116.67 101.58 116.07C101.63 114.78 101.98 113.37 101.29 112.29C100.84 111.59 99.9701 111.18 99.1501 111.28C98.6201 111.34 98.1201 111.62 97.7601 112.01C97.5901 112.2 96.9301 113.14 97.6101 113.16C97.8001 113.16 97.9701 113.03 98.1201 112.91C98.5801 112.54 99.1601 112.2 99.7301 112.37C100.43 112.58 100.7 113.43 100.73 114.16C100.77 115.16 100.56 116.15 100.56 117.14C100.56 118.14 100.83 119.21 101.6 119.84C100.56 120.07 99.7901 121.1 99.7601 122.17C99.7301 123.24 100.4 124.26 101.33 124.78C100.46 124.8 99.7001 125.5 99.4701 126.34C99.2401 127.18 99.5 128.1 100.03 128.79C100.26 129.09 100.54 129.35 100.88 129.51C100.95 129.54 101.03 129.56 101.11 129.58L101.43 129.12L101.32 129.27L101.1 129.58C101.33 129.65 101.58 129.69 101.82 129.73C101.96 129.75 102.1 129.77 102.25 129.78C103.34 129.92 104.43 130.06 105.52 130.19C105.57 130.2 105.61 130.2 105.66 130.21C104.77 129.91 103.83 129.83 102.92 129.6C102.01 129.37 101.1 128.94 100.59 128.15C100.09 127.36 100.18 126.15 100.97 125.66C101.45 125.36 102.04 125.38 102.6 125.42C103.49 125.48 104.37 125.59 105.25 125.73C105.49 125.77 105.73 125.81 105.96 125.85L106.14 125.88C106.19 125.89 106.23 125.9 106.28 125.9C106.38 125.92 106.48 125.94 106.57 125.95L106.72 125.98C106.82 126 106.91 126.02 107 126.03L107.14 126.06C107.27 126.09 107.41 126.11 107.53 126.14C107.8 126.2 108.02 126.27 108.23 126.34C108.29 126.36 108.36 126.37 108.42 126.39C108.28 126.16 108.45 125.81 108.71 125.77L108.57 125.74L103.68 124.78C103.04 124.65 102.38 124.52 101.83 124.19C101.23 123.83 100.77 123.21 100.68 122.51C100.59 121.81 100.92 121.06 101.54 120.73C102.01 120.47 102.57 120.48 103.11 120.49C105.62 120.57 108.13 120.86 110.6 121.35C110.62 121.35 110.65 121.36 110.67 121.36C110.51 121.05 110.67 120.61 110.99 120.47C110.95 120.47 110.91 120.46 110.88 120.46C108.9 120.28 106.92 120.09 104.94 119.91C106.15 118.85 106.33 117.06 106.42 115.46C106.42 115.45 111.13 115.39 111.33 115.39Z" fill="#E49500"/>
<path d="M81.22 36.44H22.55C12.19 36.44 3.71997 28.78 3.71997 19.41V17.31C3.71997 0.33 27.8 0 51.88 0C75.96 0 100.04 0.5 100.04 17.31V19.41C100.05 28.77 91.57 36.44 81.22 36.44Z" fill="#C4C6C7"/>
<path d="M7.39014 29.4201L11.5101 36.4401H92.2501L96.5501 29.0801L7.39014 29.4201Z" fill="#C4C6C7"/>
<path d="M89.95 53C89.95 53 73.64 47.66 51.89 47.66C30.14 47.66 14.04 53 14.04 53L11.51 36.43C11.51 36.43 27.64 31.99 51.82 31.99C76 31.99 92.25 36.43 92.25 36.43L89.95 53Z" fill="#C4C6C7"/>
<path d="M15.97 31.5599C15.49 31.5599 15.01 31.3399 14.7 30.9199C11.16 26.1499 9.09996 17.9599 12.26 12.1799C12.68 11.4099 13.64 11.1399 14.4 11.5499C15.16 11.9699 15.45 12.9299 15.03 13.6899C12.59 18.1499 14.24 24.9999 17.24 29.0399C17.414 29.2751 17.5194 29.554 17.5443 29.8455C17.5692 30.137 17.5126 30.4297 17.3809 30.691C17.2493 30.9523 17.0476 31.1719 16.7985 31.3253C16.5494 31.4787 16.2625 31.56 15.97 31.5599ZM24.92 31.2899C24.5854 31.2901 24.2557 31.2103 23.9583 31.0572C23.6609 30.9041 23.4043 30.6822 23.21 30.4099C19.04 24.5799 18.4 14.7499 21.71 7.54994C21.9451 7.04618 22.3701 6.65602 22.8922 6.46477C23.4142 6.27353 23.9907 6.29677 24.4956 6.5294C25.0005 6.76204 25.3928 7.18515 25.5866 7.7062C25.7805 8.22726 25.7601 8.80387 25.53 9.30994C22.84 15.1499 23.33 23.3499 26.63 27.9699C27.3 28.9199 27.09 30.2299 26.14 30.8999C25.77 31.1699 25.34 31.2899 24.92 31.2899ZM82.97 35.3799C82.32 35.3799 81.67 35.1399 81.17 34.6599C80.11 33.6599 80.07 31.9999 81.06 30.9399C84.7 27.0899 86.09 20.6099 84.71 14.0399C84.41 12.6199 85.32 11.2299 86.74 10.9299C88.16 10.6399 89.5499 11.5399 89.85 12.9599C91.58 21.1999 89.68 29.4699 84.88 34.5599C84.36 35.0999 83.67 35.3799 82.97 35.3799Z" fill="#959699"/>
<path d="M91.8501 38.5C53.0901 25.74 12.4201 37.83 12.0101 37.95L11.0901 34.93C11.5101 34.8 53.1301 22.43 92.8301 35.5L91.8501 38.5Z" fill="#959699"/>
</g>
<defs>
<clipPath id="clip0_36_334">
<rect width="128" height="128" fill="white"/>
</clipPath>
</defs>
</svg>
