<svg width="25" height="25" viewBox="0 0 25 25" fill="none" xmlns="http://www.w3.org/2000/svg">
<path d="M12.5 18.5C8.00669 18.5 4.16458 15.8116 2.54121 12C4.16458 8.1884 8.00669 5.5 12.5 5.5C16.9933 5.5 20.8354 8.1884 22.4588 12C20.8354 15.8116 16.9933 18.5 12.5 18.5ZM7.22727 12C7.22727 14.8627 9.59996 17.1667 12.5 17.1667C15.4 17.1667 17.7727 14.8627 17.7727 12C17.7727 9.13732 15.4 6.83333 12.5 6.83333C9.59996 6.83333 7.22727 9.13732 7.22727 12ZM10.1364 12C10.1364 10.7373 11.1809 9.7 12.5 9.7C13.8191 9.7 14.8636 10.7373 14.8636 12C14.8636 13.2627 13.8191 14.3 12.5 14.3C11.1809 14.3 10.1364 13.2627 10.1364 12Z" fill="#C0C0C0" stroke="#C0C0C0"/>
</svg>
