<svg width="17" height="17" viewBox="0 0 17 17" fill="none" xmlns="http://www.w3.org/2000/svg">
<path d="M8.50008 1.4165C5.75883 1.4165 3.54175 3.63359 3.54175 6.37484C3.54175 9.32859 6.67258 13.4015 7.96175 14.9528C8.24508 15.2928 8.76217 15.2928 9.0455 14.9528C10.3276 13.4015 13.4584 9.32859 13.4584 6.37484C13.4584 3.63359 11.2413 1.4165 8.50008 1.4165ZM8.50008 8.14567C7.52258 8.14567 6.72925 7.35234 6.72925 6.37484C6.72925 5.39734 7.52258 4.604 8.50008 4.604C9.47758 4.604 10.2709 5.39734 10.2709 6.37484C10.2709 7.35234 9.47758 8.14567 8.50008 8.14567Z" fill="#767676"/>
</svg>
