<svg width="27" height="27" viewBox="0 0 27 27" fill="none" xmlns="http://www.w3.org/2000/svg">
<g clip-path="url(#clip0_81_3095)">
<path d="M17.8537 17.1559L14.0624 14.9059V9.80967C14.0624 9.35967 13.7024 8.99967 13.2524 8.99967H13.1849C12.7349 8.99967 12.3749 9.35967 12.3749 9.80967V15.1197C12.3749 15.5134 12.5774 15.8847 12.9262 16.0872L17.0324 18.5509C17.4149 18.7759 17.9099 18.6634 18.1349 18.2809C18.3712 17.8872 18.2474 17.3809 17.8537 17.1559ZM23.8274 5.63592L20.3624 2.75592C19.8899 2.36217 19.1812 2.41842 18.7762 2.90217C18.3824 3.37467 18.4499 4.08342 18.9224 4.48842L22.3762 7.36842C22.8487 7.76217 23.5574 7.70592 23.9624 7.22217C24.3674 6.74967 24.2999 6.04092 23.8274 5.63592ZM4.61241 7.36842L8.06616 4.48842C8.54991 4.08342 8.61741 3.37467 8.21242 2.90217C7.81867 2.41842 7.10991 2.36217 6.63741 2.75592L3.17241 5.63592C2.69991 6.04092 2.63242 6.74967 3.03742 7.22217C3.43117 7.70592 4.13991 7.76217 4.61241 7.36842ZM13.4999 4.49967C7.90867 4.49967 3.37492 9.03342 3.37492 14.6247C3.37492 20.2159 7.90867 24.7497 13.4999 24.7497C19.0912 24.7497 23.6249 20.2159 23.6249 14.6247C23.6249 9.03342 19.0912 4.49967 13.4999 4.49967ZM13.4999 22.4997C9.15741 22.4997 5.62491 18.9672 5.62491 14.6247C5.62491 10.2822 9.15741 6.74967 13.4999 6.74967C17.8424 6.74967 21.3749 10.2822 21.3749 14.6247C21.3749 18.9672 17.8424 22.4997 13.4999 22.4997Z" fill="#E32525"/>
</g>
<defs>
<clipPath id="clip0_81_3095">
<rect width="27" height="27" fill="white"/>
</clipPath>
</defs>
</svg>
