<svg width="37" height="37" viewBox="0 0 37 37" fill="none" xmlns="http://www.w3.org/2000/svg">
<g clip-path="url(#clip0_85_2601)">
<path d="M30.3093 6.15128C26.2393 3.37628 21.2135 4.67128 18.5002 7.84712C15.7868 4.67128 10.761 3.36087 6.691 6.15128C4.53267 7.63128 3.176 10.1288 3.0835 12.765C2.86767 18.7467 8.171 23.5413 16.2648 30.895L16.4189 31.0338C17.5906 32.0975 19.3943 32.0975 20.566 31.0184L20.7356 30.8642C28.8293 23.5259 34.1173 18.7313 33.9168 12.7496C33.8243 10.1288 32.4677 7.63128 30.3093 6.15128ZM18.6543 28.5979L18.5002 28.7521L18.346 28.5979C11.0077 21.9534 6.16683 17.5596 6.16683 13.1042C6.16683 10.0209 8.47933 7.70837 11.5627 7.70837C13.9368 7.70837 16.2493 9.23462 17.0664 11.3467H19.9493C20.751 9.23462 23.0635 7.70837 25.4377 7.70837C28.521 7.70837 30.8335 10.0209 30.8335 13.1042C30.8335 17.5596 25.9927 21.9534 18.6543 28.5979Z" fill="white"/>
</g>
<defs>
<clipPath id="clip0_85_2601">
<rect width="37" height="37" fill="white"/>
</clipPath>
</defs>
</svg>
