<svg width="31" height="31" viewBox="0 0 31 31" fill="none" xmlns="http://www.w3.org/2000/svg">
<g clip-path="url(#clip0_85_2128)">
<path d="M16.9467 2.66059L9.79092 9.81642C9.313 10.2943 9.04175 10.9531 9.04175 11.6377V24.5414C9.04175 25.9623 10.2042 27.1248 11.6251 27.1248H23.2501C24.2834 27.1248 25.2134 26.5048 25.6267 25.5618L29.8376 15.7323C30.9226 13.1748 29.0497 10.3331 26.2726 10.3331H18.9747L20.2017 4.41726C20.3309 3.77142 20.1372 3.11267 19.6722 2.64767C18.9101 1.89851 17.6959 1.89851 16.9467 2.66059ZM3.87508 27.1248C5.29592 27.1248 6.45842 25.9623 6.45842 24.5414V14.2081C6.45842 12.7873 5.29592 11.6248 3.87508 11.6248C2.45425 11.6248 1.29175 12.7873 1.29175 14.2081V24.5414C1.29175 25.9623 2.45425 27.1248 3.87508 27.1248Z" fill="#FFBA35"/>
</g>
<defs>
<clipPath id="clip0_85_2128">
<rect width="31" height="31" fill="white"/>
</clipPath>
</defs>
</svg>
