<svg width="182" height="143" viewBox="0 0 182 143" fill="none" xmlns="http://www.w3.org/2000/svg">
<path d="M7.17236 25.7211C10.997 22.7574 13.365 19.3438 14.6612 17.0586C15.9575 19.3438 18.3255 22.7539 22.1501 25.7211C18.3287 28.6848 15.9575 32.0949 14.6612 34.3801C13.3682 32.0984 10.997 28.6848 7.17236 25.7211Z" fill="#FFE9A8"/>
<path d="M15.9253 38.1215C15.951 38.0547 18.5211 31.491 25.3586 27.0086L27.3223 25.7219L25.3586 24.4316C18.5211 19.9527 15.951 13.3891 15.9285 13.3258L14.6708 10L13.4002 13.3223C13.3745 13.3891 10.8044 19.9527 3.96687 24.4352L2 25.7219L3.96367 27.0086C10.8012 31.491 13.3713 38.0547 13.397 38.1215L14.6547 41.4402L15.9253 38.1215ZM7.17227 25.7219C10.9969 22.7582 13.3649 19.3445 14.6611 17.0594C15.9574 19.3445 18.3254 22.7547 22.15 25.7219C18.3286 28.6855 15.9574 32.0957 14.6611 34.3809C13.3681 32.0992 10.9969 28.6855 7.17227 25.7219Z" fill="#FFE9A8"/>
<path d="M159.172 113.721C162.997 110.757 165.365 107.344 166.661 105.059C167.958 107.344 170.325 110.754 174.15 113.721C170.329 116.685 167.958 120.095 166.661 122.38C165.368 120.098 162.997 116.685 159.172 113.721Z" fill="#FFE9A8"/>
<path d="M167.925 126.121C167.951 126.055 170.521 119.491 177.359 115.009L179.322 113.722L177.359 112.432C170.521 107.953 167.951 101.389 167.929 101.326L166.671 98L165.4 101.322C165.375 101.389 162.804 107.953 155.967 112.435L154 113.722L155.964 115.009C162.801 119.491 165.371 126.055 165.397 126.121L166.655 129.44L167.925 126.121ZM159.172 113.722C162.997 110.758 165.365 107.345 166.661 105.059C167.957 107.345 170.325 110.755 174.15 113.722C170.329 116.686 167.957 120.096 166.661 122.381C165.368 120.099 162.997 116.686 159.172 113.722Z" fill="#FFE9A8"/>
<path d="M31.3232 10.1021C33.7807 8.19786 35.3022 6.00444 36.1351 4.53613C36.9681 6.00444 38.4896 8.1956 40.9471 10.1021C38.4916 12.0064 36.9681 14.1976 36.1351 15.6659C35.3043 14.1998 33.7807 12.0064 31.3232 10.1021Z" fill="#FFE9A8"/>
<path d="M36.9476 18.0692C36.9641 18.0263 38.6155 13.8088 43.0089 10.9287L44.2706 10.1019L43.0089 9.27291C38.6155 6.39503 36.9641 2.17761 36.9497 2.13695L36.1415 0L35.3251 2.13469C35.3086 2.17761 33.6572 6.39503 29.2638 9.27517L28 10.1019L29.2617 10.9287C33.6551 13.8088 35.3065 18.0263 35.323 18.0692L36.1312 20.2016L36.9476 18.0692ZM31.3234 10.1019C33.7809 8.19766 35.3024 6.00424 36.1353 4.53593C36.9682 6.00424 38.4897 8.1954 40.9472 10.1019C38.4918 12.0062 36.9682 14.1974 36.1353 15.6657C35.3045 14.1996 33.7809 12.0062 31.3234 10.1019Z" fill="#FFE9A8"/>
<g clip-path="url(#clip0_0_1)">
<path d="M26.0939 104.32C26.1457 104.448 26.2732 104.791 26.3927 104.862C26.5361 104.954 27.0302 104.723 27.1736 104.647C27.6297 104.414 28.0006 104.043 28.2335 103.587C28.6917 102.683 28.1259 101.555 27.0382 101.679C25.8468 101.814 25.7512 103.46 26.0939 104.32ZM23.0697 108.022C23.1773 107.93 23.4682 107.707 23.5 107.572C23.5439 107.404 23.1733 107.006 23.0617 106.89C22.7032 106.528 22.237 106.277 21.735 106.197C20.7349 106.03 19.8264 106.91 20.2727 107.914C20.7588 109.006 22.3565 108.6 23.0697 108.022ZM27.7155 109.919C27.58 109.883 27.2254 109.787 27.1019 109.843C26.9425 109.911 26.8469 110.444 26.819 110.6C26.7473 111.106 26.831 111.628 27.07 112.078C27.5402 112.975 28.7873 113.17 29.3172 112.21C29.8989 111.166 28.612 110.134 27.7155 109.919ZM23.512 102.994C23.6793 103.149 23.8507 103.328 24.0379 103.468C24.1455 103.547 24.3846 103.611 24.4921 103.504C24.6555 103.34 24.7073 102.906 24.7551 102.695C24.9822 101.727 25.1057 100.719 24.9384 99.7305L24.9304 99.6986C24.6754 98.1526 22.5278 97.7662 21.8903 99.2802L21.8465 99.3998C21.5477 100.316 21.8983 101.276 22.5119 101.966C22.8307 102.324 23.1614 102.663 23.512 102.994ZM19.695 105.042C20.1651 105.121 20.6392 105.177 21.1134 105.217C21.3445 105.237 21.5875 105.269 21.8226 105.261C21.9501 105.257 22.1812 105.153 22.2011 105.006C22.225 104.775 21.9939 104.404 21.8983 104.209C21.472 103.308 20.9381 102.444 20.193 101.778L20.1691 101.755C19.0017 100.711 17.0852 101.751 17.5314 103.332L17.5753 103.452C17.906 104.352 18.7785 104.882 19.695 105.042ZM16.9935 110.257C15.5153 110.775 15.5074 112.959 17.1091 113.325L17.2366 113.345C18.1889 113.485 19.0734 112.971 19.6511 112.245C19.946 111.871 20.2249 111.484 20.4878 111.086C20.6153 110.891 20.7588 110.695 20.8624 110.488C20.9221 110.369 20.9421 110.122 20.8185 110.034C20.6273 109.899 20.193 109.926 19.9739 109.915C18.9817 109.863 17.9657 109.915 17.0254 110.245L16.9935 110.257ZM26.576 117.756C27.1776 117.003 27.1816 115.983 26.8469 115.114C26.674 114.67 26.4813 114.234 26.2692 113.807C26.1656 113.6 26.066 113.377 25.9425 113.178C25.8707 113.07 25.6675 112.927 25.5281 112.986C25.3169 113.082 25.1177 113.469 24.9982 113.656C24.4483 114.485 23.9821 115.389 23.7909 116.365L23.7829 116.401C23.4881 117.939 25.3607 119.047 26.4883 117.851L26.576 117.756ZM32.3971 112.532L32.425 112.552C33.7957 113.309 35.4332 111.875 34.6443 110.429L34.5766 110.321C34.0467 109.516 33.0785 109.193 32.1541 109.241C31.676 109.265 31.2018 109.317 30.7317 109.389C30.5046 109.42 30.2575 109.444 30.0344 109.504C29.9069 109.536 29.7077 109.687 29.7236 109.835C29.7475 110.066 30.0583 110.373 30.1938 110.548C30.8114 111.325 31.5246 112.05 32.3971 112.532ZM29.8631 105.261C30.0862 105.332 30.4926 105.173 30.7038 105.117C31.668 104.87 32.6163 104.508 33.4132 103.906L33.441 103.886C34.6882 102.938 34.0347 100.858 32.3971 100.997L32.2696 101.017C31.3214 101.173 30.6321 101.93 30.3014 102.798C30.1342 103.245 29.9867 103.698 29.8591 104.157C29.7993 104.38 29.7196 104.611 29.6838 104.842C29.6639 104.974 29.7196 105.213 29.8631 105.261Z" fill="#ED6C30"/>
<path d="M7.81722 116.844L7.94073 116.883C8.94081 117.15 10.1122 116.589 10.9529 116.102C11.7299 115.652 12.4949 115.166 13.1921 114.592C13.4631 114.365 13.75 114.154 13.9731 113.879C14.1723 113.628 14.3157 113.142 13.9014 113.007C13.3196 112.823 12.6463 112.919 12.0486 112.947C10.7099 113.011 9.25956 113.062 8.02441 113.644C7.59409 113.847 7.22753 114.146 6.96855 114.596C6.49042 115.421 6.89683 116.517 7.81722 116.844ZM28.5758 127.502L28.6475 127.394C29.1735 126.506 28.9424 125.223 28.6953 124.282C28.4642 123.414 28.2013 122.545 27.8307 121.724C27.6833 121.406 27.5598 121.071 27.3526 120.784C27.1614 120.525 26.731 120.254 26.492 120.617C26.1573 121.127 26.0736 121.804 25.9421 122.386C25.6473 123.693 25.3126 125.103 25.5397 126.446C25.6234 126.912 25.8146 127.35 26.1772 127.717C26.8546 128.406 28.018 128.307 28.5758 127.502ZM43.2582 116.465C44.1627 116.134 44.5532 115.035 44.0551 114.198L43.9874 114.086C43.3937 113.238 42.1346 112.915 41.1744 112.752C40.2899 112.6 39.3894 112.481 38.4889 112.477C38.1383 112.477 37.7797 112.453 37.4331 112.521C37.1183 112.584 36.696 112.867 36.9271 113.234C37.2498 113.752 37.8315 114.106 38.3057 114.469C39.3735 115.282 40.517 116.17 41.8358 116.521C42.294 116.636 42.7682 116.648 43.2582 116.465ZM36.421 95.6427C35.911 96.3838 35.4289 97.1528 35.0464 97.9656C34.899 98.2844 34.7277 98.5991 34.644 98.9458C34.5723 99.2605 34.648 99.7586 35.0823 99.7068C35.6879 99.6271 36.2537 99.2486 36.7796 98.9697C37.963 98.3401 39.25 97.6708 40.1185 96.6189C40.4174 96.2523 40.6246 95.826 40.6644 95.3041C40.7441 94.3438 39.9074 93.527 38.9352 93.6306L38.8077 93.6466C37.7917 93.8298 36.9709 94.8419 36.421 95.6427ZM9.68589 102.643C10.5664 102.827 11.4589 102.982 12.3594 103.018C12.71 103.03 13.0686 103.07 13.4153 103.014C13.734 102.962 14.1683 102.699 13.9492 102.317C13.6464 101.791 13.0766 101.412 12.6184 101.03C11.5785 100.181 10.4708 99.2446 9.16394 98.8541C8.70972 98.7147 8.23956 98.6868 7.7455 98.8462C6.82909 99.141 6.3948 100.225 6.86097 101.085L6.9287 101.201C7.48651 102.07 8.73362 102.444 9.68589 102.643ZM16.296 90.3594L16.2681 90.4869C16.0968 91.5069 16.7701 92.6186 17.3359 93.4115C17.8618 94.1366 18.4196 94.8538 19.0611 95.4913C19.3082 95.7383 19.5512 96.0053 19.846 96.2005C20.113 96.3758 20.615 96.4715 20.7067 96.0451C20.8382 95.4475 20.6708 94.7901 20.5911 94.2004C20.3959 92.8736 20.2046 91.4352 19.5034 90.2638C19.2603 89.8534 18.9296 89.5187 18.4595 89.3036C17.5789 88.8972 16.5271 89.4112 16.296 90.3594ZM24.0217 87.6939L23.9539 87.8015C23.3682 88.7776 23.6671 90.0327 23.8623 91.0766C24.185 92.8258 24.5994 94.547 25.1891 96.2244C25.2807 96.4834 25.3843 96.9496 25.6871 97.0452C26.1493 97.1847 26.225 96.5193 26.3087 96.2404C26.6952 94.9494 26.7749 93.5549 26.9661 92.2241C27.1335 91.0766 27.249 89.9092 27.0538 88.7537C26.9741 88.2876 26.7828 87.8493 26.4203 87.4827C25.7469 86.7934 24.5835 86.893 24.0217 87.6939ZM10.2756 94.3518C10.5346 95.4634 11.6223 96.1527 12.4909 96.7703C13.9372 97.8023 15.4314 98.7466 17.0251 99.5394C17.2682 99.659 17.6706 99.9259 17.9535 99.7785C18.3838 99.5633 17.9734 99.0294 17.8419 98.7665C17.2243 97.5751 16.3079 96.5193 15.519 95.4316C14.8377 94.4912 14.1085 93.5708 13.1642 92.8816C12.7817 92.5987 12.3395 92.4194 11.8215 92.4074C10.8613 92.3835 10.0923 93.2641 10.2477 94.2323L10.2756 94.3518ZM17.9853 116.597C17.7782 116.162 17.2363 116.561 16.9733 116.692C15.766 117.286 14.6903 118.182 13.5906 118.947C12.6383 119.609 11.702 120.318 10.9928 121.246C10.7059 121.625 10.5146 122.059 10.4907 122.581C10.4469 123.541 11.3115 124.326 12.2797 124.191L12.4072 124.167C13.5189 123.928 14.2321 122.856 14.8656 121.999C15.9294 120.573 16.9016 119.099 17.7264 117.521C17.8539 117.278 18.1248 116.879 17.9853 116.597ZM21.886 119.051C21.0214 120.079 20.3919 121.33 19.6907 122.474C19.081 123.462 18.5113 124.486 18.2324 125.621C18.1168 126.083 18.1168 126.557 18.3081 127.044C18.6507 127.944 19.7584 128.311 20.5911 127.801L20.6987 127.729C21.6191 127.064 21.8422 125.792 22.0813 124.753C22.4797 123.019 22.7825 121.282 22.91 119.505C22.93 119.23 23.0176 118.76 22.7746 118.557C22.408 118.25 22.0733 118.828 21.886 119.051ZM5.1955 105.683C4.45441 106.293 4.45042 107.46 5.1955 108.086L5.29909 108.166C6.22347 108.831 7.49448 108.64 8.55831 108.54C10.3274 108.373 12.0725 108.106 13.7978 107.668C14.0647 107.596 14.5389 107.532 14.6584 107.241C14.8417 106.795 14.1803 106.66 13.9093 106.552C12.6622 106.054 11.2717 105.855 9.96878 105.552C8.8412 105.285 7.68573 105.07 6.5223 105.161C6.05214 105.197 5.59792 105.349 5.1955 105.683ZM30.066 98.0732C30.3767 98.129 30.6796 97.7544 30.8748 97.5672C32.1498 96.3241 33.2893 94.9733 34.3571 93.5509C34.9986 92.6983 35.8234 91.7141 35.7357 90.5746L35.7238 90.4471C35.5803 89.4789 34.5803 88.8733 33.6718 89.192C33.1817 89.3633 32.8152 89.6662 32.5363 90.0487C31.847 90.9969 31.4326 92.0887 31.07 93.1923C30.6477 94.4633 30.0939 95.7503 29.8667 97.0771C29.8189 97.364 29.5918 97.9935 30.066 98.0732ZM43.0471 99.7506C41.8996 99.9618 40.8397 100.472 39.8157 101.022C38.6364 101.655 37.3494 102.205 36.2696 103.006C36.0385 103.181 35.4369 103.48 35.7238 103.866C35.919 104.117 36.3932 104.058 36.6641 104.058C38.4451 104.038 40.2022 103.843 41.9553 103.548C43.0032 103.368 44.2822 103.221 45.0034 102.34L45.0831 102.237C45.6449 101.436 45.3381 100.308 44.4615 99.914C43.9874 99.6948 43.5132 99.663 43.0471 99.7506ZM35.5166 126.275C35.6441 125.769 35.5883 125.294 35.421 124.852C35.0066 123.76 34.3173 122.808 33.5961 121.9C32.7634 120.852 31.9904 119.68 31.0103 118.764C30.7951 118.565 30.3927 118.027 30.066 118.382C29.8508 118.613 29.9943 119.071 30.046 119.342C30.3807 121.087 30.8867 122.78 31.4924 124.454C31.851 125.454 32.2255 126.689 33.2176 127.239L33.3332 127.295C34.2257 127.705 35.2815 127.203 35.5166 126.275ZM40.9752 121.011C40.1823 120.155 39.1862 119.533 38.1702 118.963C37.0028 118.306 35.8473 117.521 34.5922 117.043C34.3173 116.939 33.7435 116.593 33.5722 117.047C33.4646 117.342 33.7675 117.708 33.9189 117.939C34.891 119.433 35.9987 120.808 37.19 122.131C37.9032 122.92 38.716 123.92 39.8436 124.055L39.9711 124.063C40.9473 124.107 41.7362 123.242 41.6007 122.29C41.533 121.776 41.3019 121.358 40.9752 121.011ZM44.5372 107.17C43.3897 106.954 42.2183 107.05 41.0708 107.193C39.74 107.361 38.3415 107.413 37.0466 107.775C36.7637 107.855 36.0943 107.923 36.2298 108.385C36.3175 108.688 36.7796 108.803 37.0386 108.899C38.7041 109.52 40.4134 109.967 42.1585 110.321C43.1985 110.536 44.4496 110.855 45.4377 110.293L45.5453 110.226C46.3581 109.68 46.4776 108.516 45.8042 107.831C45.4377 107.456 45.0034 107.261 44.5372 107.17Z" fill="#F79329"/>
<path d="M27.277 106.134C26.6953 106.134 26.2251 106.608 26.2251 107.186C26.2251 107.767 26.6953 108.238 27.277 108.238C27.8587 108.238 28.3288 107.767 28.3288 107.186C28.3288 106.608 27.8587 106.134 27.277 106.134Z" fill="#ED6C30"/>
<path d="M23.9142 111.281C24.4951 111.281 24.9661 110.811 24.9661 110.23C24.9661 109.649 24.4951 109.178 23.9142 109.178C23.3332 109.178 22.8623 109.649 22.8623 110.23C22.8623 110.811 23.3332 111.281 23.9142 111.281Z" fill="#ED6C30"/>
<path d="M36.2099 128.788C35.2058 128.788 34.397 129.601 34.397 130.601C34.397 131.605 35.2098 132.414 36.2099 132.414C36.6907 132.414 37.1518 132.223 37.4918 131.883C37.8318 131.543 38.0228 131.082 38.0228 130.601C38.0228 130.12 37.8318 129.659 37.4918 129.319C37.1518 128.979 36.6907 128.788 36.2099 128.788Z" fill="#FCC21B"/>
<path d="M44.2743 127.438C45.2755 127.438 46.0872 126.627 46.0872 125.625C46.0872 124.624 45.2755 123.812 44.2743 123.812C43.2731 123.812 42.4614 124.624 42.4614 125.625C42.4614 126.627 43.2731 127.438 44.2743 127.438Z" fill="#FCC21B"/>
<path d="M48.0556 114.791C47.8175 114.791 47.5818 114.838 47.3618 114.929C47.1419 115.02 46.942 115.154 46.7737 115.322C46.6053 115.49 46.4718 115.69 46.3807 115.91C46.2896 116.13 46.2427 116.366 46.2427 116.604C46.2427 116.842 46.2896 117.078 46.3807 117.298C46.4718 117.518 46.6053 117.717 46.7737 117.886C46.942 118.054 47.1419 118.188 47.3618 118.279C47.5818 118.37 47.8175 118.417 48.0556 118.417C49.0556 118.417 49.8685 117.604 49.8685 116.604C49.8685 115.6 49.0556 114.791 48.0556 114.791Z" fill="#FCC21B"/>
<path d="M48.6649 101.527C49.6662 101.527 50.4778 100.715 50.4778 99.7143C50.4778 98.713 49.6662 97.9014 48.6649 97.9014C47.6637 97.9014 46.8521 98.713 46.8521 99.7143C46.8521 100.715 47.6637 101.527 48.6649 101.527Z" fill="#FCC21B"/>
<path d="M37.0907 87.5379C37.3289 87.5384 37.5649 87.4919 37.7851 87.401C38.0053 87.31 38.2053 87.1765 38.3738 87.0081C38.5422 86.8396 38.6757 86.6396 38.7666 86.4194C38.8576 86.1992 38.9041 85.9632 38.9036 85.725C38.9036 84.7249 38.0908 83.9121 37.0907 83.9121C36.0866 83.9121 35.2778 84.7249 35.2778 85.725C35.2778 86.7291 36.0906 87.5379 37.0907 87.5379ZM15.4276 87.5459C16.4317 87.5459 17.2405 86.733 17.2405 85.733C17.2405 84.7289 16.4277 83.9201 15.4276 83.9201C15.1894 83.9196 14.9534 83.9661 14.7333 84.057C14.5131 84.1479 14.313 84.2814 14.1446 84.4499C13.9761 84.6183 13.8426 84.8184 13.7517 85.0386C13.6608 85.2588 13.6142 85.4947 13.6148 85.733C13.6148 86.733 14.4236 87.5459 15.4276 87.5459Z" fill="#FCC21B"/>
<path d="M3.48232 100.161C4.48356 100.161 5.29521 99.3477 5.29521 98.3442C5.29521 97.3408 4.48356 96.5273 3.48232 96.5273C2.48109 96.5273 1.66943 97.3408 1.66943 98.3442C1.66943 99.3477 2.48109 100.161 3.48232 100.161Z" fill="#FCC21B"/>
<path d="M3.53799 115.947C3.29958 115.947 3.06352 115.994 2.84331 116.086C2.6231 116.177 2.42307 116.311 2.25467 116.48C2.08628 116.648 1.95283 116.849 1.86195 117.069C1.77108 117.29 1.72458 117.526 1.7251 117.764C1.7251 118.764 2.53791 119.577 3.53799 119.577C4.53807 119.577 5.35088 118.764 5.35088 117.764C5.35088 116.756 4.54206 115.947 3.53799 115.947Z" fill="#FCC21B"/>
<path d="M18.145 132.86C19.1484 132.86 19.9619 132.047 19.9619 131.043C19.9619 130.04 19.1484 129.227 18.145 129.227C17.1416 129.227 16.3281 130.04 16.3281 131.043C16.3281 132.047 17.1416 132.86 18.145 132.86Z" fill="#FCC21B"/>
<path d="M49.2349 107.667C48.3663 107.667 47.665 108.368 47.665 109.233C47.665 110.101 48.3663 110.807 49.2349 110.807C50.0995 110.807 50.8007 110.101 50.8007 109.233C50.8047 108.368 50.0995 107.667 49.2349 107.667Z" fill="#FCC21B"/>
<path d="M43.1987 93.6104C44.0635 93.6104 44.7645 92.9075 44.7645 92.0405C44.7645 91.1735 44.0635 90.4707 43.1987 90.4707C42.3339 90.4707 41.6328 91.1735 41.6328 92.0405C41.6328 92.9075 42.3339 93.6104 43.1987 93.6104Z" fill="#FCC21B"/>
<path d="M25.0777 85.2793C25.9447 85.2793 26.6475 84.5765 26.6475 83.7095C26.6475 82.8425 25.9447 82.1396 25.0777 82.1396C24.2107 82.1396 23.5078 82.8425 23.5078 83.7095C23.5078 84.5765 24.2107 85.2793 25.0777 85.2793Z" fill="#FCC21B"/>
<path d="M8.0801 92.1836C8.9471 92.1836 9.64994 91.4808 9.64994 90.6138C9.64994 89.7468 8.9471 89.0439 8.0801 89.0439C7.2131 89.0439 6.51025 89.7468 6.51025 90.6138C6.51025 91.4808 7.2131 92.1836 8.0801 92.1836Z" fill="#FCC21B"/>
<path d="M1.76516 108.611C2.63216 108.611 3.335 107.909 3.335 107.042C3.335 106.175 2.63216 105.472 1.76516 105.472C0.898155 105.472 0.195312 106.175 0.195312 107.042C0.195312 107.909 0.898155 108.611 1.76516 108.611Z" fill="#FCC21B"/>
<path d="M8.69387 127.729C9.56087 127.729 10.2637 127.026 10.2637 126.159C10.2637 125.292 9.56087 124.589 8.69387 124.589C7.82687 124.589 7.12402 125.292 7.12402 126.159C7.12402 127.026 7.82687 127.729 8.69387 127.729Z" fill="#FCC21B"/>
<path d="M27.5518 132.849C28.4188 132.849 29.1216 132.146 29.1216 131.279C29.1216 130.412 28.4188 129.709 27.5518 129.709C26.6848 129.709 25.9819 130.412 25.9819 131.279C25.9819 132.146 26.6848 132.849 27.5518 132.849Z" fill="#FCC21B"/>
</g>
<g clip-path="url(#clip1_0_1)">
<path d="M138.536 41.9518C138.626 42.1743 138.849 42.7723 139.057 42.8974C139.308 43.0574 140.17 42.6541 140.42 42.522C141.216 42.1155 141.863 41.4683 142.27 40.6724C143.069 39.0941 142.082 37.1263 140.184 37.3419C138.105 37.5783 137.938 40.4499 138.536 41.9518ZM133.259 48.4113C133.446 48.2513 133.954 47.862 134.01 47.6256C134.086 47.3335 133.439 46.6382 133.245 46.4366C132.619 45.8038 131.805 45.3658 130.929 45.2267C129.184 44.9347 127.599 46.4713 128.378 48.2235C129.226 50.1287 132.014 49.4195 133.259 48.4113ZM141.366 51.721C141.13 51.6584 140.511 51.4915 140.295 51.5888C140.017 51.707 139.85 52.6388 139.801 52.9099C139.676 53.793 139.822 54.7038 140.24 55.4895C141.06 57.054 143.236 57.3947 144.161 55.719C145.176 53.8973 142.93 52.0964 141.366 51.721ZM134.03 39.6364C134.322 39.9076 134.621 40.2205 134.948 40.4638C135.136 40.6029 135.553 40.7142 135.741 40.5264C136.026 40.2413 136.116 39.4835 136.2 39.1149C136.596 37.4253 136.812 35.6662 136.52 33.9418L136.506 33.8862C136.061 31.1884 132.313 30.5139 131.2 33.1561L131.124 33.3647C130.603 34.9639 131.214 36.6396 132.285 37.8425C132.841 38.4683 133.419 39.0593 134.03 39.6364ZM127.369 43.2103C128.19 43.3494 129.017 43.4467 129.845 43.5163C130.248 43.551 130.672 43.6067 131.082 43.5928C131.305 43.5858 131.708 43.405 131.743 43.1478C131.785 42.7445 131.381 42.0978 131.214 41.7571C130.47 40.1857 129.539 38.6769 128.238 37.5157L128.197 37.474C126.159 35.6523 122.815 37.467 123.594 40.2274L123.67 40.436C124.247 42.0074 125.77 42.9322 127.369 43.2103ZM122.655 52.312C120.075 53.2159 120.062 57.0262 122.857 57.6659L123.079 57.7006C124.741 57.944 126.285 57.0471 127.293 55.7816C127.807 55.128 128.294 54.4535 128.753 53.7582C128.975 53.4175 129.226 53.0768 129.407 52.7153C129.511 52.5067 129.546 52.0756 129.33 51.9226C128.996 51.6862 128.238 51.7349 127.856 51.714C126.125 51.6236 124.352 51.714 122.711 52.2911L122.655 52.312ZM139.377 65.3978C140.427 64.0836 140.434 62.3036 139.85 60.7878C139.548 60.0129 139.212 59.2519 138.842 58.5072C138.661 58.1456 138.487 57.7563 138.272 57.4086C138.147 57.2209 137.792 56.9706 137.549 57.0749C137.18 57.2417 136.833 57.9162 136.624 58.243C135.664 59.6892 134.851 61.2676 134.517 62.9711L134.503 63.0337C133.989 65.7176 137.257 67.6506 139.224 65.5646L139.377 65.3978ZM149.536 56.2822L149.585 56.317C151.976 57.6381 154.834 55.1349 153.457 52.611L153.339 52.4232C152.414 51.0187 150.725 50.4555 149.112 50.5389C148.277 50.5806 147.45 50.671 146.629 50.7962C146.233 50.8518 145.802 50.8935 145.413 50.9978C145.19 51.0535 144.842 51.3177 144.87 51.5749C144.912 51.9782 145.454 52.5136 145.691 52.8195C146.769 54.1754 148.013 55.4409 149.536 56.2822ZM145.114 43.5928C145.503 43.7179 146.212 43.4398 146.581 43.3424C148.263 42.9113 149.918 42.2786 151.309 41.2287L151.358 41.1939C153.534 39.5391 152.394 35.9095 149.536 36.1529L149.313 36.1877C147.659 36.4588 146.456 37.7799 145.879 39.2957C145.587 40.0745 145.329 40.8655 145.107 41.6667C145.002 42.0561 144.863 42.4594 144.801 42.8627C144.766 43.0921 144.863 43.5093 145.114 43.5928Z" fill="#ED6C30"/>
<path d="M106.642 63.8047L106.858 63.8742C108.603 64.3401 110.647 63.3597 112.114 62.5114C113.47 61.7257 114.805 60.8774 116.022 59.8762C116.495 59.4799 116.995 59.1113 117.385 58.6316C117.732 58.1935 117.983 57.3452 117.259 57.1088C116.244 56.789 115.069 56.9559 114.026 57.0045C111.69 57.1158 109.159 57.2062 107.004 58.2213C106.253 58.576 105.613 59.0974 105.161 59.8831C104.327 61.3224 105.036 63.2345 106.642 63.8047ZM142.868 82.4043L142.993 82.2166C143.911 80.666 143.507 78.4271 143.076 76.7862C142.673 75.2704 142.214 73.7546 141.568 72.3223C141.31 71.766 141.095 71.182 140.733 70.6813C140.399 70.2294 139.648 69.7566 139.231 70.3893C138.647 71.2793 138.501 72.4613 138.272 73.4765C137.757 75.7571 137.173 78.2185 137.569 80.5617C137.715 81.3753 138.049 82.1401 138.682 82.7798C139.864 83.9827 141.894 83.8088 142.868 82.4043ZM168.49 63.1442C170.068 62.567 170.75 60.648 169.881 59.1878L169.762 58.9931C168.726 57.5121 166.529 56.9489 164.854 56.6638C163.31 56.3996 161.739 56.191 160.167 56.1841C159.555 56.1841 158.929 56.1424 158.325 56.2606C157.775 56.3718 157.038 56.8655 157.441 57.5052C158.005 58.4091 159.02 59.0279 159.847 59.6606C161.711 61.0791 163.706 62.6296 166.008 63.2415C166.807 63.4431 167.635 63.464 168.49 63.1442ZM156.558 26.8071C155.668 28.1004 154.827 29.4424 154.16 30.8608C153.902 31.417 153.603 31.9663 153.457 32.5713C153.332 33.1206 153.464 33.9897 154.222 33.8993C155.279 33.7602 156.266 33.0997 157.184 32.613C159.249 31.5144 161.495 30.3463 163.011 28.5106C163.532 27.871 163.894 27.127 163.964 26.2161C164.103 24.5404 162.642 23.115 160.946 23.2958L160.723 23.3236C158.95 23.6435 157.518 25.4095 156.558 26.8071ZM109.903 39.0238C111.44 39.3436 112.997 39.6148 114.569 39.6774C115.18 39.6982 115.806 39.7677 116.411 39.6704C116.967 39.58 117.725 39.1211 117.343 38.4536C116.814 37.5358 115.82 36.8752 115.02 36.2077C113.206 34.7267 111.273 33.0927 108.992 32.4113C108.199 32.168 107.379 32.1193 106.517 32.3974C104.918 32.912 104.16 34.8032 104.973 36.3051L105.091 36.5067C106.065 38.0225 108.241 38.6761 109.903 39.0238ZM121.438 17.5873L121.39 17.8098C121.091 19.5898 122.266 21.5297 123.253 22.9134C124.171 24.1788 125.144 25.4304 126.264 26.5429C126.695 26.974 127.119 27.4399 127.633 27.7806C128.099 28.0865 128.975 28.2534 129.135 27.5094C129.365 26.4664 129.073 25.3192 128.934 24.2901C128.593 21.9747 128.259 19.4646 127.035 17.4204C126.611 16.7042 126.034 16.1202 125.214 15.7447C123.677 15.0355 121.841 15.9324 121.438 17.5873ZM134.92 12.9356L134.802 13.1234C133.78 14.8269 134.301 17.0171 134.642 18.8388C135.205 21.8913 135.929 24.895 136.958 27.8223C137.118 28.2742 137.298 29.0877 137.827 29.2546C138.633 29.498 138.765 28.3368 138.911 27.8501C139.586 25.5973 139.725 23.1637 140.059 20.8413C140.351 18.8388 140.552 16.8016 140.212 14.7852C140.073 13.9717 139.739 13.2068 139.106 12.5671C137.931 11.3642 135.901 11.5381 134.92 12.9356ZM110.932 24.5543C111.384 26.4942 113.282 27.6971 114.798 28.7749C117.322 30.5757 119.929 32.2236 122.711 33.6073C123.135 33.8159 123.837 34.2817 124.331 34.0245C125.082 33.649 124.365 32.7173 124.136 32.2584C123.058 30.1794 121.459 28.3368 120.082 26.4386C118.893 24.7977 117.621 23.1915 115.973 21.9886C115.306 21.4949 114.534 21.182 113.63 21.1612C111.954 21.1195 110.612 22.6561 110.883 24.3457L110.932 24.5543ZM124.386 63.3736C124.025 62.6157 123.079 63.311 122.62 63.5405C120.513 64.5765 118.636 66.141 116.717 67.476C115.055 68.6302 113.421 69.8678 112.184 71.4879C111.683 72.1484 111.349 72.9063 111.308 73.8172C111.231 75.4929 112.74 76.8627 114.429 76.6263L114.652 76.5845C116.592 76.1674 117.836 74.297 118.942 72.802C120.799 70.3128 122.495 67.7402 123.934 64.9867C124.157 64.5626 124.63 63.8673 124.386 63.3736ZM131.193 67.6567C129.685 69.4506 128.586 71.6339 127.362 73.6295C126.298 75.3538 125.304 77.1408 124.817 79.1224C124.616 79.929 124.616 80.7564 124.95 81.6047C125.548 83.1761 127.48 83.8158 128.934 82.9258L129.121 82.8006C130.728 81.6395 131.117 79.4214 131.534 77.6067C132.229 74.582 132.758 71.5505 132.98 68.4494C133.015 67.9696 133.168 67.1492 132.744 66.7945C132.104 66.2592 131.52 67.2674 131.193 67.6567ZM102.067 44.329C100.774 45.3928 100.767 47.4301 102.067 48.5217L102.248 48.6608C103.861 49.822 106.079 49.4882 107.935 49.3144C111.022 49.0224 114.068 48.5565 117.079 47.7917C117.544 47.6665 118.372 47.5552 118.58 47.0477C118.9 46.2689 117.746 46.0325 117.273 45.8448C115.097 44.9756 112.67 44.628 110.397 44.0995C108.429 43.6337 106.413 43.2582 104.382 43.4181C103.562 43.4807 102.769 43.7449 102.067 44.329ZM145.468 31.0485C146.011 31.1459 146.539 30.4923 146.88 30.1655C149.105 27.9961 151.093 25.639 152.957 23.1567C154.076 21.6688 155.515 19.9513 155.363 17.9627L155.342 17.7403C155.091 16.0506 153.346 14.9938 151.761 15.55C150.906 15.849 150.266 16.3774 149.779 17.0449C148.576 18.6998 147.853 20.6049 147.22 22.531C146.483 24.749 145.517 26.9949 145.121 29.3102C145.037 29.8109 144.641 30.9095 145.468 31.0485ZM168.121 33.9758C166.119 34.3443 164.269 35.2343 162.483 36.1938C160.424 37.2994 158.179 38.2589 156.294 39.6565C155.891 39.9624 154.841 40.4839 155.342 41.1584C155.682 41.5964 156.51 41.4921 156.983 41.4921C160.091 41.4574 163.157 41.1167 166.216 40.6021C168.045 40.2892 170.277 40.032 171.535 38.4953L171.675 38.3145C172.655 36.917 172.12 34.9492 170.59 34.2609C169.762 33.8785 168.935 33.8228 168.121 33.9758ZM154.98 80.2627C155.203 79.3797 155.105 78.5523 154.813 77.7805C154.09 75.8753 152.887 74.2135 151.629 72.6282C150.175 70.7995 148.827 68.7553 147.116 67.1561C146.741 66.8084 146.038 65.8698 145.468 66.4886C145.093 66.8919 145.343 67.6915 145.433 68.1643C146.018 71.2098 146.901 74.1649 147.957 77.0852C148.583 78.8304 149.237 80.9859 150.968 81.9454L151.17 82.0427C152.727 82.7589 154.57 81.8828 154.98 80.2627ZM164.506 71.0777C163.122 69.5827 161.384 68.4981 159.611 67.5038C157.574 66.3565 155.557 64.9867 153.367 64.1524C152.887 63.9716 151.886 63.3667 151.587 64.1593C151.399 64.6738 151.928 65.3135 152.192 65.7168C153.888 68.3242 155.821 70.7231 157.9 73.0315C159.145 74.4082 160.563 76.1535 162.531 76.3899L162.754 76.4038C164.457 76.4802 165.834 74.9714 165.598 73.3096C165.479 72.4127 165.076 71.6826 164.506 71.0777ZM170.722 46.9225C168.719 46.547 166.675 46.7139 164.673 46.9642C162.35 47.2563 159.91 47.3467 157.65 47.9794C157.156 48.1185 155.988 48.2367 156.225 49.0432C156.378 49.5717 157.184 49.7733 157.636 49.9402C160.543 51.0249 163.525 51.8036 166.571 52.4224C168.386 52.7979 170.569 53.3542 172.293 52.3738L172.481 52.2556C173.9 51.303 174.108 49.2727 172.933 48.0767C172.293 47.4231 171.535 47.0824 170.722 46.9225Z" fill="#F79329"/>
<path d="M140.601 45.1152C139.586 45.1152 138.766 45.9427 138.766 46.9509C138.766 47.966 139.586 48.7865 140.601 48.7865C141.616 48.7865 142.437 47.966 142.437 46.9509C142.437 45.9427 141.616 45.1152 140.601 45.1152Z" fill="#ED6C30"/>
<path d="M134.733 54.099C135.746 54.099 136.568 53.2771 136.568 52.2634C136.568 51.2496 135.746 50.4277 134.733 50.4277C133.719 50.4277 132.897 51.2496 132.897 52.2634C132.897 53.2771 133.719 54.099 134.733 54.099Z" fill="#ED6C30"/>
<path d="M156.19 84.6504C154.438 84.6504 153.026 86.0688 153.026 87.8141C153.026 89.5663 154.445 90.9777 156.19 90.9777C157.029 90.9777 157.834 90.6444 158.427 90.0511C159.02 89.4578 159.354 88.6531 159.354 87.8141C159.354 86.975 159.02 86.1703 158.427 85.577C157.834 84.9837 157.029 84.6504 156.19 84.6504Z" fill="#FCC21B"/>
<path d="M170.263 82.2932C172.011 82.2932 173.427 80.8767 173.427 79.1295C173.427 77.3822 172.011 75.9658 170.263 75.9658C168.516 75.9658 167.1 77.3822 167.1 79.1295C167.1 80.8767 168.516 82.2932 170.263 82.2932Z" fill="#FCC21B"/>
<path d="M176.861 60.2246C176.446 60.2246 176.035 60.3064 175.651 60.4654C175.267 60.6244 174.918 60.8575 174.624 61.1512C174.331 61.445 174.098 61.7938 173.939 62.1776C173.78 62.5614 173.698 62.9728 173.698 63.3883C173.698 63.8037 173.78 64.2151 173.939 64.599C174.098 64.9828 174.331 65.3316 174.624 65.6253C174.918 65.9191 175.267 66.1521 175.651 66.3111C176.035 66.4701 176.446 66.552 176.861 66.552C178.607 66.552 180.025 65.1335 180.025 63.3883C180.025 61.6361 178.607 60.2246 176.861 60.2246Z" fill="#FCC21B"/>
<path d="M177.925 37.0773C179.673 37.0773 181.089 35.6609 181.089 33.9137C181.089 32.1664 179.673 30.75 177.925 30.75C176.178 30.75 174.762 32.1664 174.762 33.9137C174.762 35.6609 176.178 37.0773 177.925 37.0773Z" fill="#FCC21B"/>
<path d="M157.727 12.6652C158.142 12.6662 158.554 12.5849 158.938 12.4263C159.323 12.2676 159.672 12.0346 159.966 11.7407C160.26 11.4467 160.493 11.0976 160.651 10.7133C160.81 10.3291 160.891 9.91728 160.89 9.50156C160.89 7.75633 159.472 6.33789 157.727 6.33789C155.974 6.33789 154.563 7.75633 154.563 9.50156C154.563 11.2538 155.981 12.6652 157.727 12.6652ZM119.922 12.6791C121.675 12.6791 123.086 11.2607 123.086 9.51547C123.086 7.76328 121.668 6.3518 119.922 6.3518C119.507 6.35088 119.095 6.43209 118.711 6.59075C118.326 6.74941 117.977 6.98241 117.683 7.27637C117.389 7.57033 117.156 7.91945 116.998 8.3037C116.839 8.68795 116.758 9.09975 116.759 9.51547C116.759 11.2607 118.17 12.6791 119.922 12.6791Z" fill="#FCC21B"/>
<path d="M99.0772 34.6928C100.824 34.6928 102.241 33.2733 102.241 31.5222C102.241 29.7711 100.824 28.3516 99.0772 28.3516C97.33 28.3516 95.9136 29.7711 95.9136 31.5222C95.9136 33.2733 97.33 34.6928 99.0772 34.6928Z" fill="#FCC21B"/>
<path d="M99.1744 62.2402C98.7584 62.2402 98.3464 62.3223 97.9621 62.4817C97.5778 62.6411 97.2288 62.8748 96.9349 63.1693C96.641 63.4638 96.4082 63.8134 96.2496 64.198C96.091 64.5827 96.0098 64.9948 96.0107 65.4109C96.0107 67.1561 97.4292 68.5745 99.1744 68.5745C100.92 68.5745 102.338 67.1561 102.338 65.4109C102.338 63.6517 100.927 62.2402 99.1744 62.2402Z" fill="#FCC21B"/>
<path d="M124.665 91.7563C126.416 91.7563 127.835 90.3368 127.835 88.5857C127.835 86.8346 126.416 85.415 124.665 85.415C122.914 85.415 121.494 86.8346 121.494 88.5857C121.494 90.3368 122.914 91.7563 124.665 91.7563Z" fill="#FCC21B"/>
<path d="M178.92 47.792C177.404 47.792 176.18 49.0157 176.18 50.5246C176.18 52.0404 177.404 53.2711 178.92 53.2711C180.429 53.2711 181.652 52.0404 181.652 50.5246C181.659 49.0157 180.429 47.792 178.92 47.792Z" fill="#FCC21B"/>
<path d="M168.386 23.2613C169.895 23.2613 171.118 22.0348 171.118 20.5218C171.118 19.0088 169.895 17.7822 168.386 17.7822C166.877 17.7822 165.653 19.0088 165.653 20.5218C165.653 22.0348 166.877 23.2613 168.386 23.2613Z" fill="#FCC21B"/>
<path d="M136.763 8.72223C138.276 8.72223 139.502 7.4957 139.502 5.9827C139.502 4.46969 138.276 3.24316 136.763 3.24316C135.25 3.24316 134.023 4.46969 134.023 5.9827C134.023 7.4957 135.25 8.72223 136.763 8.72223Z" fill="#FCC21B"/>
<path d="M107.101 20.772C108.614 20.772 109.84 19.5455 109.84 18.0325C109.84 16.5195 108.614 15.293 107.101 15.293C105.588 15.293 104.361 16.5195 104.361 18.0325C104.361 19.5455 105.588 20.772 107.101 20.772Z" fill="#FCC21B"/>
<path d="M96.0804 49.44C97.5934 49.44 98.8199 48.2135 98.8199 46.7005C98.8199 45.1875 97.5934 43.9609 96.0804 43.9609C94.5674 43.9609 93.3408 45.1875 93.3408 46.7005C93.3408 48.2135 94.5674 49.44 96.0804 49.44Z" fill="#FCC21B"/>
<path d="M108.172 82.8013C109.685 82.8013 110.911 81.5748 110.911 80.0618C110.911 78.5488 109.685 77.3223 108.172 77.3223C106.659 77.3223 105.432 78.5488 105.432 80.0618C105.432 81.5748 106.659 82.8013 108.172 82.8013Z" fill="#FCC21B"/>
<path d="M141.081 91.7359C142.594 91.7359 143.82 90.5094 143.82 88.9964C143.82 87.4834 142.594 86.2568 141.081 86.2568C139.568 86.2568 138.341 87.4834 138.341 88.9964C138.341 90.5094 139.568 91.7359 141.081 91.7359Z" fill="#FCC21B"/>
</g>
<g clip-path="url(#clip2_0_1)">
<path d="M91.9596 130.145C111.112 136.749 131.991 126.577 138.595 107.425C145.2 88.2727 135.027 67.3931 115.875 60.7889C96.7231 54.1848 75.8435 64.3569 69.2394 83.5091C62.6353 102.661 72.8074 123.541 91.9596 130.145Z" fill="#F4900C"/>
<path d="M93.3663 126.065C112.518 132.669 133.398 122.497 140.002 103.345C146.606 84.1926 136.434 63.313 117.282 56.7088C98.1299 50.1047 77.2503 60.2769 70.6461 79.429C64.042 98.5811 74.2142 119.461 93.3663 126.065Z" fill="#FFCC4D"/>
<path d="M94.7727 121.986C110.545 127.425 127.74 119.047 133.179 103.275C138.617 87.5028 130.24 70.3078 114.468 64.8691C98.6957 59.4304 81.5007 67.8075 76.062 83.5798C70.6233 99.3522 79.0004 116.547 94.7727 121.986Z" fill="#FFE8B6"/>
<path d="M95.4763 119.946C111.249 125.385 128.444 117.007 133.882 101.235C139.321 85.4628 130.944 68.2678 115.172 62.8291C99.3993 57.3904 82.2043 65.7675 76.7656 81.5398C71.3269 97.3122 79.704 114.507 95.4763 119.946Z" fill="#FFAC33"/>
<path d="M92.3944 72.9058C92.7778 71.794 94.0224 71.7256 94.0224 71.7256L112.695 69.7195L126.316 82.8612C126.316 82.8612 127.348 83.4956 126.894 84.8113L126.443 86.1188L91.9407 74.2215L92.3944 72.9058Z" fill="#FFE8B6"/>
<path d="M124.427 88.4705C124.838 87.2793 124.14 85.9592 122.872 85.5217L94.9803 75.904C93.7094 75.4658 92.4914 76.1254 92.0806 77.3167C91.8014 78.1265 91.9769 78.9676 92.5126 79.5655L92.0441 80.924L96.3564 82.411L96.7285 81.3319L101.041 82.8189L100.669 83.898L104.981 85.385L105.353 84.3059L109.665 85.7929L109.293 86.872L113.606 88.359L113.978 87.2799L118.29 88.7669L117.918 89.846L122.232 91.3337L122.72 89.9201C123.499 89.7595 124.163 89.2375 124.427 88.4705ZM119.807 112.359C119.66 112.788 119.347 113.14 118.939 113.339C118.531 113.538 118.061 113.566 117.632 113.419L82.0524 101.15C81.6234 101.002 81.2707 100.69 81.0719 100.282C80.8732 99.8736 80.8446 99.4033 80.9926 98.9743C81.1405 98.5453 81.4528 98.1926 81.8608 97.9939C82.2688 97.7951 82.739 97.7666 83.168 97.9145L118.75 110.184C119.641 110.491 120.116 111.465 119.807 112.359Z" fill="#F4900C"/>
<path d="M125.951 87.5448C125.853 87.831 125.644 88.0663 125.372 88.1989C125.1 88.3315 124.786 88.3505 124.5 88.2518L92.1539 77.098C91.885 76.9863 91.6688 76.7763 91.5493 76.5108C91.4299 76.2453 91.4163 75.9442 91.5112 75.6689C91.6061 75.3937 91.8024 75.165 92.0601 75.0295C92.3178 74.894 92.6175 74.8619 92.8981 74.9398L125.242 86.0997C125.384 86.148 125.515 86.2236 125.627 86.3223C125.739 86.4211 125.831 86.541 125.897 86.6752C125.962 86.8095 126.001 86.9553 126.011 87.1046C126.02 87.2538 126 87.4034 125.951 87.5448ZM96.4084 78.759L120.13 86.9389L119.296 89.3582L95.5742 81.1783L96.4084 78.759Z" fill="#F4900C"/>
<path d="M91.8478 95.4798C91.4371 96.671 90.4597 97.4136 89.6662 97.14L88.2281 96.6441C87.4346 96.3705 87.1227 95.1834 87.5335 93.9921L93.1706 77.6444C93.5814 76.4531 94.5587 75.7106 95.3522 75.9842L96.7903 76.4801C97.5838 76.7537 97.8957 77.9408 97.4849 79.1321L91.8478 95.4798ZM117.726 104.403C117.315 105.594 116.34 106.338 115.544 106.063L114.106 105.567C113.313 105.294 113.001 104.107 113.411 102.915L119.049 86.5678C119.459 85.3765 120.435 84.6332 121.23 84.9076L122.668 85.4035C123.462 85.6771 123.774 86.8642 123.363 88.0555L117.726 104.403ZM100.475 98.4545C100.064 99.6457 99.0864 100.388 98.2929 100.115L96.8548 99.6188C96.0613 99.3452 95.7494 98.158 96.1602 96.9668L101.797 80.6191C102.208 79.4278 103.185 78.6853 103.979 78.9589L105.417 79.4548C106.21 79.7284 106.522 80.9155 106.112 82.1068L100.475 98.4545ZM109.099 101.428C108.688 102.62 107.711 103.362 106.918 103.089L105.481 102.594C104.688 102.32 104.376 101.133 104.787 99.9414L110.424 83.5938C110.835 82.4025 111.812 81.6599 112.606 81.9336L114.042 82.4288C114.835 82.7024 115.147 83.8895 114.736 85.0808L109.099 101.428Z" fill="#FFD983"/>
<path d="M118.433 105.852C118.023 107.043 116.725 107.675 115.534 107.265L87.4997 97.5978C86.9279 97.4006 86.4578 96.9843 86.1929 96.4405C85.9279 95.8968 85.8899 95.27 86.0871 94.6982C86.2843 94.1263 86.7005 93.6562 87.2443 93.3913C87.7881 93.1264 88.4149 93.0883 88.9867 93.2855L117.021 102.952C118.21 103.362 118.844 104.661 118.433 105.852Z" fill="#FFCC4D"/>
<path d="M119.846 108.752C119.435 109.943 118.138 110.575 116.946 110.164L84.5979 99.0099C84.026 98.8127 83.5559 98.3964 83.291 97.8527C83.0261 97.3089 82.988 96.6821 83.1852 96.1103C83.3824 95.5384 83.7987 95.0683 84.3425 94.8034C84.8863 94.5385 85.513 94.5004 86.0849 94.6976L118.431 105.851C119.623 106.262 120.257 107.561 119.846 108.752Z" fill="#FFD983"/>
<path d="M120.365 110.741C120.218 111.17 119.905 111.523 119.497 111.722C119.089 111.92 118.619 111.949 118.19 111.801L82.6104 99.5323C82.398 99.4591 82.2021 99.3447 82.0338 99.1957C81.8656 99.0467 81.7284 98.8661 81.63 98.6641C81.5316 98.4621 81.4739 98.2427 81.4603 98.0184C81.4467 97.7941 81.4773 97.5693 81.5506 97.3569C81.6238 97.1445 81.7382 96.9485 81.8872 96.7803C82.0362 96.6121 82.2168 96.4748 82.4188 96.3764C82.6208 96.278 82.8402 96.2203 83.0645 96.2067C83.2888 96.1931 83.5136 96.2238 83.726 96.2971L119.308 108.567C120.199 108.874 120.674 109.848 120.365 110.741Z" fill="#FFD983"/>
<path d="M124.814 87.3481C125.225 86.1568 124.527 84.8367 123.258 84.3992L95.3671 74.7816C94.0962 74.3434 92.8782 75.003 92.4674 76.1942C92.1882 77.0041 92.3638 77.8452 92.8994 78.443L92.4309 79.8016L96.7433 81.2886L97.1154 80.2095L101.428 81.6965L101.056 82.7756L105.368 84.2626L105.74 83.1835L110.052 84.6705L109.68 85.7496L113.993 87.2366L114.365 86.1575L118.677 87.6445L118.305 88.7236L122.619 90.2113L123.107 88.7976C123.886 88.6371 124.549 88.1151 124.814 87.3481Z" fill="#FFCC4D"/>
<path d="M91.9676 74.144C92.351 73.0323 93.5957 72.9639 93.5957 72.9639L112.268 70.9578L125.889 84.0995C125.889 84.0995 126.921 84.7338 126.467 86.0496L126.263 86.6432L91.7601 74.7458L91.9676 74.144Z" fill="#FFD983"/>
<path d="M111.414 73.7281C111.414 73.7281 98.4776 75.1356 97.2047 75.2262C95.9305 75.3141 96.0344 76.2172 96.777 76.4733L121.194 84.893C122.341 85.2883 122.371 84.3197 121.625 83.5327C120.877 82.7478 111.414 73.7281 111.414 73.7281Z" fill="#FFAC33"/>
<path d="M126.263 86.6405C126.164 86.9267 125.956 87.162 125.684 87.2946C125.412 87.4272 125.098 87.4462 124.812 87.3475L92.4654 76.1937C92.1965 76.082 91.9803 75.872 91.8609 75.6065C91.7415 75.341 91.7278 75.0399 91.8227 74.7646C91.9176 74.4894 92.114 74.2607 92.3717 74.1252C92.6294 73.9897 92.929 73.9576 93.2096 74.0355L125.554 85.1955C125.695 85.2437 125.826 85.3193 125.938 85.418C126.051 85.5168 126.142 85.6367 126.208 85.7709C126.274 85.9052 126.313 86.0511 126.322 86.2003C126.332 86.3495 126.311 86.4991 126.263 86.6405Z" fill="#FFD983"/>
</g>
<g clip-path="url(#clip3_0_1)">
<path d="M71.2489 94.2635C56.4219 102.824 37.4627 97.7438 28.9023 82.9168C20.342 68.0898 25.4221 49.1306 40.2491 40.5702C55.0761 32.0099 74.0353 37.09 82.5956 51.917C91.156 66.744 86.0759 85.7032 71.2489 94.2635Z" fill="#F4900C"/>
<path d="M69.4257 91.1053C54.5987 99.6657 35.6395 94.5856 27.0791 79.7586C18.5187 64.9316 23.5988 45.9724 38.4258 37.412C53.2528 28.8517 72.212 33.9318 80.7724 48.7588C89.3327 63.5857 84.2526 82.545 69.4257 91.1053Z" fill="#FFCC4D"/>
<path d="M67.6019 87.9465C55.3914 94.9962 39.778 90.8126 32.7283 78.6021C25.6786 66.3917 29.8622 50.7782 42.0726 43.7285C54.2831 36.6788 69.8966 40.8624 76.9463 53.0729C83.996 65.2833 79.8124 80.8968 67.6019 87.9465Z" fill="#FFE8B6"/>
<path d="M66.6903 86.3674C54.4798 93.4171 38.8664 89.2335 31.8166 77.023C24.7669 64.8126 28.9505 49.1991 41.161 42.1494C53.3715 35.0997 68.9849 39.2833 76.0347 51.4938C83.0844 63.7042 78.9008 79.3177 66.6903 86.3674Z" fill="#FFAC33"/>
<path d="M61.679 46.8449C61.1821 45.9842 60.1385 46.1278 60.1385 46.1278L44.3239 47.4675L35.138 60.5618C35.138 60.5618 34.3838 61.2541 34.9719 62.2727L35.5563 63.285L62.2671 47.8635L61.679 46.8449Z" fill="#FFE8B6"/>
<path d="M37.6074 64.9119C37.075 63.9897 37.4412 62.7823 38.4235 62.2151L60.0161 49.7486C60.9999 49.1806 62.1166 49.5319 62.649 50.4541C63.011 51.0811 63.0007 51.8072 62.6525 52.3893L63.2597 53.4411L59.9212 55.3686L59.4389 54.5332L56.1004 56.4606L56.5828 57.296L53.2443 59.2235L52.762 58.3881L49.4235 60.3155L49.9058 61.1509L46.5674 63.0784L46.0851 62.243L42.7466 64.1705L43.2289 65.0059L39.8889 66.9342L39.257 65.8398C38.585 65.832 37.9502 65.5057 37.6074 64.9119ZM45.2833 83.9874C45.475 84.3196 45.7909 84.5619 46.1613 84.6612C46.5318 84.7604 46.9265 84.7085 47.2586 84.5167L74.8033 68.6138C75.1354 68.422 75.3778 68.1062 75.477 67.7357C75.5763 67.3653 75.5243 66.9706 75.3326 66.6384C75.1408 66.3063 74.825 66.064 74.4545 65.9647C74.0841 65.8654 73.6894 65.9174 73.3572 66.1092L45.811 82.013C45.1209 82.4114 44.8839 83.2957 45.2833 83.9874Z" fill="#F4900C"/>
<path d="M36.1937 64.3892C36.3217 64.6108 36.5324 64.7725 36.7795 64.8387C37.0266 64.9049 37.2899 64.8702 37.5115 64.7423L62.5531 50.2845C62.7582 50.1487 62.9038 49.9397 62.9601 49.7001C63.0165 49.4606 62.9794 49.2086 62.8563 48.9956C62.7333 48.7825 62.5337 48.6243 62.2981 48.5534C62.0625 48.4824 61.8087 48.504 61.5884 48.6137L36.5496 63.0762C36.4399 63.139 36.3437 63.2228 36.2664 63.3228C36.1892 63.4227 36.1324 63.537 36.0994 63.6589C36.0663 63.7809 36.0576 63.9082 36.0738 64.0335C36.09 64.1588 36.1308 64.2797 36.1937 64.3892ZM59.2905 52.3471L40.9258 62.95L42.0072 64.8229L60.3719 54.2201L59.2905 52.3471Z" fill="#F4900C"/>
<path d="M65.7645 65.4858C66.297 66.4081 67.2273 66.867 67.8416 66.5123L68.9549 65.8695C69.5693 65.5148 69.637 64.4797 69.1046 63.5575L61.7977 50.9017C61.2652 49.9794 60.335 49.5205 59.7206 49.8752L58.6073 50.518C57.993 50.8727 57.9252 51.9078 58.4577 52.83L65.7645 65.4858ZM45.7306 77.0524C46.2631 77.9747 47.1918 78.4345 47.8077 78.0789L48.921 77.4361C49.5353 77.0814 49.6031 76.0463 49.0706 75.1241L41.7638 62.4682C41.2313 61.546 40.3026 61.0862 39.6867 61.4418L38.5734 62.0846C37.9591 62.4393 37.8913 63.4743 38.4238 64.3966L45.7306 77.0524ZM59.086 69.3417C59.6185 70.2639 60.5488 70.7228 61.1631 70.3681L62.2764 69.7253C62.8908 69.3707 62.9585 68.3356 62.4261 67.4133L55.1192 54.7575C54.5867 53.8352 53.6565 53.3764 53.0421 53.731L51.9288 54.3738C51.3145 54.7285 51.2467 55.7636 51.7792 56.6859L59.086 69.3417ZM52.4091 73.1966C52.9416 74.1189 53.8719 74.5777 54.4862 74.223L55.5979 73.5812C56.2123 73.2265 56.28 72.1914 55.7476 71.2691L48.4407 58.6133C47.9083 57.6911 46.978 57.2322 46.3636 57.5869L45.2519 58.2288C44.6376 58.5834 44.5698 59.6185 45.1023 60.5408L52.4091 73.1966Z" fill="#FFD983"/>
<path d="M45.3767 78.3682C45.9092 79.2905 47.0874 79.6062 48.0097 79.0737L69.7128 66.5434C70.1555 66.2878 70.4786 65.8668 70.6109 65.373C70.7432 64.8793 70.6739 64.3531 70.4183 63.9104C70.1627 63.4677 69.7417 63.1447 69.248 63.0124C68.7542 62.8801 68.2281 62.9493 67.7854 63.2049L46.0822 75.7353C45.1615 76.2668 44.8442 77.446 45.3767 78.3682Z" fill="#FFCC4D"/>
<path d="M44.671 81.0017C45.2034 81.9239 46.3817 82.2396 47.3039 81.7072L72.3471 67.2485C72.7898 66.9929 73.1128 66.5719 73.2451 66.0781C73.3775 65.5843 73.3082 65.0582 73.0526 64.6155C72.797 64.1728 72.376 63.8498 71.8822 63.7175C71.3885 63.5852 70.8623 63.6544 70.4196 63.91L45.378 78.3678C44.4558 78.9003 44.1385 80.0794 44.671 81.0017Z" fill="#FFD983"/>
<path d="M44.5604 82.7351C44.7522 83.0672 45.068 83.3096 45.4385 83.4088C45.8089 83.5081 46.2037 83.4561 46.5358 83.2644L74.0805 67.3614C74.2449 67.2665 74.3891 67.1401 74.5047 66.9894C74.6203 66.8388 74.7051 66.6668 74.7542 66.4834C74.8034 66.3 74.8159 66.1087 74.7911 65.9204C74.7663 65.7321 74.7047 65.5506 74.6097 65.3861C74.5148 65.2217 74.3884 65.0775 74.2377 64.9619C74.0871 64.8463 73.9151 64.7615 73.7317 64.7124C73.5483 64.6632 73.357 64.6507 73.1687 64.6755C72.9804 64.7002 72.7989 64.7619 72.6344 64.8568L45.0882 80.7606C44.398 81.1591 44.1611 82.0434 44.5604 82.7351Z" fill="#FFD983"/>
<path d="M37.1062 64.043C36.5737 63.1208 36.94 61.9134 37.9223 61.3462L59.5149 48.8797C60.4987 48.3117 61.6153 48.663 62.1478 49.5852C62.5098 50.2122 62.4994 50.9383 62.1512 51.5204L62.7585 52.5722L59.42 54.4997L58.9377 53.6643L55.5992 55.5917L56.0815 56.4271L52.7431 58.3546L52.2608 57.5192L48.9223 59.4466L49.4046 60.282L46.0662 62.2095L45.5838 61.3741L42.2454 63.3016L42.7277 64.137L39.3877 66.0653L38.7558 64.9709C38.0838 64.9631 37.449 64.6368 37.1062 64.043Z" fill="#FFCC4D"/>
<path d="M62.2328 47.8039C61.7358 46.9432 60.6922 47.0867 60.6922 47.0867L44.8776 48.4265L35.6917 61.5208C35.6917 61.5208 34.9375 62.2131 35.5256 63.2317L35.7909 63.6913L62.5017 48.2698L62.2328 47.8039Z" fill="#FFD983"/>
<path d="M46.0327 50.5868C46.0327 50.5868 56.9915 49.6733 58.0621 49.5437C59.1334 49.4116 59.1924 50.1776 58.6176 50.5095L39.7144 61.4233C38.8269 61.9357 38.6458 61.1369 39.1386 60.3639C39.6323 59.5925 46.0327 50.5868 46.0327 50.5868Z" fill="#FFAC33"/>
<path d="M35.7899 63.689C35.9179 63.9106 36.1286 64.0723 36.3757 64.1385C36.6228 64.2047 36.8861 64.17 37.1077 64.0421L62.1493 49.5843C62.3544 49.4485 62.5 49.2395 62.5563 48.9999C62.6127 48.7604 62.5756 48.5085 62.4525 48.2954C62.3295 48.0823 62.1298 47.9241 61.8942 47.8532C61.6586 47.7822 61.4049 47.8038 61.1846 47.9135L36.1458 62.376C36.0361 62.4388 35.9399 62.5226 35.8626 62.6226C35.7854 62.7225 35.7286 62.8368 35.6955 62.9587C35.6625 63.0807 35.6538 63.208 35.67 63.3333C35.6862 63.4586 35.727 63.5795 35.7899 63.689Z" fill="#FFD983"/>
</g>
<defs>
<clipPath id="clip0_0_1">
<rect width="51" height="51" fill="white" transform="translate(0 82)"/>
</clipPath>
<clipPath id="clip1_0_1">
<rect width="89" height="89" fill="white" transform="translate(93 3)"/>
</clipPath>
<clipPath id="clip2_0_1">
<rect width="77.6791" height="77.6791" fill="white" transform="translate(80.564 44.0479) rotate(19.0255)"/>
</clipPath>
<clipPath id="clip3_0_1">
<rect width="65.6467" height="65.6467" fill="white" transform="matrix(-0.866025 0.5 0.5 0.866025 66.8516 21)"/>
</clipPath>
</defs>
</svg>
