<svg width="31" height="31" viewBox="0 0 31 31" fill="none" xmlns="http://www.w3.org/2000/svg">
<g clip-path="url(#clip0_85_2566)">
<path d="M5.96191 23.2022V26.8269C5.96191 27.1607 6.22422 27.423 6.55807 27.423H10.1827C10.3377 27.423 10.4927 27.3634 10.6 27.2442L23.62 14.2361L19.1488 9.76494L6.14076 22.773C6.02153 22.8922 5.96191 23.0353 5.96191 23.2022ZM27.0777 10.7784C27.5427 10.3134 27.5427 9.56225 27.0777 9.09725L24.2877 6.30725C23.8227 5.84225 23.0715 5.84225 22.6065 6.30725L20.4246 8.48917L24.8958 12.9603L27.0777 10.7784Z" fill="#767676"/>
</g>
<path d="M10.3333 6.13459H6.35897V9.96871C6.35897 10.3905 6.00128 10.7355 5.5641 10.7355C5.12692 10.7355 4.76923 10.3905 4.76923 9.96871V6.13459H0.794872C0.357692 6.13459 0 5.78952 0 5.36777C0 4.94602 0.357692 4.60094 0.794872 4.60094H4.76923V0.766824C4.76923 0.345071 5.12692 0 5.5641 0C6.00128 0 6.35897 0.345071 6.35897 0.766824V4.60094H10.3333C10.7705 4.60094 11.1282 4.94602 11.1282 5.36777C11.1282 5.78952 10.7705 6.13459 10.3333 6.13459Z" fill="#767676"/>
<defs>
<clipPath id="clip0_85_2566">
<rect width="28.6154" height="28.6154" fill="white" transform="translate(2.38477 2.38477)"/>
</clipPath>
</defs>
</svg>
