<svg width="23" height="22" viewBox="0 0 23 22" fill="none" xmlns="http://www.w3.org/2000/svg">
<path d="M11.705 4.9583L13.0783 9.28315V9.92611H13.8283H18.0929C18.1668 9.92611 18.208 9.94685 18.2318 9.96447C18.2594 9.9849 18.2809 10.0145 18.2923 10.0486C18.3037 10.0826 18.3023 10.112 18.2958 10.1328C18.291 10.1483 18.2776 10.1798 18.2237 10.2173C18.2234 10.2175 18.223 10.2178 18.2227 10.218L14.7373 12.5993L14.2738 12.916L14.4469 13.45L15.8173 17.6758L15.8177 17.6769C15.8327 17.7229 15.8264 17.7461 15.8206 17.7607C15.8122 17.7822 15.7906 17.8142 15.7482 17.8425C15.7059 17.8707 15.6574 17.8852 15.6132 17.8856C15.5743 17.8859 15.5299 17.8759 15.4791 17.8387L15.4774 17.8374L11.9411 15.2615L11.5003 14.9405L11.059 15.2608L7.52272 17.8275L7.52272 17.8275L7.51991 17.8295C7.46913 17.8667 7.42473 17.8767 7.38585 17.8764C7.34168 17.876 7.29313 17.8615 7.25086 17.8333C7.20844 17.805 7.18688 17.773 7.1784 17.7515C7.17263 17.7369 7.16633 17.7138 7.18134 17.6677L7.1817 17.6666L8.55211 13.4408L8.72527 12.9068L8.26179 12.5902L4.77346 10.2068L4.77346 10.2068L4.77126 10.2053C4.7195 10.1703 4.70748 10.1411 4.70309 10.127C4.69693 10.1073 4.69511 10.0776 4.70697 10.0421C4.71883 10.0067 4.74106 9.97611 4.76902 9.95526C4.79302 9.93736 4.83371 9.91694 4.90619 9.91694H9.17077H9.7184L9.88516 9.39532L11.3035 4.95865L11.3035 4.95866L11.3059 4.95113C11.3208 4.90253 11.3431 4.87934 11.3667 4.86351C11.3962 4.84377 11.4428 4.82715 11.5007 4.82715C11.5586 4.82715 11.6069 4.84378 11.6387 4.86492C11.6648 4.88231 11.6888 4.90773 11.7049 4.95801C11.705 4.9581 11.705 4.9582 11.705 4.9583Z" fill="#FFDF77" stroke="#FFDF77" stroke-width="1.5"/>
</svg>
