<svg width="33" height="33" viewBox="0 0 33 33" fill="none" xmlns="http://www.w3.org/2000/svg">
<g clip-path="url(#clip0_127_6791)">
<path d="M27.1956 15.9376L27.1964 15.9372C27.9138 15.6607 27.94 14.6293 27.2101 14.321C27.2099 14.3209 27.2097 14.3208 27.2095 14.3207L7.02728 5.87939C7.02707 5.8793 7.02685 5.87921 7.02664 5.87913C6.32052 5.58695 5.57606 6.3034 5.86687 7.04389L14.3207 27.2095C14.3208 27.2096 14.3208 27.2097 14.3209 27.2098C14.6279 27.9372 15.6716 27.9162 15.9503 27.1845L15.9512 27.1823L18.7834 19.8543C18.7834 19.8541 18.7835 19.854 18.7835 19.8538C18.9718 19.3648 19.3645 18.972 19.8535 18.7836C19.8538 18.7835 19.854 18.7834 19.8543 18.7833L27.1956 15.9376Z" stroke="#767676"/>
<path d="M6.1875 6.1875L19.25 19.25" stroke="#767676"/>
</g>
<defs>
<clipPath id="clip0_127_6791">
<rect width="33" height="33" fill="white" transform="matrix(-1 0 0 1 33 0)"/>
</clipPath>
</defs>
</svg>
