<svg width="316" height="125" viewBox="0 0 316 125" fill="none" xmlns="http://www.w3.org/2000/svg">
<mask id="mask0_126_2755" style="mask-type:alpha" maskUnits="userSpaceOnUse" x="0" y="0" width="316" height="125">
<rect y="0.108398" width="316" height="124.784" rx="10" fill="#FFBA35"/>
</mask>
<g mask="url(#mask0_126_2755)">
<g opacity="0.5">
<g clip-path="url(#clip0_126_2755)">
<path d="M256.313 117.273C282.775 126.398 311.625 112.343 320.75 85.8809C329.875 59.4184 315.82 30.569 289.357 21.4441C262.895 12.3191 234.045 26.374 224.92 52.8365C215.795 79.2991 229.85 108.148 256.313 117.273Z" fill="#FFBA35"/>
<path d="M258.257 111.636C284.719 120.761 313.568 106.706 322.693 80.2432C331.818 53.7807 317.763 24.9313 291.301 15.8064C264.838 6.68142 235.989 20.7363 226.864 47.1988C217.739 73.6614 231.794 102.511 258.257 111.636Z" fill="#FFCC4D"/>
<path d="M260.2 105.998C281.993 113.513 305.751 101.938 313.266 80.1458C320.781 58.3531 309.206 34.5948 287.413 27.0801C265.621 19.5655 241.862 31.1401 234.348 52.9328C226.833 74.7254 238.408 98.4838 260.2 105.998Z" fill="#FFCC4D"/>
<path d="M261.172 103.18C282.965 110.695 306.723 99.1201 314.238 77.3274C321.753 55.5348 310.178 31.7765 288.385 24.2618C266.593 16.7471 242.834 28.3217 235.32 50.1144C227.805 71.9071 239.38 95.6654 261.172 103.18Z" fill="#FFAC33"/>
<path d="M256.914 38.1855C257.444 36.6494 259.163 36.5549 259.163 36.5549L284.964 33.783L303.783 51.941C303.783 51.941 305.209 52.8174 304.582 54.6353L303.959 56.442L256.287 40.0034L256.914 38.1855Z" fill="#FFCC4D"/>
<path d="M301.174 59.6907C301.741 58.0447 300.778 56.2207 299.024 55.6162L260.487 42.3275C258.731 41.722 257.048 42.6334 256.481 44.2794C256.095 45.3983 256.337 46.5605 257.077 47.3865L256.43 49.2637L262.388 51.3183L262.903 49.8273L268.861 51.8818L268.347 53.3728L274.305 55.4274L274.819 53.9364L280.778 55.991L280.263 57.482L286.222 59.5366L286.736 58.0456L292.694 60.1002L292.18 61.5912L298.141 63.6467L298.815 61.6935C299.891 61.4717 300.808 60.7505 301.174 59.6907ZM294.791 92.697C294.586 93.2898 294.155 93.7771 293.591 94.0517C293.027 94.3263 292.378 94.3658 291.785 94.1614L242.625 77.2096C242.032 77.0052 241.544 76.5737 241.27 76.01C240.995 75.4463 240.956 74.7966 241.16 74.2038C241.365 73.611 241.796 73.1237 242.36 72.8491C242.923 72.5745 243.573 72.535 244.166 72.7394L293.329 89.6922C294.561 90.1169 295.216 91.4625 294.791 92.697Z" fill="#FFBA35"/>
<path d="M303.28 58.4116C303.144 58.8071 302.856 59.1322 302.48 59.3153C302.104 59.4985 301.67 59.5249 301.275 59.3885L256.582 43.9772C256.21 43.8229 255.911 43.5328 255.746 43.1659C255.581 42.799 255.563 42.383 255.694 42.0027C255.825 41.6224 256.096 41.3064 256.452 41.1192C256.808 40.932 257.222 40.8877 257.61 40.9952L302.3 56.415C302.496 56.4816 302.676 56.5861 302.831 56.7225C302.986 56.859 303.113 57.0247 303.204 57.2101C303.295 57.3956 303.349 57.5972 303.362 57.8033C303.375 58.0095 303.347 58.2162 303.28 58.4116ZM262.46 46.2723L295.237 57.5745L294.084 60.9172L261.308 49.6151L262.46 46.2723Z" fill="#FFBA35"/>
<path d="M256.159 69.3762C255.591 71.0222 254.241 72.0482 253.144 71.6701L251.157 70.985C250.061 70.6069 249.63 68.9666 250.198 67.3206L257.986 44.7331C258.554 43.0871 259.904 42.061 261.001 42.4391L262.988 43.1243C264.084 43.5023 264.515 45.1426 263.947 46.7886L256.159 69.3762ZM291.914 81.7056C291.347 83.3516 289.999 84.3786 288.9 83.9996L286.913 83.3144C285.817 82.9363 285.386 81.2961 285.953 79.6501L293.742 57.0625C294.309 55.4165 295.657 54.3895 296.756 54.7685L298.743 55.4537C299.84 55.8318 300.271 57.4721 299.703 59.1181L291.914 81.7056ZM268.078 73.4863C267.511 75.1323 266.16 76.1584 265.064 75.7803L263.077 75.0951C261.98 74.717 261.549 73.0768 262.117 71.4307L269.906 48.8432C270.473 47.1972 271.824 46.1712 272.92 46.5492L274.907 47.2344C276.004 47.6125 276.435 49.2528 275.867 50.8988L268.078 73.4863ZM279.995 77.5955C279.427 79.2415 278.077 80.2675 276.98 79.8895L274.996 79.2052C273.9 78.8272 273.469 77.1869 274.036 75.5409L281.825 52.9533C282.393 51.3073 283.743 50.2813 284.84 50.6594L286.824 51.3436C287.92 51.7217 288.351 53.3619 287.784 55.0079L279.995 77.5955Z" fill="#FFD983"/>
<path d="M292.892 83.7079C292.325 85.3539 290.532 86.2273 288.886 85.6597L250.151 72.303C249.361 72.0305 248.711 71.4554 248.345 70.704C247.979 69.9527 247.927 69.0867 248.199 68.2965C248.471 67.5064 249.047 66.8569 249.798 66.4909C250.549 66.1248 251.415 66.0722 252.205 66.3447L290.94 79.7014C292.583 80.268 293.46 82.0619 292.892 83.7079Z" fill="#FFCC4D"/>
<path d="M294.844 87.7146C294.276 89.3606 292.484 90.2341 290.838 89.6665L246.142 74.2542C245.351 73.9817 244.702 73.4065 244.336 72.6552C243.97 71.9038 243.917 71.0378 244.19 70.2477C244.462 69.4576 245.037 68.8081 245.789 68.442C246.54 68.076 247.406 68.0234 248.196 68.2958L292.889 83.7072C294.535 84.2748 295.412 86.0686 294.844 87.7146Z" fill="#FFD983"/>
<path d="M295.561 90.4627C295.357 91.0554 294.926 91.5427 294.362 91.8174C293.798 92.092 293.148 92.1314 292.556 91.927L243.395 74.9753C243.102 74.874 242.831 74.716 242.599 74.5102C242.366 74.3043 242.176 74.0548 242.041 73.7756C241.905 73.4965 241.825 73.1934 241.806 72.8835C241.787 72.5735 241.83 72.263 241.931 71.9695C242.032 71.6759 242.19 71.4052 242.396 71.1728C242.602 70.9404 242.851 70.7507 243.13 70.6148C243.41 70.4788 243.713 70.3991 244.023 70.3803C244.333 70.3615 244.643 70.4039 244.937 70.5051L294.1 87.4578C295.332 87.8826 295.987 89.2282 295.561 90.4627Z" fill="#FFD983"/>
<path d="M301.708 58.1405C302.276 56.4945 301.312 54.6705 299.559 54.066L261.022 40.7773C259.266 40.1718 257.583 41.0832 257.015 42.7292C256.629 43.8481 256.872 45.0103 257.612 45.8363L256.965 47.7135L262.923 49.768L263.437 48.277L269.395 50.3316L268.881 51.8226L274.84 53.8772L275.354 52.3862L281.312 54.4408L280.798 55.9318L286.756 57.9864L287.27 56.4954L293.229 58.55L292.715 60.041L298.676 62.0965L299.349 60.1433C300.425 59.9215 301.343 59.2003 301.708 58.1405Z" fill="#FFCC4D"/>
<path d="M256.324 39.8954C256.854 38.3593 258.573 38.2649 258.573 38.2649L284.374 35.493L303.193 53.6509C303.193 53.6509 304.619 54.5274 303.992 56.3453L303.71 57.1655L256.037 40.7269L256.324 39.8954Z" fill="#FFD983"/>
<path d="M283.192 39.3217C283.192 39.3217 265.319 41.2664 263.56 41.3916C261.799 41.513 261.943 42.7609 262.969 43.1147L296.706 54.7483C298.29 55.2945 298.333 53.9561 297.301 52.8687C296.268 51.7842 283.192 39.3217 283.192 39.3217Z" fill="#FFAC33"/>
<path d="M303.71 57.1636C303.574 57.559 303.286 57.8841 302.91 58.0673C302.534 58.2505 302.101 58.2768 301.705 58.1405L257.012 42.7291C256.641 42.5749 256.342 42.2847 256.177 41.9179C256.012 41.551 255.993 41.135 256.124 40.7547C256.255 40.3744 256.527 40.0584 256.883 39.8712C257.239 39.684 257.653 39.6396 258.041 39.7471L302.731 55.1669C302.926 55.2335 303.107 55.338 303.262 55.4745C303.417 55.6109 303.544 55.7766 303.635 55.9621C303.726 56.1475 303.779 56.3491 303.792 56.5553C303.805 56.7615 303.777 56.9682 303.71 57.1636Z" fill="#FFD983"/>
</g>
</g>
<g opacity="0.5">
<g clip-path="url(#clip1_126_2755)">
<path d="M97.0067 57.6235C88.212 54.8193 83.3558 45.4165 86.16 36.6218C88.9642 27.8271 98.3669 22.9709 107.162 25.7751C115.956 28.5793 120.813 37.982 118.008 46.7767C115.204 55.5714 105.801 60.4277 97.0067 57.6235Z" fill="#FFBA35"/>
<path d="M97.604 55.7495C88.8094 52.9452 83.9531 43.5425 86.7573 34.7478C89.5615 25.9531 98.9643 21.0969 107.759 23.9011C116.554 26.7053 121.41 36.108 118.606 44.9027C115.802 53.6974 106.399 58.5537 97.604 55.7495Z" fill="#FFCC4D"/>
<path d="M98.2014 53.8758C90.9587 51.5664 86.9594 43.823 89.2688 36.5803C91.5781 29.3376 99.3216 25.3383 106.564 27.6477C113.807 29.957 117.806 37.7005 115.497 44.9431C113.187 52.1858 105.444 56.1851 98.2014 53.8758Z" fill="#FFCC4D"/>
<path d="M98.5001 52.9392C91.2574 50.6299 87.2581 42.8864 89.5675 35.6437C91.8768 28.4011 99.6203 24.4018 106.863 26.7111C114.106 29.0205 118.105 36.7639 115.796 44.0066C113.486 51.2493 105.743 55.2486 98.5001 52.9392Z" fill="#FFAC33"/>
<path d="M112.438 36.5966C112.601 36.0861 112.165 35.7221 112.165 35.7221L105.891 29.9033L97.3359 30.9938C97.3359 30.9938 96.7862 30.9444 96.5935 31.5486L96.4021 32.149L112.246 37.2008L112.438 36.5966Z" fill="#FFCC4D"/>
<path d="M96.498 33.5567C96.6724 33.0097 97.2867 32.7174 97.8693 32.9032L110.677 36.987C111.261 37.173 111.526 37.7457 111.351 38.2928C111.233 38.6647 110.94 38.9241 110.581 38.9966L110.382 39.6204L108.402 38.989L108.56 38.4935L106.58 37.8621L106.422 38.3576L104.442 37.7262L104.6 37.2307L102.619 36.5993L102.461 37.0948L100.481 36.4634L100.639 35.9679L98.659 35.3365L98.501 35.832L96.5198 35.2003L96.7268 34.5512C96.486 34.2804 96.3857 33.9089 96.498 33.5567ZM91.6789 43.5408C91.6161 43.7378 91.6341 43.9517 91.729 44.1354C91.8238 44.3192 91.9878 44.4577 92.1848 44.5205L108.523 49.73C108.72 49.7928 108.934 49.7748 109.118 49.6799C109.301 49.585 109.44 49.421 109.503 49.224C109.566 49.027 109.548 48.8131 109.453 48.6294C109.358 48.4456 109.194 48.3071 108.997 48.2443L92.6576 43.0346C92.2483 42.904 91.8097 43.1305 91.6789 43.5408Z" fill="#FFBA35"/>
<path d="M96.1933 32.8035C96.1514 32.9349 96.1634 33.0776 96.2267 33.2001C96.29 33.3227 96.3994 33.4151 96.5308 33.457L111.384 38.1931C111.513 38.2255 111.649 38.2077 111.765 38.1432C111.881 38.0788 111.968 37.9725 112.008 37.8461C112.049 37.7197 112.039 37.5827 111.982 37.463C111.925 37.3433 111.824 37.25 111.7 37.202L96.8459 32.4687C96.7811 32.4478 96.7128 32.4398 96.6449 32.4453C96.577 32.4508 96.5108 32.4697 96.4502 32.5008C96.3896 32.5318 96.3357 32.5746 96.2916 32.6265C96.2475 32.6785 96.2141 32.7386 96.1933 32.8035ZM109.378 37.641L98.4847 34.1677L98.1305 35.2786L109.024 38.7519L109.378 37.641Z" fill="#FFBA35"/>
<path d="M106.489 44.9912C106.315 45.5383 106.47 46.0757 106.834 46.1919L107.494 46.4025C107.859 46.5187 108.296 46.17 108.471 45.6229L110.864 38.1161C111.039 37.569 110.884 37.0316 110.519 36.9154L109.859 36.7048C109.495 36.5887 109.057 36.9373 108.883 37.4844L106.489 44.9912ZM94.6062 41.2023C94.4318 41.7493 94.5855 42.2865 94.9509 42.4029L95.6113 42.6135C95.9756 42.7297 96.4129 42.381 96.5873 41.834L98.9809 34.3271C99.1553 33.7801 99.0015 33.2429 98.6362 33.1264L97.9758 32.9159C97.6115 32.7997 97.1742 33.1484 96.9998 33.6954L94.6062 41.2023ZM102.528 43.7282C102.354 44.2752 102.508 44.8126 102.873 44.9288L103.533 45.1394C103.897 45.2556 104.335 44.9069 104.509 44.3598L106.903 36.853C107.077 36.306 106.922 35.7685 106.558 35.6523L105.898 35.4418C105.533 35.3256 105.096 35.6743 104.922 36.2213L102.528 43.7282ZM98.5676 42.4654C98.3931 43.0124 98.5479 43.5498 98.9122 43.666L99.5717 43.8763C99.9361 43.9925 100.373 43.6438 100.548 43.0968L102.941 35.5899C103.116 35.0429 102.961 34.5054 102.597 34.3892L101.937 34.179C101.573 34.0628 101.136 34.4115 100.961 34.9585L98.5676 42.4654Z" fill="#FFD983"/>
<path d="M93.953 41.5382C93.7785 42.0853 94.0803 42.6696 94.6274 42.844L107.501 46.9487C107.763 47.0324 108.048 47.0084 108.293 46.8819C108.538 46.7555 108.723 46.5369 108.806 46.2743C108.89 46.0117 108.866 45.7266 108.74 45.4817C108.613 45.2368 108.395 45.0522 108.132 44.9685L95.2588 40.8638C94.7127 40.6897 94.1274 40.9912 93.953 41.5382Z" fill="#FFCC4D"/>
<path d="M92.6472 42.2132C92.4727 42.7602 92.7745 43.3445 93.3216 43.519L108.176 48.2553C108.439 48.3391 108.724 48.3151 108.969 48.1886C109.214 48.0621 109.398 47.8435 109.482 47.5809C109.566 47.3183 109.542 47.0332 109.415 46.7884C109.289 46.5435 109.07 46.3589 108.807 46.2751L93.9539 41.539C93.4069 41.3646 92.8216 41.6661 92.6472 42.2132Z" fill="#FFD983"/>
<path d="M91.9157 42.7979C91.8529 42.9949 91.8709 43.2088 91.9658 43.3925C92.0606 43.5763 92.2246 43.7148 92.4216 43.7776L108.76 48.9871C108.857 49.0182 108.96 49.0298 109.062 49.0212C109.164 49.0126 109.264 48.984 109.354 48.937C109.445 48.89 109.526 48.8256 109.592 48.7473C109.658 48.6691 109.708 48.5786 109.74 48.4811C109.771 48.3836 109.782 48.2808 109.774 48.1788C109.765 48.0768 109.736 47.9774 109.689 47.8865C109.642 47.7955 109.578 47.7147 109.5 47.6486C109.422 47.5825 109.331 47.5325 109.234 47.5014L92.8944 42.2917C92.4851 42.1611 92.0465 42.3876 91.9157 42.7979Z" fill="#FFD983"/>
<path d="M96.6622 33.0411C96.8366 32.4941 97.4509 32.2019 98.0336 32.3876L110.841 36.4714C111.425 36.6575 111.69 37.2302 111.516 37.7772C111.397 38.1491 111.104 38.4085 110.745 38.481L110.547 39.1049L108.566 38.4735L108.724 37.9779L106.744 37.3465L106.586 37.8421L104.606 37.2107L104.764 36.7151L102.784 36.0837L102.626 36.5793L100.645 35.9479L100.803 35.4523L98.8232 34.8209L98.6652 35.3165L96.684 34.6848L96.891 34.0356C96.6502 33.7648 96.5499 33.3933 96.6622 33.0411Z" fill="#FFCC4D"/>
<path d="M112.257 37.1649C112.42 36.6544 111.984 36.2904 111.984 36.2904L105.709 30.4716L97.1547 31.5621C97.1547 31.5621 96.6049 31.5127 96.4123 32.1169L96.3254 32.3895L112.169 37.4413L112.257 37.1649Z" fill="#FFD983"/>
<path d="M105.267 31.7159C105.267 31.7159 109.609 35.7535 110.049 36.1333C110.491 36.5125 110.207 36.8141 109.866 36.7053L98.6534 33.1302C98.1269 32.9623 98.3796 32.6002 98.8667 32.5161C99.3535 32.4329 105.267 31.7159 105.267 31.7159Z" fill="#FFAC33"/>
<path d="M96.3256 32.3884C96.2837 32.5198 96.2957 32.6625 96.359 32.7851C96.4223 32.9076 96.5317 33 96.6631 33.0419L111.517 37.778C111.645 37.8105 111.781 37.7927 111.897 37.7282C112.013 37.6637 112.1 37.5575 112.141 37.4311C112.181 37.3047 112.172 37.1677 112.114 37.048C112.057 36.9283 111.956 36.835 111.833 36.787L96.9782 32.0537C96.9134 32.0328 96.8451 32.0248 96.7772 32.0303C96.7093 32.0358 96.6431 32.0546 96.5825 32.0857C96.5219 32.1168 96.468 32.1595 96.4239 32.2115C96.3798 32.2634 96.3464 32.3236 96.3256 32.3884Z" fill="#FFD983"/>
</g>
</g>
<g opacity="0.5">
<g clip-path="url(#clip2_126_2755)">
<path d="M195.605 149.009C181.677 152.179 167.816 143.458 164.647 129.529C161.477 115.601 170.198 101.74 184.127 98.5705C198.055 95.4007 211.916 104.122 215.085 118.05C218.255 131.979 209.534 145.839 195.605 149.009Z" fill="#FFBA35"/>
<path d="M194.93 146.042C181.002 149.212 167.141 140.491 163.971 126.562C160.802 112.634 169.523 98.7734 183.451 95.6037C197.38 92.4339 211.24 101.155 214.41 115.084C217.58 129.012 208.858 142.873 194.93 146.042Z" fill="#FFCC4D"/>
<path d="M194.255 143.075C182.785 145.685 171.37 138.503 168.759 127.033C166.149 115.562 173.331 104.148 184.802 101.537C196.272 98.9267 207.687 106.109 210.297 117.579C212.908 129.05 205.725 140.465 194.255 143.075Z" fill="#FFCC4D"/>
<path d="M193.917 141.592C182.447 144.202 171.032 137.02 168.422 125.549C165.811 114.079 172.994 102.664 184.464 100.054C195.935 97.4433 207.349 104.626 209.96 116.096C212.57 127.566 205.388 138.981 193.917 141.592Z" fill="#FFAC33"/>
<path d="M199.662 108.853C199.478 108.045 198.611 107.902 198.611 107.902L185.675 105.073L175.126 113.247C175.126 113.247 174.354 113.613 174.572 114.57L174.788 115.52L199.88 109.81L199.662 108.853Z" fill="#FFCC4D"/>
<path d="M176.022 117.322C175.825 116.456 176.415 115.584 177.337 115.374L197.621 110.758C198.545 110.547 199.349 111.102 199.546 111.969C199.68 112.558 199.493 113.134 199.072 113.512L199.297 114.5L196.161 115.214L195.982 114.429L192.846 115.143L193.025 115.928L189.888 116.641L189.71 115.857L186.574 116.57L186.752 117.355L183.616 118.069L183.438 117.284L180.302 117.998L180.48 118.782L177.343 119.496L177.109 118.468C176.575 118.297 176.149 117.88 176.022 117.322ZM177.44 134.419C177.511 134.731 177.703 135.002 177.974 135.173C178.245 135.343 178.572 135.399 178.884 135.328L204.759 129.439C205.071 129.368 205.342 129.176 205.513 128.905C205.683 128.634 205.739 128.307 205.668 127.995C205.597 127.683 205.405 127.412 205.134 127.242C204.863 127.071 204.536 127.015 204.224 127.086L178.347 132.975C177.699 133.123 177.292 133.769 177.44 134.419Z" fill="#FFBA35"/>
<path d="M175.024 116.557C175.072 116.765 175.2 116.946 175.38 117.06C175.561 117.173 175.78 117.211 175.988 117.163L199.511 111.81C199.708 111.752 199.876 111.621 199.98 111.444C200.084 111.267 200.116 111.057 200.071 110.857C200.025 110.657 199.905 110.482 199.735 110.367C199.564 110.252 199.357 110.207 199.154 110.24L175.632 115.598C175.529 115.621 175.431 115.664 175.345 115.725C175.259 115.786 175.185 115.863 175.129 115.952C175.073 116.041 175.034 116.14 175.016 116.244C174.998 116.348 175.001 116.454 175.024 116.557ZM196.403 112.65L179.151 116.576L179.551 118.335L196.803 114.409L196.403 112.65Z" fill="#FFBA35"/>
<path d="M198.325 124.719C198.522 125.585 199.151 126.18 199.728 126.049L200.774 125.811C201.351 125.679 201.66 124.871 201.463 124.005L198.757 112.116C198.56 111.25 197.932 110.655 197.354 110.786L196.309 111.024C195.732 111.155 195.422 111.964 195.62 112.83L198.325 124.719ZM179.506 129.002C179.703 129.868 180.33 130.463 180.908 130.332L181.954 130.094C182.531 129.962 182.84 129.154 182.643 128.288L179.938 116.399C179.74 115.532 179.113 114.937 178.535 115.069L177.489 115.307C176.912 115.438 176.603 116.247 176.8 117.113L179.506 129.002ZM192.052 126.146C192.249 127.013 192.877 127.608 193.454 127.476L194.5 127.238C195.077 127.107 195.386 126.299 195.189 125.432L192.484 113.544C192.286 112.677 191.658 112.082 191.081 112.214L190.035 112.452C189.458 112.583 189.149 113.391 189.346 114.258L192.052 126.146ZM185.779 127.574C185.977 128.44 186.605 129.035 187.182 128.904L188.226 128.666C188.804 128.535 189.113 127.726 188.915 126.86L186.21 114.971C186.013 114.105 185.384 113.51 184.807 113.641L183.763 113.879C183.186 114.01 182.877 114.819 183.074 115.685L185.779 127.574Z" fill="#FFD983"/>
<path d="M178.899 129.964C179.096 130.83 179.958 131.372 180.824 131.175L201.212 126.535C201.628 126.44 201.989 126.184 202.216 125.823C202.443 125.462 202.518 125.026 202.423 124.61C202.328 124.194 202.072 123.833 201.711 123.606C201.35 123.379 200.914 123.304 200.498 123.399L180.11 128.039C179.245 128.235 178.702 129.097 178.899 129.964Z" fill="#FFCC4D"/>
<path d="M177.688 131.889C177.885 132.755 178.746 133.297 179.613 133.1L203.138 127.746C203.554 127.651 203.915 127.395 204.142 127.034C204.369 126.673 204.444 126.237 204.349 125.821C204.255 125.405 203.999 125.044 203.638 124.817C203.277 124.59 202.84 124.515 202.424 124.61L178.901 129.963C178.034 130.16 177.491 131.022 177.688 131.889Z" fill="#FFD983"/>
<path d="M175.837 116.507C175.64 115.64 176.229 114.768 177.152 114.558L197.436 109.942C198.36 109.731 199.163 110.287 199.36 111.153C199.494 111.742 199.307 112.318 198.886 112.696L199.111 113.684L195.975 114.398L195.796 113.613L192.66 114.327L192.839 115.112L189.703 115.826L189.524 115.041L186.388 115.755L186.567 116.539L183.431 117.253L183.252 116.468L180.116 117.182L180.294 117.967L177.157 118.681L176.923 117.653C176.389 117.481 175.964 117.064 175.837 116.507Z" fill="#FFCC4D"/>
<path d="M199.867 109.754C199.683 108.945 198.816 108.802 198.816 108.802L185.88 105.973L175.331 114.147C175.331 114.147 174.559 114.513 174.777 115.47L174.875 115.902L199.967 110.191L199.867 109.754Z" fill="#FFD983"/>
<path d="M186.268 107.98C186.268 107.98 195.229 109.953 196.114 110.113C197 110.272 196.859 110.897 196.319 111.02L178.561 115.061C177.728 115.251 177.78 114.57 178.363 114.075C178.947 113.582 186.268 107.98 186.268 107.98Z" fill="#FFAC33"/>
<path d="M174.875 115.9C174.922 116.108 175.05 116.289 175.231 116.402C175.412 116.516 175.63 116.553 175.838 116.506L199.362 111.153C199.559 111.095 199.726 110.964 199.83 110.787C199.934 110.61 199.967 110.4 199.921 110.2C199.876 110 199.756 109.824 199.585 109.71C199.415 109.595 199.207 109.55 199.005 109.583L175.482 114.941C175.379 114.964 175.282 115.007 175.196 115.068C175.109 115.128 175.036 115.205 174.98 115.294C174.923 115.384 174.885 115.483 174.867 115.587C174.849 115.691 174.852 115.797 174.875 115.9Z" fill="#FFD983"/>
</g>
</g>
<g opacity="0.5">
<g clip-path="url(#clip3_126_2755)">
<path d="M76.8028 125.443C56.3096 137.479 29.9392 130.623 17.9028 110.13C5.86645 89.637 12.7221 63.2666 33.2153 51.2303C53.7085 39.1939 80.0789 46.0496 92.1153 66.5428C104.152 87.036 97.296 113.406 76.8028 125.443Z" fill="#FFBA35"/>
<path d="M74.2388 121.078C53.7456 133.114 27.3752 126.258 15.3388 105.765C3.30248 85.2718 10.1581 58.9014 30.6513 46.865C51.1445 34.8287 77.515 41.6843 89.5513 62.1775C101.588 82.6707 94.732 109.041 74.2388 121.078Z" fill="#FFCC4D"/>
<path d="M71.6748 116.711C54.7981 126.624 33.0813 120.978 23.169 104.101C13.2567 87.2244 18.9025 65.5075 35.7793 55.5952C52.656 45.683 74.3728 51.3288 84.2851 68.2055C94.1974 85.0823 88.5516 106.799 71.6748 116.711Z" fill="#FFCC4D"/>
<path d="M70.3929 114.529C53.5161 124.441 31.7993 118.795 21.887 101.918C11.9747 85.0417 17.6205 63.3249 34.4973 53.4126C51.374 43.5003 73.0909 49.1462 83.0031 66.0229C92.9154 82.8997 87.2696 104.617 70.3929 114.529Z" fill="#FFAC33"/>
<path d="M63.0278 59.719C62.3292 58.5294 60.8819 58.7395 60.8819 58.7395L38.9431 60.7629L26.3273 79.0346C26.3273 79.0346 25.2876 80.0034 26.1144 81.4112L26.9362 82.8104L63.8547 61.1269L63.0278 59.719Z" fill="#FFCC4D"/>
<path d="M29.8001 85.0467C29.0514 83.772 29.5473 82.0922 30.905 81.2948L60.7493 63.7662C62.1092 62.9675 63.6628 63.4436 64.4115 64.7183C64.9205 65.5848 64.9136 66.5928 64.4363 67.4046L65.2901 68.8583L60.6758 71.5684L59.9976 70.4137L55.3834 73.1238L56.0615 74.2785L51.4473 76.9886L50.7691 75.8339L46.1548 78.5441L46.833 79.6987L42.2187 82.4088L41.5406 81.2542L36.9263 83.9643L37.6045 85.119L32.988 87.8304L32.0996 86.3177C31.1667 86.3138 30.2821 85.8674 29.8001 85.0467ZM40.6526 111.447C40.9222 111.906 41.3631 112.239 41.8784 112.373C42.3937 112.507 42.941 112.43 43.4001 112.161L81.4711 89.8005C81.9302 89.5308 82.2633 89.0899 82.3973 88.5746C82.5312 88.0594 82.455 87.512 82.1854 87.0529C81.9158 86.5939 81.4748 86.2607 80.9596 86.1268C80.4443 85.9928 79.8969 86.069 79.4379 86.3387L41.3647 108.7C40.4108 109.261 40.0911 110.491 40.6526 111.447Z" fill="#FFBA35"/>
<path d="M27.8323 84.3361C28.0122 84.6423 28.3063 84.8646 28.65 84.9539C28.9938 85.0433 29.3589 84.9925 29.6651 84.8126L64.2765 64.4842C64.5599 64.2934 64.7598 64.0018 64.8355 63.6687C64.9113 63.3357 64.8571 62.9863 64.6842 62.6918C64.5112 62.3973 64.2324 62.1798 63.9046 62.0837C63.5768 61.9877 63.2248 62.0203 62.9202 62.1748L28.3126 82.5098C28.1611 82.5981 28.0284 82.7154 27.9222 82.855C27.816 82.9945 27.7383 83.1537 27.6937 83.3233C27.6491 83.493 27.6384 83.6697 27.6622 83.8435C27.6859 84.0173 27.7438 84.1847 27.8323 84.3361ZM59.769 67.3811L34.3862 82.2893L35.9066 84.878L61.2895 69.9698L59.769 67.3811Z" fill="#FFBA35"/>
<path d="M68.8916 85.5519C69.6403 86.8266 70.9364 87.4539 71.7855 86.9552L73.3243 86.0514C74.1734 85.5527 74.2568 84.1152 73.5081 82.8405L63.2343 65.3481C62.4856 64.0734 61.1895 63.4461 60.3404 63.9448L58.8016 64.8486C57.9525 65.3473 57.8691 66.7848 58.6178 68.0595L68.8916 85.5519ZM41.2017 101.815C41.9503 103.09 43.2443 103.718 44.0955 103.218L45.6343 102.315C46.4834 101.816 46.5668 100.378 45.8181 99.1037L35.5443 81.6114C34.7956 80.3367 33.5017 79.7081 32.6504 80.2081L31.1116 81.1119C30.2625 81.6106 30.1792 83.0481 30.9278 84.3228L41.2017 101.815ZM59.6609 90.9734C60.4096 92.2481 61.7057 92.8754 62.5548 92.3767L64.0936 91.4729C64.9427 90.9742 65.026 89.5367 64.2774 88.262L54.0035 70.7697C53.2549 69.495 51.9587 68.8676 51.1097 69.3663L49.5709 70.2701C48.7218 70.7688 48.6384 72.2064 49.3871 73.4811L59.6609 90.9734ZM50.4324 96.3936C51.1811 97.6683 52.4772 98.2956 53.3263 97.7969L54.8629 96.8944C55.712 96.3957 55.7953 94.9582 55.0466 93.6835L44.7728 76.1912C44.0241 74.9165 42.728 74.2892 41.8789 74.7878L40.3423 75.6904C39.4932 76.1891 39.4099 77.6266 40.1586 78.9013L50.4324 96.3936Z" fill="#FFD983"/>
<path d="M40.7239 103.646C41.4726 104.921 43.1114 105.347 44.3861 104.598L74.3832 86.9801C74.9951 86.6207 75.4392 86.0329 75.6177 85.3462C75.7963 84.6594 75.6947 83.9298 75.3353 83.3179C74.9759 82.706 74.3882 82.2619 73.7014 82.0834C73.0146 81.9048 72.285 82.0064 71.6731 82.3658L41.676 99.9841C40.4034 100.732 39.9752 102.372 40.7239 103.646Z" fill="#FFCC4D"/>
<path d="M39.7718 107.308C40.5205 108.583 42.1593 109.009 43.434 108.26L78.0476 87.9303C78.6595 87.5709 79.1035 86.9831 79.2821 86.2963C79.4606 85.6096 79.359 84.88 78.9996 84.2681C78.6403 83.6562 78.0525 83.2121 77.3657 83.0336C76.6789 82.855 75.9493 82.9566 75.3375 83.316L40.7261 103.644C39.4514 104.393 39.0231 106.033 39.7718 107.308Z" fill="#FFD983"/>
<path d="M39.636 109.716C39.9056 110.175 40.3465 110.509 40.8618 110.642C41.3771 110.776 41.9244 110.7 42.3835 110.431L80.4545 88.0702C80.6818 87.9367 80.8806 87.7597 81.0395 87.5494C81.1984 87.3391 81.3143 87.0995 81.3807 86.8444C81.447 86.5893 81.4624 86.3236 81.4261 86.0625C81.3897 85.8014 81.3023 85.55 81.1688 85.3227C81.0353 85.0954 80.8583 84.8966 80.648 84.7377C80.4376 84.5788 80.1981 84.4629 79.943 84.3965C79.6878 84.3302 79.4221 84.3148 79.161 84.3511C78.8999 84.3875 78.6486 84.4749 78.4213 84.6084L40.3481 106.97C39.3942 107.53 39.0745 108.76 39.636 109.716Z" fill="#FFD983"/>
<path d="M29.095 83.8465C28.3464 82.5718 28.8423 80.892 30.1999 80.0946L60.0442 62.566C61.4041 61.7673 62.9578 62.2434 63.7064 63.5181C64.2154 64.3846 64.2085 65.3926 63.7312 66.2043L64.585 67.658L59.9707 70.3682L59.2926 69.2135L54.6783 71.9236L55.3565 73.0783L50.7422 75.7884L50.064 74.6337L45.4498 77.3438L46.1279 78.4985L41.5137 81.2086L40.8355 80.054L36.2212 82.7641L36.8994 83.9187L32.2829 86.6301L31.3945 85.1175C30.4616 85.1135 29.5771 84.6672 29.095 83.8465Z" fill="#FFCC4D"/>
<path d="M63.806 61.0432C63.1074 59.8537 61.6601 60.0637 61.6601 60.0637L39.7213 62.0871L27.1055 80.3588C27.1055 80.3588 26.0658 81.3276 26.8926 82.7355L27.2657 83.3706L64.1842 61.6871L63.806 61.0432Z" fill="#FFD983"/>
<path d="M41.3469 65.0757C41.3469 65.0757 56.5497 63.6942 58.0345 63.5032C59.5202 63.3087 59.6101 64.3715 58.8156 64.8381L32.6884 80.1835C31.4617 80.904 31.2021 79.7971 31.8781 78.7189C32.5555 77.6429 41.3469 65.0757 41.3469 65.0757Z" fill="#FFAC33"/>
<path d="M27.2644 83.3683C27.4442 83.6746 27.7384 83.8968 28.0821 83.9862C28.4258 84.0755 28.791 84.0247 29.0972 83.8448L63.7086 63.5164C63.9919 63.3257 64.1918 63.034 64.2676 62.701C64.3433 62.3679 64.2892 62.0185 64.1162 61.724C63.9432 61.4295 63.6644 61.212 63.3367 61.116C63.0089 61.0199 62.6568 61.0525 62.3522 61.2071L27.7447 81.542C27.5931 81.6303 27.4604 81.7476 27.3542 81.8872C27.248 82.0268 27.1704 82.1859 27.1258 82.3556C27.0812 82.5252 27.0704 82.702 27.0942 82.8758C27.118 83.0495 27.1758 83.2169 27.2644 83.3683Z" fill="#FFD983"/>
</g>
</g>
</g>
<defs>
<clipPath id="clip0_126_2755">
<rect width="107.329" height="107.329" fill="white" transform="translate(240.568 -1.6875) rotate(19.0255)"/>
</clipPath>
<clipPath id="clip1_126_2755">
<rect width="35.3945" height="35.3945" fill="white" transform="matrix(-0.952741 -0.303783 -0.303783 0.952741 124.62 29.2773)"/>
</clipPath>
<clipPath id="clip2_126_2755">
<rect width="54.7713" height="54.7713" fill="white" transform="matrix(-0.975068 0.221905 0.221905 0.975068 210.154 89.5264)"/>
</clipPath>
<clipPath id="clip3_126_2755">
<rect width="91.1287" height="91.1287" fill="white" transform="matrix(-0.862274 0.506442 0.506442 0.862274 69.9403 23.7891)"/>
</clipPath>
</defs>
</svg>
