<svg width="20" height="20" viewBox="0 0 20 20" fill="none" xmlns="http://www.w3.org/2000/svg">
<path d="M10 0C4.477 0 0 4.477 0 10C0 15.523 4.477 20 10 20C15.523 20 20 15.523 20 10C20 4.477 15.523 0 10 0ZM15.707 7.707L8.707 14.707C8.512 14.902 8.256 15 8 15C7.744 15 7.488 14.902 7.293 14.707L4.293 11.707C3.902 11.316 3.902 10.684 4.293 10.293C4.684 9.902 5.316 9.902 5.707 10.293L8 12.586L14.293 6.293C14.684 5.902 15.316 5.902 15.707 6.293C16.098 6.684 16.098 7.316 15.707 7.707Z" fill="#FFBA35"/>
</svg>
