<svg width="161" height="149" viewBox="0 0 161 149" fill="none" xmlns="http://www.w3.org/2000/svg">
<g clip-path="url(#clip0_46_335)">
<path d="M46.4177 125.761C47.4911 126.497 48.6205 127.185 49.7739 127.745H60.0106C59.6662 126.713 59.2817 125.505 58.8892 124.177L46.4257 125.753L46.4177 125.761Z" fill="#FFBA35"/>
<path d="M125.516 82.9076C125.027 87.1634 123.714 96.7629 120.59 110.306C124.379 109.45 132.589 106.65 136.329 98.0348C138.58 92.8511 138.82 89.0113 137.058 86.6274C134.751 83.5076 129.12 82.8756 125.524 82.9076H125.516Z" fill="#FFBA35"/>
<path d="M44.3192 106.514C43.9267 103.81 43.4301 100.275 43.0055 96.9148H27.9148C28.9721 100.507 30.2857 103.77 31.9118 106.514H44.3112H44.3192Z" fill="#FFBA35"/>
<path d="M160.471 60.8049C160.335 59.589 159.334 58.669 158.14 58.669H150.235C151.044 51.6054 150.171 44.0938 149.602 40.414C149.418 39.2301 148.785 38.1981 147.808 37.5022C146.83 36.8062 145.637 36.5422 144.459 36.7582C144.155 36.8142 143.867 36.8702 143.562 36.9262C141.56 33.6864 138.58 31.3345 134.976 30.1585C136.073 24.8628 134.463 19.3911 130.546 15.4873C126.629 11.5755 121.159 9.97563 115.848 11.0716C114.15 5.93585 110.017 2.00006 104.666 0.568138C99.3154 -0.863785 93.7725 0.480143 89.7275 4.07995C85.6824 0.480143 80.1315 -0.863785 74.7889 0.568138C69.4383 2.00006 65.3131 5.93585 63.607 11.0716C58.3044 9.97563 52.8256 11.5835 48.9088 15.4953C47.8434 16.5593 46.9623 17.7352 46.2414 18.9991L27.6183 0.936118C26.8253 0.168159 25.5598 0.184159 24.7828 0.976116C24.0138 1.76807 24.0299 3.03201 24.8228 3.80796L44.6234 22.9989C44.0387 25.3188 43.9746 27.7587 44.4712 30.1665C42.9654 30.6625 41.5716 31.3745 40.2981 32.2544L14.6182 16.8873C13.665 16.3193 12.4395 16.6233 11.8707 17.5752C11.302 18.5192 11.6144 19.7511 12.5596 20.3191L37.2142 35.0623C35.7164 36.8462 34.595 38.9661 33.9542 41.3259C33.7139 42.2299 33.5537 43.1339 33.4736 44.0378H24.5265C24.3903 45.9577 24.2461 48.4296 24.134 51.3174H29.5487C31.7595 51.3174 33.5537 53.1093 33.5537 55.3172C33.5537 57.5251 31.7595 59.317 29.5487 59.317H23.9498C23.9337 61.1169 23.9498 62.9888 23.9738 64.9167H29.5487C31.7595 64.9167 33.5537 66.7086 33.5537 68.9165C33.5537 71.1244 31.7595 72.9163 29.5487 72.9163H24.2621C24.5665 78.276 25.1272 83.7557 26.0564 88.9154H46.5618C48.6044 88.9154 50.3185 90.4513 50.5428 92.4752C51.3278 99.5068 52.9057 109.802 52.9217 109.906C53.098 111.058 52.7615 112.234 52.0006 113.122C51.2397 114.01 50.1263 114.514 48.9648 114.514H29.7409C28.4353 114.514 27.2178 113.882 26.4649 112.818C19.7045 103.243 17.0852 87.4515 16.2442 72.9163H10.5171C8.30632 72.9163 6.51209 71.1244 6.51209 68.9165C6.51209 66.7086 8.30632 64.9167 10.5171 64.9167H15.9478C15.9158 62.9888 15.9078 61.1169 15.9158 59.317H10.5171C8.30632 59.317 6.51209 57.5251 6.51209 55.3172C6.51209 53.1093 8.30632 51.3174 10.5171 51.3174H16.1C16.2121 48.4856 16.3563 46.0217 16.4845 44.0378H5.89532C4.87806 44.0378 3.96493 44.7018 3.66055 45.6937C1.28159 53.4293 0 61.6689 0 70.2044C0 115.49 36.0448 149 80.5 149C124.955 149 161 115.49 161 70.2044C161 67.0206 160.816 63.8847 160.471 60.8049ZM50.9193 76.6521C50.1263 80.7318 50.1663 84.0357 50.1663 84.0676C50.1903 85.6116 48.9568 86.8835 47.4109 86.9155C47.3949 86.9155 47.3789 86.9155 47.3628 86.9155C45.8409 86.9155 44.5914 85.6996 44.5594 84.1717C44.5594 84.0117 44.5033 80.2839 45.4084 75.5881C45.7048 74.0682 47.1786 73.0762 48.6925 73.3722C50.2144 73.6682 51.2076 75.1321 50.9112 76.6521H50.9193ZM37.5026 44.0458C37.5747 43.4858 37.6868 42.9259 37.839 42.3659C38.3837 40.342 39.3689 38.5741 40.6986 37.1422L47.1386 40.99C47.459 41.182 47.8114 41.278 48.1638 41.278C48.8447 41.278 49.5095 40.934 49.886 40.302C50.4547 39.3581 50.1423 38.1261 49.1971 37.5582L44.2069 34.5743C45.1761 34.1103 46.2174 33.7584 47.3308 33.5424C47.8995 33.4304 48.3961 33.0784 48.6845 32.5744C48.9728 32.0704 49.0289 31.4705 48.8447 30.9185C48.324 29.4146 48.0998 27.8867 48.1558 26.3988L53.7548 31.8305C54.1473 32.2064 54.6439 32.3984 55.1485 32.3984C55.6531 32.3984 56.1898 32.1984 56.5823 31.7905C57.3512 30.9985 57.3352 29.7346 56.5422 28.9586L49.2292 21.871C49.8299 20.5831 50.6709 19.3751 51.7443 18.3032C55.1325 14.9194 59.8504 13.8394 64.376 15.4073C64.9287 15.5993 65.5294 15.5433 66.034 15.2473C66.5387 14.9594 66.8911 14.4634 67.0032 13.8954C67.9084 9.19967 71.2085 5.65586 75.8302 4.41593C80.46 3.176 85.0897 4.59992 88.2216 8.21573C88.6061 8.6557 89.1588 8.90369 89.7355 8.90369C90.3122 8.90369 90.8729 8.6477 91.2494 8.21573C94.3812 4.59992 99.011 3.176 103.641 4.41593C108.262 5.65586 111.563 9.19967 112.468 13.8954C112.58 14.4634 112.932 14.9594 113.437 15.2473C113.942 15.5353 114.55 15.5993 115.095 15.4073C119.621 13.8394 124.338 14.9194 127.727 18.3032C131.115 21.687 132.196 26.3988 130.626 30.9185C130.434 31.4705 130.49 32.0704 130.786 32.5744C131.083 33.0784 131.571 33.4304 132.14 33.5424C135.016 34.0943 137.459 35.5583 139.229 37.7101C95.8791 45.6217 78.3934 48.8775 71.2966 50.2375V46.4217C71.2966 45.1017 70.2473 44.0378 68.9497 44.0378H37.5106L37.5026 44.0458ZM66.2663 132.145C65.7457 132.905 64.8806 133.353 63.9595 133.353H49.1491C48.7486 133.353 48.3561 133.265 47.9956 133.105C40.8588 129.873 34.7071 122.898 34.4508 122.602C33.4335 121.434 33.5537 119.666 34.7231 118.65C35.8846 117.634 37.6628 117.754 38.68 118.914C38.6961 118.938 39.4009 119.73 40.5624 120.866L57.3993 118.73C56.8707 116.602 56.382 114.37 56.0216 112.162C55.7733 110.634 56.8066 109.194 58.3365 108.946C59.8664 108.698 61.3082 109.73 61.5565 111.258C62.9742 119.906 66.5627 129.465 66.5947 129.561C66.9231 130.425 66.803 131.385 66.2743 132.145H66.2663ZM66.2503 94.9151H60.5392C60.6994 97.171 60.9557 99.5708 61.3562 102.075C61.5965 103.603 60.5552 105.035 59.0253 105.275C58.8731 105.299 58.729 105.307 58.5848 105.307C57.2311 105.307 56.0376 104.323 55.8213 102.939C53.3623 87.4035 55.7493 75.9961 55.8454 75.5161C56.1658 74.0042 57.6636 73.0362 59.1775 73.3642C60.6914 73.6842 61.6526 75.1721 61.3322 76.6841C61.3162 76.7561 60.2989 81.6918 60.3309 89.2994H66.2503C67.7962 89.2994 69.0538 90.5553 69.0538 92.0992C69.0538 93.6431 67.7962 94.8991 66.2503 94.8991V94.9151ZM84.505 133.353H72.9066C72.0095 133.353 71.1604 132.921 70.6317 132.193C70.1031 131.465 69.9589 130.529 70.2473 129.673L85.7145 83.0517H69.6065C68.0606 83.0517 66.803 81.7958 66.803 80.2519C66.803 78.7079 68.0606 77.452 69.6065 77.452H89.5913C90.4884 77.452 91.3375 77.884 91.8661 78.6119C92.3948 79.3399 92.539 80.2759 92.2506 81.1318L76.7834 127.753H84.497C86.0429 127.753 87.3004 129.009 87.3004 130.553C87.3004 132.097 86.0429 133.353 84.497 133.353H84.505ZM103.841 127.753C105.387 127.753 106.644 129.009 106.644 130.553C106.644 132.097 105.387 133.353 103.841 133.353H97.5452C97.5452 133.353 97.5452 133.353 97.5372 133.353H92.539C90.993 133.353 89.7355 132.097 89.7355 130.553C89.7355 129.009 90.993 127.753 92.539 127.753H95.3264C100.469 105.97 102.664 88.8914 103.328 83.0517H98.4984C96.9524 83.0517 95.6949 81.7958 95.6949 80.2519C95.6949 78.7079 96.9524 77.452 98.4984 77.452H114.214C115.76 77.452 117.017 78.7079 117.017 80.2519C117.017 81.7958 115.76 83.0517 114.214 83.0517H108.975C108.399 88.3074 106.268 105.522 101.094 127.753H103.857H103.841ZM141.48 100.267C135.312 114.474 119.885 116.162 119.172 116.234C118.003 120.906 116.641 125.961 115.047 131.353C114.686 132.569 113.573 133.361 112.356 133.361C112.091 133.361 111.827 133.321 111.563 133.249C110.081 132.809 109.232 131.257 109.664 129.769C118.483 99.9468 120.157 80.2279 120.173 80.0279C120.285 78.6919 121.319 77.628 122.648 77.476C123.193 77.412 136.137 76.0201 141.544 83.2997C144.596 87.4115 144.572 93.1232 141.464 100.275L141.48 100.267ZM146.222 58.677H73.6355C72.3379 58.677 71.2886 57.6051 71.2886 56.2932V54.3173C83.2634 52.0294 121.423 45.0378 145.188 40.702C145.325 40.678 145.429 40.726 145.493 40.766C145.557 40.806 145.629 40.894 145.653 41.022C146.198 44.5978 147.071 52.0294 146.222 58.677Z" fill="#FFBA35"/>
</g>
<defs>
<clipPath id="clip0_46_335">
<rect width="161" height="149" fill="white"/>
</clipPath>
</defs>
</svg>
