<svg width="157" height="19" viewBox="0 0 157 19" fill="none" xmlns="http://www.w3.org/2000/svg">
<path d="M16.14 0.319999V9.6H13.5V0.319999H16.14ZM12.16 7.32L10.9 9.38C8.8 8.76 7.38 7.48 6.56 5.88C5.72 7.62 4.22 9.02 2.06 9.68L0.78 7.62C3.84 6.68 5.18 4.36 5.18 2.12V0.74H7.86V2.12C7.86 4.3 9.18 6.44 12.16 7.32ZM6.52 16.54H16.62V18.58H3.9V13.52H13.54V12.44H3.88V10.42H16.16V15.4H6.52V16.54ZM26.3984 1.72V4.4C26.3984 7.82 27.8584 11.18 30.9784 12.52L29.4784 14.66C27.3584 13.7 25.9384 11.88 25.1184 9.62C24.2984 12.08 22.7984 14.06 20.5984 15.1L19.0184 12.92C22.2384 11.54 23.7584 7.98 23.7584 4.4V1.72H26.3984ZM31.8784 0.279999H34.5184V18.76H31.8784V0.279999ZM38.3169 1.68H47.1769C47.1769 6.68 44.0969 10.14 38.6169 11.72L37.5169 9.62C41.6169 8.5 43.8969 6.36 44.3169 3.78H38.3169V1.68ZM42.8969 12.16V16.3H52.7769V18.4H40.2569V12.16H42.8969ZM52.1369 5.44H54.5969V7.6H52.1369V13.48H49.4969V0.299999H52.1369V5.44ZM72.5306 8.32L71.2506 10.4C69.1906 9.74 67.7706 8.44 66.9506 6.78C66.1106 8.56 64.6306 10 62.4706 10.7L61.1706 8.62C64.2506 7.64 65.5706 5.24 65.5706 2.9V1.14H68.2506V2.9C68.2506 5.2 69.5506 7.4 72.5306 8.32ZM63.9906 14.18V12.08H76.5506V18.74H73.8906V14.18H63.9906ZM73.8906 0.299999H76.5506V11.28H73.8906V0.299999ZM90.0891 7.3L90.3491 9.4C88.0891 9.88 85.9691 9.98 81.8491 9.98H80.2891V1.54H88.5491V3.64H82.9091V7.86C86.2491 7.84 88.0891 7.72 90.0891 7.3ZM88.1091 16.62C90.4491 16.62 91.7491 16.1 91.7491 14.98C91.7491 13.88 90.4491 13.36 88.1091 13.36C85.7891 13.36 84.4891 13.88 84.4891 14.98C84.4891 16.1 85.7891 16.62 88.1091 16.62ZM88.1091 11.26C91.9291 11.26 94.3491 12.66 94.3491 14.98C94.3491 17.34 91.9291 18.74 88.1091 18.74C84.3291 18.74 81.8891 17.34 81.8891 14.98C81.8891 12.66 84.3291 11.26 88.1091 11.26ZM94.1891 4.66H96.5891V6.8H94.1891V10.94H91.5291V0.279999H94.1891V4.66ZM119.043 1.8V3.78H104.043V1.8H110.243V0.219999H112.883V1.8H119.043ZM107.903 13.84V16.36H118.043V18.4H105.263V13.84H107.903ZM108.103 7.1C108.103 7.76 109.183 8.06 111.563 8.06C113.963 8.06 115.043 7.76 115.043 7.1C115.043 6.42 113.963 6.14 111.563 6.14C109.183 6.14 108.103 6.42 108.103 7.1ZM112.883 10.92H119.903V12.96H103.223V10.92H110.243V9.86C107.143 9.64 105.403 8.7 105.403 7.1C105.403 5.28 107.663 4.3 111.563 4.3C115.483 4.3 117.743 5.28 117.743 7.1C117.743 8.7 116.003 9.64 112.883 9.86V10.92ZM132.601 8.18L131.381 10.24C129.341 9.64 127.921 8.42 127.081 6.84C126.261 8.6 124.781 9.96 122.601 10.62L121.341 8.58C124.301 7.68 125.621 5.52 125.701 3.4H122.041V1.3H131.981V3.4H128.381C128.481 5.36 129.741 7.36 132.601 8.18ZM133.521 16.42V14.86H126.721V16.42H133.521ZM133.521 12.82V11.2H136.141V18.5H124.121V11.2H126.721V12.82H133.521ZM138.581 4.2V6.38H136.141V10.48H133.501V0.319999H136.141V4.2H138.581ZM149.68 14.48H156.72V16.64H140.04V14.48H147.04V10.64H141.98V1.56H154.8V3.68H144.64V8.52H154.94V10.64H149.68V14.48Z" fill="#191919"/>
</svg>
