<svg width="314" height="14" viewBox="0 0 314 14" fill="none" xmlns="http://www.w3.org/2000/svg">
<path d="M11.032 0.492V6.988H9.884V0.492H11.032ZM8.344 5.728L7.77 6.624C6.328 6.12 5.18 5.07 4.606 3.74C4.06 5.182 2.898 6.33 1.414 6.862L0.826 5.966C2.716 5.308 4.018 3.628 4.018 1.808V0.855999H5.166V1.808C5.166 3.544 6.482 5.112 8.344 5.728ZM4.074 11.986H11.466V12.896H2.94V9.774H9.912V8.514H2.912V7.618H11.046V10.642H4.074V11.986ZM18.0729 1.57V3.824C18.0729 6.12 19.5709 8.43 21.4329 9.27L20.7469 10.194C19.3189 9.494 18.1149 8.01 17.5129 6.218C16.9389 8.108 15.7349 9.676 14.2649 10.432L13.5649 9.494C15.4129 8.612 16.9389 6.204 16.9389 3.824V1.57H18.0729ZM22.7489 0.478H23.8969V13.064H22.7489V0.478ZM27.0318 1.458H32.8838C32.8838 4.706 30.6018 7.086 26.9898 8.22L26.5278 7.31C29.4818 6.386 31.4138 4.608 31.6518 2.396H27.0318V1.458ZM29.5658 8.724V11.818H36.7898V12.756H28.4178V8.724H29.5658ZM36.2438 4.3H38.0918V5.252H36.2438V9.662H35.0958V0.492H36.2438V4.3ZM45.0487 1.262C47.6527 1.262 49.6127 2.648 49.6127 4.734C49.6127 6.834 47.6527 8.206 45.0487 8.206C42.4447 8.206 40.4847 6.834 40.4847 4.734C40.4847 2.648 42.4447 1.262 45.0487 1.262ZM45.0487 2.2C43.0747 2.2 41.5767 3.222 41.5767 4.734C41.5767 6.26 43.0747 7.268 45.0487 7.268C47.0367 7.268 48.5207 6.26 48.5207 4.734C48.5207 3.222 47.0367 2.2 45.0487 2.2ZM39.3647 10.418H50.7747V11.37H39.3647V10.418ZM58.5156 10.544H63.6536V11.482H52.2436V10.544H57.3536V8.178H53.6716V4.3H61.1196V2.34H53.6436V1.402H62.2396V5.224H54.8056V7.254H62.5336V8.178H58.5156V10.544ZM77.6493 3.124V2.676H69.9493V1.738H78.7973V3.124C78.7973 4.72 78.7973 6.358 78.3493 8.71L77.2153 8.57C77.6493 6.33 77.6493 4.678 77.6493 3.124ZM75.8013 10.334H80.1273V11.272H68.7733V10.334H71.5593V6.176H72.6933V10.334H74.6673V6.176H75.8013V10.334ZM83.4862 4.23C83.4862 5.406 84.4382 6.218 85.7122 6.218C87.0282 6.218 87.9662 5.406 87.9662 4.23C87.9662 3.068 87.0282 2.27 85.7122 2.27C84.4382 2.27 83.4862 3.068 83.4862 4.23ZM86.2862 7.156V9.284C87.5042 9.214 88.7502 9.116 89.9122 8.934L90.0102 9.788C87.1822 10.306 84.1442 10.334 81.8762 10.334L81.7362 9.368C82.7442 9.368 83.9062 9.368 85.1382 9.326V7.156C83.5142 6.946 82.3662 5.812 82.3662 4.23C82.3662 2.48 83.7802 1.29 85.7122 1.29C87.6862 1.29 89.0862 2.48 89.0862 4.23C89.0862 5.812 87.9522 6.96 86.2862 7.156ZM90.7382 0.463999H91.8862V13.064H90.7382V0.463999ZM96.0711 4.244C96.0711 5.434 96.9951 6.218 98.2831 6.218C99.5571 6.218 100.481 5.434 100.481 4.244C100.481 3.068 99.5571 2.256 98.2831 2.256C96.9951 2.256 96.0711 3.068 96.0711 4.244ZM98.8571 7.156V9.284C100.005 9.228 101.167 9.158 102.245 9.004L102.343 9.844C99.6831 10.292 96.7571 10.334 94.5451 10.334L94.3911 9.368C95.3851 9.368 96.5331 9.354 97.7091 9.326V7.156C96.0711 6.96 94.9511 5.812 94.9511 4.244C94.9511 2.48 96.3371 1.29 98.2831 1.29C100.201 1.29 101.601 2.48 101.601 4.244C101.601 5.812 100.467 6.946 98.8571 7.156ZM106.179 5.658V6.624H104.191V13.036H103.043V0.463999H104.191V5.658H106.179ZM119.923 3.124V2.676H112.223V1.738H121.071V3.124C121.071 4.72 121.071 6.358 120.623 8.71L119.489 8.57C119.923 6.33 119.923 4.678 119.923 3.124ZM118.075 10.334H122.401V11.272H111.047V10.334H113.833V6.176H114.967V10.334H116.941V6.176H118.075V10.334ZM125.69 2.004V8.78C126.894 8.766 128.224 8.682 129.722 8.388L129.834 9.382C128.14 9.704 126.698 9.774 125.34 9.774H124.542V2.004H125.69ZM133.474 0.478H134.58V13.022H133.474V6.54H131.696V12.392H130.618V0.758H131.696V5.588H133.474V0.478ZM148.015 6.386L147.441 7.296C145.999 6.778 144.865 5.7 144.305 4.314C143.759 5.798 142.611 6.96 141.141 7.52L140.553 6.61C142.443 5.924 143.717 4.174 143.717 2.298V1.066H144.865V2.298C144.865 4.104 146.153 5.742 148.015 6.386ZM142.345 9.606V8.682H150.745V13.05H149.597V9.606H142.345ZM149.597 0.492H150.745V8.038H149.597V0.492ZM160.6 5.574L160.726 6.512C159.004 6.862 157.506 6.946 154.86 6.946H153.88V1.444H159.424V2.368H155.014V6.008C157.506 6.008 158.948 5.924 160.6 5.574ZM159.074 12.098C160.922 12.098 162.07 11.538 162.07 10.614C162.07 9.69 160.922 9.13 159.074 9.13C157.212 9.13 156.064 9.69 156.064 10.614C156.064 11.538 157.212 12.098 159.074 12.098ZM159.074 8.206C161.608 8.206 163.204 9.102 163.204 10.614C163.204 12.126 161.608 13.022 159.074 13.022C156.526 13.022 154.93 12.126 154.93 10.614C154.93 9.102 156.526 8.206 159.074 8.206ZM163.078 3.74H164.926V4.692H163.078V7.954H161.916V0.478H163.078V3.74ZM170.273 1.402C172.233 1.402 173.633 2.592 173.633 4.356C173.633 6.106 172.233 7.31 170.273 7.31C168.327 7.31 166.913 6.106 166.913 4.356C166.913 2.592 168.327 1.402 170.273 1.402ZM170.273 2.382C168.985 2.382 168.033 3.18 168.033 4.356C168.033 5.518 168.985 6.33 170.273 6.33C171.575 6.33 172.513 5.518 172.513 4.356C172.513 3.18 171.575 2.382 170.273 2.382ZM175.285 0.478H176.433V13.064H175.285V0.478ZM166.423 10.306L166.283 9.34C168.565 9.34 171.715 9.326 174.459 8.906L174.557 9.76C171.729 10.278 168.691 10.306 166.423 10.306ZM193.397 1.64V2.522H183.303V1.64H187.825V0.337999H188.973V1.64H193.397ZM185.319 9.634V11.846H192.809V12.756H184.171V9.634H185.319ZM185.501 4.986C185.501 5.672 186.537 6.05 188.399 6.05C190.247 6.05 191.283 5.672 191.283 4.986C191.283 4.3 190.247 3.922 188.399 3.922C186.537 3.922 185.501 4.3 185.501 4.986ZM188.973 7.898H194.055V8.808H182.715V7.898H187.825V6.89C185.613 6.792 184.339 6.134 184.339 4.986C184.339 3.754 185.823 3.082 188.399 3.082C190.947 3.082 192.445 3.754 192.445 4.986C192.445 6.134 191.171 6.792 188.973 6.89V7.898ZM202.874 6.33L202.342 7.24C200.914 6.764 199.822 5.77 199.262 4.51C198.73 5.896 197.596 6.974 196.084 7.506L195.524 6.582C197.4 5.966 198.674 4.412 198.674 2.662V2.242H195.874V1.304H202.594V2.242H199.836V2.662C199.836 4.258 201.04 5.728 202.874 6.33ZM204.204 11.944V10.376H198.562V11.944H204.204ZM204.204 9.466V7.954H205.338V12.868H197.428V7.954H198.562V9.466H204.204ZM207.2 3.376V4.328H205.338V7.366H204.19V0.478H205.338V3.376H207.2ZM214.73 10.502H219.868V11.454H208.458V10.502H213.568V7.282H209.914V1.486H218.426V2.424H211.062V6.358H218.552V7.282H214.73V10.502ZM230.143 2.676V1.654H222.779V0.841999H231.277V3.46H223.941V4.538H231.501V5.364H222.807V2.676H230.143ZM223.871 10.88V12.042H231.711V12.868H222.737V10.082H230.185V9.032H222.709V8.206H231.319V10.88H223.871ZM221.351 6.316H232.733V7.184H221.351V6.316ZM245.329 1.626V2.494H238.119V1.626H241.157V0.393999H242.305V1.626H245.329ZM239.883 4.818C239.883 5.476 240.597 5.896 241.731 5.896C242.837 5.896 243.565 5.476 243.565 4.818C243.565 4.16 242.837 3.754 241.731 3.754C240.597 3.754 239.883 4.16 239.883 4.818ZM245.707 7.226L245.791 8.052C243.103 8.514 240.135 8.528 237.937 8.542L237.811 7.618C238.805 7.618 239.953 7.618 241.157 7.576V6.666C239.701 6.526 238.791 5.854 238.791 4.818C238.791 3.67 239.953 2.956 241.731 2.956C243.481 2.956 244.657 3.67 244.657 4.818C244.657 5.84 243.747 6.512 242.305 6.666V7.534C243.453 7.478 244.615 7.394 245.707 7.226ZM239.337 10.446V9.536H247.597V13.036H246.449V10.446H239.337ZM249.431 4.286V5.238H247.597V8.906H246.449V0.492H247.597V4.286H249.431ZM261.05 0.492V9.662H259.902V0.492H261.05ZM252.16 4.44C252.16 5.686 253.084 6.554 254.302 6.554C255.548 6.554 256.472 5.686 256.472 4.44C256.472 3.222 255.548 2.354 254.302 2.354C253.084 2.354 252.16 3.222 252.16 4.44ZM257.592 4.44C257.592 6.26 256.178 7.548 254.302 7.548C252.44 7.548 251.04 6.26 251.04 4.44C251.04 2.634 252.44 1.36 254.302 1.36C256.178 1.36 257.592 2.634 257.592 4.44ZM254.12 11.818H261.428V12.756H252.972V8.724H254.12V11.818ZM266.733 9.172C267.699 9.172 268.399 8.374 268.399 7.254C268.399 6.162 267.699 5.364 266.733 5.364C265.753 5.364 265.067 6.162 265.067 7.254C265.067 8.374 265.753 9.172 266.733 9.172ZM266.733 4.398C268.287 4.398 269.421 5.574 269.421 7.254C269.421 8.962 268.287 10.124 266.733 10.124C265.179 10.124 264.045 8.962 264.045 7.254C264.045 5.574 265.179 4.398 266.733 4.398ZM267.293 0.841999V2.62H269.841V3.558H263.611V2.62H266.159V0.841999H267.293ZM273.159 0.463999H274.265V13.022H273.159V6.708H271.549V12.42H270.471V0.758H271.549V5.77H273.159V0.463999ZM278.982 4.552V6.862H285.394V4.552H278.982ZM282.762 10.488H287.886V11.426H276.504V10.488H281.6V7.786H277.848V1.374H278.982V3.614H285.394V1.374H286.514V7.786H282.762V10.488ZM293.107 1.668V4.02C293.107 6.036 294.045 8.164 295.697 9.172L295.039 10.068C293.849 9.34 293.009 8.01 292.561 6.484C292.113 8.15 291.203 9.564 289.957 10.334L289.243 9.48C290.965 8.472 292.001 6.218 292.001 4.062V1.668H293.107ZM296.411 4.986V0.758H297.489V12.42H296.411V5.938H294.339V4.986H296.411ZM298.959 0.478H300.051V13.036H298.959V0.478ZM306.196 7.52V10.474H309.696V7.52C309.164 7.646 308.562 7.716 307.932 7.716C307.316 7.716 306.714 7.646 306.196 7.52ZM307.932 2.172C305.916 2.172 304.474 3.096 304.474 4.496C304.474 5.896 305.916 6.82 307.932 6.82C309.948 6.82 311.404 5.896 311.404 4.496C311.404 3.096 309.948 2.172 307.932 2.172ZM310.844 10.474H313.658V11.426H302.248V10.474H305.048V7.086C303.998 6.54 303.368 5.63 303.368 4.496C303.368 2.536 305.272 1.276 307.932 1.276C310.606 1.276 312.496 2.536 312.496 4.496C312.496 5.63 311.88 6.526 310.844 7.072V10.474Z" fill="#767676"/>
</svg>
