<svg width="30" height="30" viewBox="0 0 30 30" fill="none" xmlns="http://www.w3.org/2000/svg">
<path d="M17.516 22.9487V22.6731H21.4317C23.0125 22.6731 23.7939 20.755 22.6872 19.6407L21.5909 18.537V13.7179C21.5909 10.5123 19.9714 7.66096 17.0066 6.67088V6.53846C17.0066 5.27776 15.9931 4.25 14.7285 4.25C13.464 4.25 12.4504 5.27776 12.4504 6.53846V6.67023C9.4767 7.65892 7.86618 10.5029 7.86618 13.7179V18.537L6.76991 19.6407C5.67437 20.7437 6.41851 22.6731 8.01514 22.6731H11.9411V22.9487C11.9411 24.4839 13.1763 25.75 14.7285 25.75C16.2681 25.75 17.516 24.4863 17.516 22.9487Z" stroke="#191919" stroke-width="1.5"/>
</svg>
