<svg width="30" height="30" viewBox="0 0 30 30" fill="none" xmlns="http://www.w3.org/2000/svg">
<path d="M6.36569 20.0264V17.756L12.7616 21.2992C12.7619 21.2994 12.7622 21.2996 12.7625 21.2997C13.7352 21.8418 14.9062 21.8418 15.8789 21.2997C15.8792 21.2996 15.8795 21.2994 15.8798 21.2992L22.2757 17.756V20.0264C22.2757 20.6802 21.921 21.2834 21.3687 21.5897L15.1513 25.0318L15.1492 25.0329C14.6302 25.3224 14.0112 25.3224 13.4922 25.0329L13.4901 25.0318L7.27271 21.5897C6.72041 21.2834 6.36569 20.6802 6.36569 20.0264ZM13.4922 17.4673L13.49 17.4661L3.00921 11.6673C3.00887 11.6671 3.00854 11.6669 3.0082 11.6667C2.66393 11.4735 2.66393 10.9515 3.00821 10.7583C3.00854 10.7581 3.00887 10.7579 3.00921 10.7577L13.4865 4.96077C14.0086 4.67972 14.633 4.67974 15.155 4.96084L26.9852 11.5003C27.1516 11.5967 27.25 11.7657 27.25 11.9564V20.039C27.25 20.3281 27.0164 20.5499 26.7564 20.5499C26.4964 20.5499 26.2629 20.3281 26.2629 20.039V12.5869V11.3144L25.1496 11.9308L15.1513 17.4662L15.1492 17.4673C14.6302 17.7568 14.0112 17.7568 13.4922 17.4673Z" stroke="#191919" stroke-width="1.5"/>
</svg>
