<svg width="263" height="19" viewBox="0 0 263 19" fill="none" xmlns="http://www.w3.org/2000/svg">
<path d="M12.48 0.279999H15.12V18.76H12.48V0.279999ZM5.22 1.58C8 1.58 10.06 4.1 10.06 8.14C10.06 12.2 8 14.74 5.22 14.74C2.44 14.74 0.38 12.2 0.38 8.14C0.38 4.1 2.44 1.58 5.22 1.58ZM5.22 3.96C3.86 3.96 2.92 5.42 2.92 8.14C2.92 10.88 3.86 12.34 5.22 12.34C6.58 12.34 7.52 10.88 7.52 8.14C7.52 5.42 6.58 3.96 5.22 3.96ZM25.1584 8.94V6.34H21.6584V8.94H25.1584ZM27.7384 7.32V11.04H19.0384V1.52H21.6584V4.32H25.1584V1.54H27.7384V5.2H31.0184V0.319999H33.6584V13.9H31.0184V7.32H27.7384ZM24.1384 16.3H34.0584V18.4H21.4984V12.58H24.1384V16.3ZM38.4169 9.42L37.4569 7.36C41.2169 6.9 43.1769 5.1 43.4369 3.34H38.1369V1.24H51.7969V3.34H46.5769C46.8369 5.1 48.7769 6.9 52.5169 7.36L51.5769 9.42C48.3569 8.98 46.0969 7.6 44.9969 5.72C43.8969 7.6 41.6369 8.98 38.4169 9.42ZM53.3169 10.48V12.58H46.2569V18.76H43.6169V12.58H36.6769V10.48H53.3169ZM68.5506 3.02C66.1306 3.02 64.5906 3.74 64.5906 5.06C64.5906 6.4 66.1306 7.12 68.5506 7.12C70.9506 7.12 72.4906 6.4 72.4906 5.06C72.4906 3.74 70.9506 3.02 68.5506 3.02ZM68.5506 9.22C64.6106 9.22 61.8906 7.6 61.8906 5.06C61.8906 2.56 64.6106 0.92 68.5506 0.92C72.4706 0.92 75.2106 2.56 75.2106 5.06C75.2106 7.6 72.4706 9.22 68.5506 9.22ZM76.9306 10.6V12.72H69.8506V18.74H67.2106V12.72H60.2506V10.6H76.9306ZM82.3291 8.98V12.3C85.1291 12.28 87.4491 12.14 90.0491 11.7L90.3291 13.84C87.3291 14.36 84.6291 14.48 81.2891 14.48H79.6291V6.9H85.6091V3.96H79.6091V1.86H88.3091V8.98H82.3291ZM91.3291 0.279999H93.9691V18.76H91.3291V0.279999ZM113.083 1.92V4H102.243V1.92H106.323V0.199999H108.983V1.92H113.083ZM105.663 7.96C105.663 8.9 106.463 9.36 107.663 9.36C108.843 9.36 109.663 8.9 109.663 7.96C109.663 7.04 108.843 6.58 107.663 6.58C106.463 6.58 105.663 7.04 105.663 7.96ZM112.183 7.96C112.183 9.98 110.323 11.36 107.663 11.36C105.023 11.36 103.143 9.98 103.143 7.96C103.143 5.96 105.023 4.58 107.663 4.58C110.323 4.58 112.183 5.96 112.183 7.96ZM104.463 14.72V12.6H116.743V18.74H114.103V14.72H104.463ZM119.183 5.04V7.22H116.743V11.84H114.103V0.319999H116.743V5.04H119.183ZM135.181 12.18L132.541 11.92C133.141 8.58 133.161 6.1 133.161 3.98H122.261V1.88H135.801V3.66C135.801 5.92 135.801 8.46 135.181 12.18ZM131.281 14.38H137.321V16.5H120.641V14.38H124.141V8.56H126.741V14.38H128.701V8.56H131.281V14.38ZM155.075 2.04V4.12H144.235V2.04H148.315V0.199999H150.975V2.04H155.075ZM149.655 6.7C148.455 6.7 147.655 7.18 147.655 8.12C147.655 9.04 148.455 9.54 149.655 9.54C150.835 9.54 151.655 9.04 151.655 8.12C151.655 7.18 150.835 6.7 149.655 6.7ZM149.655 11.52C147.015 11.52 145.135 10.14 145.135 8.12C145.135 6.08 147.015 4.72 149.655 4.72C152.315 4.72 154.175 6.08 154.175 8.12C154.175 10.14 152.315 11.52 149.655 11.52ZM154.175 12.24V12.48C154.175 14.34 156.015 16.16 159.935 16.66L158.995 18.68C156.055 18.26 153.955 17.12 152.855 15.5C151.755 17.12 149.675 18.26 146.755 18.68L145.815 16.66C149.735 16.16 151.555 14.34 151.555 12.48V12.24H154.175ZM158.735 5.22H161.175V7.38H158.735V13.22H156.095V0.279999H158.735V5.22ZM172.833 5.12V2.76H169.053V5.12H172.833ZM166.433 5.12V2.76H164.093V0.799999H177.793V2.76H175.453V5.12H177.653V7.08H164.213V5.12H166.433ZM167.173 15.68V16.68H177.733V18.58H164.553V13.92H174.653V13.02H164.533V11.12H177.253V15.68H167.173ZM162.633 8.02H179.273V10.1H162.633V8.02ZM184.092 9.16V12.26C185.832 12.22 187.472 12.12 189.332 11.82L189.552 13.94C187.172 14.36 185.132 14.42 182.832 14.42H181.532V7.08H185.472V4.2H181.512V2.1H188.032V9.16H184.092ZM190.592 6.56V0.619999H193.032V17.86H190.592V8.72H188.772V6.56H190.592ZM194.332 0.279999H196.832V18.7H194.332V0.279999ZM212.05 0.279999H214.69V18.76H212.05V0.279999ZM204.79 1.58C207.57 1.58 209.63 4.1 209.63 8.14C209.63 12.2 207.57 14.74 204.79 14.74C202.01 14.74 199.95 12.2 199.95 8.14C199.95 4.1 202.01 1.58 204.79 1.58ZM204.79 3.96C203.43 3.96 202.49 5.42 202.49 8.14C202.49 10.88 203.43 12.34 204.79 12.34C206.15 12.34 207.09 10.88 207.09 8.14C207.09 5.42 206.15 3.96 204.79 3.96ZM233.929 8.96L232.809 11.18C229.609 10.54 227.249 8.76 226.069 6.42C224.889 8.76 222.549 10.56 219.349 11.18L218.229 8.96C222.369 8.26 224.669 5.34 224.669 2.7V1.38H227.489V2.7C227.489 5.4 229.769 8.26 233.929 8.96ZM217.829 14.34H234.509V16.48H217.829V14.34ZM251.067 5.28V7.38H238.287V0.959999H240.927V5.28H251.067ZM240.767 12.84V16.22H251.167V18.32H238.107V12.84H240.767ZM236.227 9.26H252.907V11.38H236.227V9.26ZM256.506 11.88C256.506 11.4133 256.559 11.0067 256.666 10.66C256.786 10.3 256.972 9.96 257.226 9.64C257.492 9.32 257.846 8.99333 258.286 8.66C258.739 8.31333 259.092 8.01333 259.346 7.76C259.612 7.50667 259.806 7.26 259.926 7.02C260.046 6.76667 260.106 6.48 260.106 6.16C260.106 5.65333 259.926 5.26667 259.566 5C259.219 4.73333 258.719 4.6 258.066 4.6C257.479 4.6 256.919 4.68667 256.386 4.86C255.852 5.02 255.319 5.24 254.786 5.52L253.886 3.64C254.499 3.32 255.166 3.05333 255.886 2.84C256.606 2.62667 257.399 2.52 258.266 2.52C259.599 2.52 260.632 2.84667 261.366 3.5C262.112 4.15333 262.486 5 262.486 6.04C262.486 6.61333 262.392 7.10667 262.206 7.52C262.032 7.92 261.772 8.29333 261.426 8.64C261.079 8.98667 260.652 9.35333 260.146 9.74C259.732 10.06 259.412 10.3333 259.186 10.56C258.972 10.7867 258.826 11.0133 258.746 11.24C258.679 11.4533 258.646 11.72 258.646 12.04V12.54H256.506V11.88ZM256.126 15.72C256.126 15.1467 256.272 14.7467 256.566 14.52C256.872 14.2933 257.239 14.18 257.666 14.18C258.079 14.18 258.432 14.2933 258.726 14.52C259.032 14.7467 259.186 15.1467 259.186 15.72C259.186 16.2667 259.032 16.66 258.726 16.9C258.432 17.14 258.079 17.26 257.666 17.26C257.239 17.26 256.872 17.14 256.566 16.9C256.272 16.66 256.126 16.2667 256.126 15.72Z" fill="#191919"/>
</svg>
