<svg width="67" height="67" viewBox="0 0 67 67" fill="none" xmlns="http://www.w3.org/2000/svg">
<g clip-path="url(#clip0_46_441)">
<path d="M37.2178 51.6108C38.5233 50.6266 38.7838 48.7705 37.7997 47.465C36.8156 46.1595 34.9594 45.899 33.6539 46.8831C32.3484 47.8672 32.0879 49.7234 33.072 51.0289C34.0562 52.3344 35.9123 52.5949 37.2178 51.6108Z" fill="#59667C"/>
<path d="M38.3767 48.921L32.5732 50.0125L28.9462 38.1537L36.171 36.5059L38.3767 48.921Z" fill="#59667C"/>
<path d="M46.9031 51.7822L44.8281 56.5283L34.2138 51.9458L36.6069 46.705L46.9031 51.7822Z" fill="#59667C"/>
<path d="M49.238 54.5448L47.4209 58.6764C47.3375 58.8673 47.2172 59.0398 47.0669 59.184C46.9166 59.3282 46.7392 59.4413 46.5451 59.5167C46.3509 59.5921 46.1437 59.6284 45.9355 59.6234C45.7272 59.6185 45.522 59.5724 45.3317 59.4879L45.2607 59.4558C45.0698 59.3724 44.8973 59.2521 44.7531 59.1018C44.6088 58.9515 44.4958 58.7741 44.4204 58.58C44.3449 58.3858 44.3087 58.1786 44.3136 57.9704C44.3185 57.7621 44.3646 57.5569 44.4492 57.3665L46.2663 53.235C46.3497 53.0441 46.47 52.8716 46.6203 52.7274C46.7706 52.5832 46.9479 52.4701 47.1421 52.3947C47.3363 52.3193 47.5434 52.283 47.7517 52.2879C47.9599 52.2929 48.1651 52.3389 48.3555 52.4235L48.4265 52.4556C49.2309 52.807 49.594 53.741 49.238 54.5448Z" fill="#4568AD"/>
<path d="M45.1482 59.4064L48.2444 52.371L50.2564 53.2561L47.1602 60.2915L45.1482 59.4064Z" fill="#4568AD"/>
<path d="M45.8343 54.2075L46.9049 51.7744L48.5384 52.4933L47.4678 54.9264L45.8343 54.2075Z" fill="#4568AD"/>
<path d="M26.9969 48.4155C27.611 46.9003 26.8804 45.1742 25.3653 44.5601C23.8501 43.9461 22.124 44.6766 21.5099 46.1918C20.8959 47.707 21.6264 49.4331 23.1416 50.0471C24.6568 50.6612 26.3829 49.9307 26.9969 48.4155Z" fill="#818C9B"/>
<path d="M26.0012 49.6569L22.0853 45.2396L30.3901 36.0365L35.5212 41.3892L26.0012 49.6569Z" fill="#818C9B"/>
<path d="M19.0523 58.2255L14.8836 55.1444L21.8256 45.6011L26.4017 49.102L19.0523 58.2255Z" fill="#818C9B"/>
<path d="M15.8306 59.8345L12.2042 57.1429C12.0371 57.0188 11.896 56.8631 11.7891 56.6845C11.6822 56.5059 11.6115 56.308 11.5811 56.1021C11.5507 55.8963 11.5611 55.6864 11.6118 55.4845C11.6625 55.2827 11.7524 55.0928 11.8765 54.9257L11.9219 54.861C12.046 54.6939 12.2017 54.5528 12.3803 54.4459C12.5589 54.339 12.7568 54.2683 12.9627 54.2379C13.1686 54.2075 13.3784 54.2179 13.5803 54.2686C13.7821 54.3193 13.972 54.4093 14.1391 54.5334L17.7656 57.225C17.9327 57.349 18.0737 57.5048 18.1807 57.6834C18.2876 57.8619 18.3583 58.0598 18.3887 58.2657C18.4191 58.4716 18.4087 58.6815 18.358 58.8833C18.3073 59.0852 18.2173 59.2751 18.0932 59.4422L18.0478 59.5069C17.797 59.844 17.4227 60.0678 17.007 60.1292C16.5913 60.1906 16.1683 60.0846 15.8306 59.8345Z" fill="#4568AD"/>
<path d="M12.0026 54.7566L18.1727 59.3396L16.8619 61.1042L10.6918 56.5212L12.0026 54.7566Z" fill="#4568AD"/>
<path d="M16.9171 56.5802L19.0508 58.1651L17.9867 59.5976L15.853 58.0126L16.9171 56.5802Z" fill="#4568AD"/>
<path d="M32.5096 42.3919C34.54 42.6406 36.3876 41.1963 36.6363 39.166C36.8851 37.1356 35.4408 35.288 33.4104 35.0393C31.3801 34.7905 29.5325 36.2348 29.2837 38.2652C29.035 40.2955 30.4793 42.1431 32.5096 42.3919Z" fill="#818C9B"/>
<path d="M25.0288 33.8749L22.5975 31.5624L27.2763 26.6424L29.7077 28.9544L25.0288 33.8749Z" fill="#FBC11B"/>
<path d="M23.9303 34.4051C24.8671 34.3353 25.5699 33.5193 25.5001 32.5826C25.4303 31.6458 24.6143 30.943 23.6775 31.0128C22.7408 31.0826 22.038 31.8986 22.1078 32.8353C22.1776 33.7721 22.9935 34.4749 23.9303 34.4051Z" fill="#FBC11B"/>
<path d="M25.0957 27.7376L28.9762 31.2984L32.6611 27.2833C33.1208 26.7811 33.3627 26.1172 33.3337 25.437C33.3047 24.7568 33.0072 24.1158 32.5064 23.6546L32.4094 23.5678C31.9072 23.1081 31.2432 22.8663 30.563 22.8953C29.8829 22.9243 29.2419 23.2217 28.7807 23.7225L25.0957 27.7376Z" fill="#04A287"/>
<path d="M18.1109 34.2943L18.1773 30.9398L23.9248 31.0541L23.8585 34.4085L18.1109 34.2943Z" fill="#FBC11B"/>
<path d="M14.2937 32.4443L14.2899 32.5516C14.2832 32.8312 14.3317 33.1093 14.4325 33.3702C14.5334 33.631 14.6847 33.8695 14.8777 34.0718C15.0708 34.2742 15.3018 34.4365 15.5576 34.5495C15.8134 34.6625 16.089 34.724 16.3686 34.7305L17.5734 34.7564C17.853 34.7631 18.1312 34.7146 18.392 34.6138C18.6529 34.5129 18.8913 34.3616 19.0937 34.1686C19.296 33.9755 19.4583 33.7445 19.5714 33.4887C19.6844 33.2329 19.7459 32.9573 19.7523 32.6777L19.7561 32.5705C19.7628 32.2909 19.7144 32.0127 19.6135 31.7518C19.5127 31.491 19.3614 31.2526 19.1683 31.0502C18.9753 30.8478 18.7442 30.6855 18.4884 30.5725C18.2326 30.4595 17.957 30.398 17.6774 30.3915L16.4727 30.3657C16.193 30.3586 15.9146 30.4068 15.6536 30.5075C15.3926 30.6082 15.154 30.7595 14.9516 30.9526C14.7492 31.1457 14.5868 31.3769 14.4739 31.6329C14.3611 31.8889 14.2998 32.1646 14.2937 32.4443ZM32.138 17.5275L32.7586 22.3604L29.1306 23.2736L26.6038 13.9374L32.138 17.5275Z" fill="#FBC11B"/>
<path d="M32.4526 12.7439L32.4079 20.8662L27.1067 20.8769C24.6431 20.8841 22.676 18.8265 22.7904 16.3638L22.9313 13.3799C23.0583 10.6238 25.5422 8.5778 28.2696 8.97749L29.3548 9.13854C31.1435 9.4045 32.4632 10.938 32.4526 12.7439Z" fill="#FBC11B"/>
<path d="M32.6154 18.2556L30.1426 17.8028L30.0231 16.0652C30.0037 15.7777 29.9063 15.5009 29.7414 15.2646C29.5765 15.0283 29.3503 14.8414 29.0872 14.7239L28.4878 16.6356C27.9157 16.528 27.4352 16.1321 27.2258 15.5867L26.811 14.5012C26.7223 14.2696 26.5795 14.0625 26.3945 13.8973C26.2095 13.7321 25.9876 13.6136 25.7475 13.5516L22.9968 12.8447C22.9968 12.8447 23.0405 9.01089 26.831 8.567C27.4862 8.49277 28.1323 8.45487 28.7519 8.44183C31.6327 8.39212 33.8845 10.9153 33.5249 13.774C33.3271 15.2873 33.0232 16.7849 32.6154 18.2556Z" fill="#6D4C41"/>
<path d="M24.8819 15.2668C24.8753 15.6265 24.6246 15.9142 24.326 15.9057C24.0274 15.8972 23.7921 15.6015 23.8033 15.2424C23.81 14.8827 24.0606 14.595 24.3592 14.6035C24.6583 14.6074 24.8885 14.9071 24.8819 15.2668Z" fill="#C07B47"/>
<path d="M35.2959 38.6039L29.3911 39.2616C28.2616 39.3854 27.2469 38.5729 27.1179 37.4475L27.0045 26.6792C27.0273 24.9263 27.2437 21.9751 29.6023 21.7163L31.6434 21.4888C33.6747 21.2648 34.7876 23.5689 35.115 25.6737L37.1147 36.3313C37.1748 36.8738 37.0169 37.418 36.6759 37.8441C36.3348 38.2703 35.8385 38.5436 35.2959 38.6039Z" fill="#00BEA4"/>
<path d="M40.8374 30.3L38.8218 32.9829L33.3927 28.9047L35.4078 26.2221L40.8374 30.3Z" fill="#FBC11B"/>
<path d="M40.1446 33.3204C41.067 33.1429 41.6709 32.2512 41.4933 31.3287C41.3158 30.4063 40.424 29.8025 39.5016 29.98C38.5792 30.1576 37.9754 31.0493 38.1529 31.9717C38.3305 32.8941 39.2222 33.498 40.1446 33.3204Z" fill="#FBC11B"/>
<path d="M34.7313 30.9453L37.815 26.6787L33.4029 23.4835C32.8504 23.0853 32.1627 22.9225 31.4903 23.0305C30.818 23.1386 30.216 23.5088 29.8161 24.06L29.7426 24.1634C29.3444 24.7158 29.1815 25.4036 29.2896 26.0759C29.3977 26.7483 29.7679 27.3503 30.3191 27.7501L34.7313 30.9453Z" fill="#04A287"/>
<path d="M43.4396 36.5748L40.2919 37.7374L38.3002 32.3447L41.448 31.1821L43.4396 36.5748Z" fill="#FBC11B"/>
<path d="M43.1076 40.8017L43.2055 40.7669C43.4684 40.6708 43.7097 40.5239 43.9157 40.3344C44.1217 40.145 44.2882 39.9168 44.4059 39.6629C44.5235 39.4089 44.59 39.1343 44.6013 38.8547C44.6127 38.5751 44.5688 38.296 44.4721 38.0333L44.0578 36.9057C43.9618 36.6429 43.8148 36.4016 43.6254 36.1956C43.4359 35.9896 43.2077 35.8231 42.9538 35.7054C42.6999 35.5878 42.4253 35.5213 42.1456 35.51C41.866 35.4986 41.5869 35.5425 41.3243 35.6391L41.2264 35.674C40.9635 35.77 40.7222 35.917 40.5162 36.1064C40.3103 36.2959 40.1437 36.5241 40.026 36.778C39.9084 37.0319 39.842 37.3066 39.8306 37.5862C39.8192 37.8658 39.8631 38.1449 39.9598 38.4075L40.3741 39.5351C40.5695 40.0649 40.9669 40.4956 41.4793 40.733C41.9916 40.9704 42.5771 40.9951 43.1076 40.8017Z" fill="#FBC11B"/>
</g>
<defs>
<clipPath id="clip0_46_441">
<rect width="59.4836" height="59.4836" fill="white" transform="translate(7.2334) rotate(6.98476)"/>
</clipPath>
</defs>
</svg>
