<svg width="34" height="22" viewBox="0 0 34 22" fill="none" xmlns="http://www.w3.org/2000/svg">
<path d="M10.6455 22H0.895547V19.42L3.50555 18.22V4.36L0.895547 3.16V0.579999H10.6455V3.16L8.03555 4.36V18.22L10.6455 19.42V22ZM33.2857 22H27.5257L18.1957 5.8H18.0757C18.0957 6.3 18.1157 6.81 18.1357 7.33C18.1557 7.83 18.1757 8.34 18.1957 8.86C18.2357 9.36 18.2657 9.87 18.2857 10.39C18.3057 10.89 18.3257 11.4 18.3457 11.92V22H14.2957V0.579999H20.0257L29.3257 16.63H29.4157C29.3957 16.13 29.3757 15.64 29.3557 15.16C29.3357 14.66 29.3157 14.17 29.2957 13.69C29.2957 13.19 29.2857 12.7 29.2657 12.22C29.2457 11.72 29.2257 11.22 29.2057 10.72V0.579999H33.2857V22Z" fill="#FFBA35"/>
</svg>
