<svg width="55" height="14" viewBox="0 0 55 14" fill="none" xmlns="http://www.w3.org/2000/svg">
<path d="M10.78 8.626L8.932 8.444C9.352 6.106 9.366 4.37 9.366 2.886H1.736V1.416H11.214V2.662C11.214 4.244 11.214 6.022 10.78 8.626ZM8.05 10.166H12.278V11.65H0.602V10.166H3.052V6.092H4.872V10.166H6.244V6.092H8.05V10.166ZM15.8329 1.738V8.472C16.8409 8.444 17.9469 8.36 19.1789 8.136L19.3329 9.69C17.6529 9.998 16.1689 10.068 14.8809 10.068H13.9849V1.738H15.8329ZM22.7629 0.296H24.5269V13.19H22.7629V6.764H21.6009V12.588H19.8789V0.533999H21.6009V5.266H22.7629V0.296ZM37.8925 5.924L36.9965 7.38C35.5545 6.918 34.5605 6.008 33.9865 4.846C33.3985 6.092 32.3625 7.1 30.8505 7.59L29.9405 6.134C32.0965 5.448 33.0205 3.768 33.0205 2.13V0.897999H34.8965V2.13C34.8965 3.74 35.8065 5.28 37.8925 5.924ZM31.9145 10.026V8.556H40.7065V13.218H38.8445V10.026H31.9145ZM38.8445 0.309999H40.7065V7.996H38.8445V0.309999ZM50.1834 5.21L50.3654 6.68C48.7834 7.016 47.2994 7.086 44.4154 7.086H43.3234V1.178H49.1054V2.648H45.1574V5.602C47.4954 5.588 48.7834 5.504 50.1834 5.21ZM48.7974 11.734C50.4354 11.734 51.3454 11.37 51.3454 10.586C51.3454 9.816 50.4354 9.452 48.7974 9.452C47.1734 9.452 46.2634 9.816 46.2634 10.586C46.2634 11.37 47.1734 11.734 48.7974 11.734ZM48.7974 7.982C51.4714 7.982 53.1654 8.962 53.1654 10.586C53.1654 12.238 51.4714 13.218 48.7974 13.218C46.1514 13.218 44.4434 12.238 44.4434 10.586C44.4434 8.962 46.1514 7.982 48.7974 7.982ZM53.0534 3.362H54.7334V4.86H53.0534V7.758H51.1914V0.296H53.0534V3.362Z" fill="#191919"/>
</svg>
