<svg width="35" height="35" viewBox="0 0 35 35" fill="none" xmlns="http://www.w3.org/2000/svg">
<g clip-path="url(#clip0_46_372)">
<path d="M17.5016 35.0033C27.1675 35.0033 35.0033 27.1675 35.0033 17.5016C35.0033 7.83575 27.1675 0 17.5016 0C7.83575 0 0 7.83575 0 17.5016C0 27.1675 7.83575 35.0033 17.5016 35.0033Z" fill="#FFBA35"/>
<path d="M12.0525 22.9801C11.9938 22.5725 11.9188 22.0409 11.8536 21.5322H9.58069C9.74048 22.0735 9.93613 22.566 10.184 22.9801H12.0525Z" fill="white"/>
<path d="M29.5411 16.0897C29.5215 15.9071 29.3715 15.7668 29.1889 15.7668H27.9987C28.1193 14.7038 27.9889 13.5689 27.9041 13.0146C27.878 12.8352 27.7802 12.682 27.6334 12.5744C27.4867 12.47 27.3073 12.4309 27.128 12.4635C27.0823 12.4733 27.0367 12.4798 26.991 12.4896C26.6878 12.0004 26.241 11.6482 25.6964 11.4689C25.8627 10.6699 25.6182 9.84492 25.0312 9.25795C24.441 8.66771 23.6159 8.4264 22.817 8.59271C22.5594 7.81986 21.9398 7.22636 21.1343 7.01114C20.3289 6.79591 19.4941 6.99809 18.8843 7.53941C18.2745 6.99809 17.4396 6.79591 16.6342 7.01114C15.8287 7.22636 15.2059 7.81986 14.9515 8.59271C14.1526 8.4264 13.3276 8.67097 12.7373 9.25795C12.5775 9.41773 12.4438 9.59709 12.3362 9.78622L9.5318 7.06657C9.41114 6.94918 9.222 6.95244 9.10461 7.0731C8.98721 7.19375 8.99048 7.38289 9.11113 7.50028L12.0917 10.3928C12.0036 10.7417 11.9938 11.1102 12.0688 11.4721C11.8438 11.5471 11.6319 11.6548 11.4395 11.7885L7.57195 9.47317C7.42847 9.38838 7.24259 9.43404 7.15781 9.57752C7.07302 9.721 7.11868 9.90688 7.26216 9.99166L10.9731 12.2156C10.7481 12.483 10.5786 12.8026 10.484 13.1581C10.4481 13.295 10.4253 13.432 10.4123 13.5689H9.06548C9.04591 13.8592 9.02308 14.2309 9.00678 14.6646H9.82202C10.1546 14.6646 10.4253 14.9353 10.4253 15.2679C10.4253 15.6005 10.1546 15.8712 9.82202 15.8712H8.97743C8.97743 16.1419 8.97743 16.4256 8.98069 16.7158H9.81876C10.1514 16.7158 10.422 16.9864 10.422 17.3191C10.422 17.6517 10.1514 17.9223 9.81876 17.9223H9.02308C9.06874 18.7311 9.15352 19.5561 9.29375 20.3355H12.3819C12.6884 20.3355 12.946 20.567 12.9819 20.8735C13.0993 21.9333 13.3373 23.4856 13.3406 23.5019C13.3667 23.6747 13.3178 23.854 13.2036 23.9877C13.0895 24.1214 12.9232 24.1997 12.7471 24.1997H9.85137C9.65571 24.1997 9.46984 24.1051 9.35896 23.9454C8.34154 22.5007 7.94696 20.1202 7.81979 17.9289H6.95563C6.62301 17.9289 6.35235 17.6582 6.35235 17.3256C6.35235 16.993 6.62301 16.7223 6.95563 16.7223H7.77413C7.76761 16.4321 7.76761 16.1484 7.77087 15.8777H6.95889C6.62627 15.8777 6.35561 15.6071 6.35561 15.2744C6.35561 14.9418 6.62627 14.6712 6.95889 14.6712H7.80022C7.81653 14.244 7.83935 13.8722 7.85892 13.5755H6.2643C6.11104 13.5755 5.97408 13.6766 5.92842 13.8233C5.56972 14.9907 5.37732 16.2299 5.37732 17.518C5.37732 24.3432 10.8036 29.3977 17.4983 29.3977C24.1931 29.3977 29.6194 24.3465 29.6194 17.518C29.6194 17.0386 29.5933 16.5658 29.5411 16.0995V16.0897ZM15.4146 26.502C15.4244 26.5378 15.4276 26.577 15.4276 26.6128L15.4146 26.502ZM27.2356 13.0602C27.2552 13.057 27.2715 13.0635 27.2813 13.07C27.291 13.0765 27.3008 13.0896 27.3041 13.1092C27.3856 13.6472 27.5161 14.769 27.3889 15.7701H16.4614C16.2657 15.7701 16.1092 15.6103 16.1092 15.4114V15.1146C17.9125 14.769 23.6583 13.7157 27.2356 13.0635V13.0602ZM11.0742 13.3113C11.1558 13.0048 11.3058 12.7407 11.5047 12.5254L12.4732 13.1059C12.5221 13.1352 12.5743 13.1483 12.6265 13.1483C12.7275 13.1483 12.8286 13.0961 12.8841 13.0015C12.9689 12.8581 12.9232 12.6722 12.7797 12.5874L12.0264 12.1374C12.1732 12.0656 12.3297 12.0135 12.496 11.9809C12.5808 11.9646 12.6558 11.9124 12.7015 11.8341C12.7471 11.7558 12.7536 11.6678 12.7243 11.583C12.646 11.3547 12.6134 11.1265 12.6199 10.9015L13.4645 11.72C13.5232 11.7754 13.5982 11.8048 13.6732 11.8048C13.7482 11.8048 13.8298 11.7754 13.8885 11.7135C14.0058 11.5928 14.0026 11.4037 13.8819 11.2863L12.7797 10.2167C12.871 10.021 12.9949 9.84166 13.158 9.67861C13.6667 9.1699 14.3776 9.00685 15.0591 9.24164C15.1407 9.27099 15.232 9.26121 15.3102 9.21881C15.3852 9.17642 15.4407 9.10142 15.457 9.01337C15.5939 8.30574 16.0896 7.77094 16.7875 7.58507C17.4853 7.39919 18.1799 7.61116 18.6527 8.159C18.7114 8.22422 18.793 8.26335 18.881 8.26335C18.969 8.26335 19.0506 8.22422 19.1093 8.159C19.5821 7.61442 20.2767 7.39919 20.9745 7.58507C21.6724 7.77094 22.1681 8.30574 22.305 9.01337C22.3213 9.09816 22.3735 9.17316 22.4518 9.21881C22.5268 9.26121 22.6181 9.27099 22.7029 9.24164C23.3844 9.00359 24.0953 9.1699 24.604 9.67861C25.1127 10.1873 25.2758 10.8982 25.041 11.5798C25.0116 11.6613 25.0214 11.7526 25.0638 11.8309C25.1062 11.9091 25.1812 11.9613 25.2692 11.9776C25.7029 12.0591 26.0714 12.2809 26.3356 12.607C19.8071 13.8005 17.1755 14.2896 16.1092 14.4951V13.9211C16.1092 13.7222 15.9526 13.5624 15.757 13.5624H11.0253C11.0351 13.4776 11.0514 13.3929 11.0742 13.3081V13.3113Z" fill="white"/>
</g>
<defs>
<clipPath id="clip0_46_372">
<rect width="35" height="35" fill="white"/>
</clipPath>
</defs>
</svg>
