<svg width="89" height="41" viewBox="0 0 89 41" fill="none" xmlns="http://www.w3.org/2000/svg">
<path d="M24.2142 21.26C24.2142 22.92 24.0042 24.43 23.5842 25.79C23.1842 27.13 22.5642 28.29 21.7242 29.27C20.9042 30.25 19.8442 31 18.5442 31.52C17.2642 32.04 15.7542 32.3 14.0142 32.3C12.2742 32.3 10.7542 32.04 9.45422 31.52C8.17422 30.98 7.11422 30.23 6.27422 29.27C5.45422 28.29 4.83422 27.12 4.41422 25.76C4.01422 24.4 3.81422 22.89 3.81422 21.23C3.81422 19.01 4.17422 17.08 4.89422 15.44C5.63422 13.8 6.75422 12.53 8.25422 11.63C9.77422 10.71 11.7042 10.25 14.0442 10.25C16.3642 10.25 18.2742 10.71 19.7742 11.63C21.2742 12.53 22.3842 13.81 23.1042 15.47C23.8442 17.11 24.2142 19.04 24.2142 21.26ZM8.58422 21.26C8.58422 22.76 8.77422 24.05 9.15422 25.13C9.53422 26.21 10.1242 27.04 10.9242 27.62C11.7242 28.2 12.7542 28.49 14.0142 28.49C15.3142 28.49 16.3542 28.2 17.1342 27.62C17.9342 27.04 18.5142 26.21 18.8742 25.13C19.2542 24.05 19.4442 22.76 19.4442 21.26C19.4442 19 19.0242 17.23 18.1842 15.95C17.3442 14.67 15.9642 14.03 14.0442 14.03C12.7642 14.03 11.7242 14.32 10.9242 14.9C10.1242 15.48 9.53422 16.31 9.15422 17.39C8.77422 18.47 8.58422 19.76 8.58422 21.26ZM46.0812 24.44C46.0812 25.92 45.7512 27.26 45.0912 28.46C44.4512 29.64 43.4712 30.58 42.1512 31.28C40.8512 31.96 39.2012 32.3 37.2012 32.3C34.3612 32.3 32.2012 31.58 30.7212 30.14C29.2412 28.68 28.5012 26.76 28.5012 24.38V10.58H33.0312V23.69C33.0312 25.45 33.3912 26.69 34.1112 27.41C34.8312 28.13 35.9012 28.49 37.3212 28.49C38.3212 28.49 39.1312 28.32 39.7512 27.98C40.3712 27.64 40.8212 27.11 41.1012 26.39C41.4012 25.67 41.5512 24.76 41.5512 23.66V10.58H46.0812V24.44ZM59.577 32H55.047V14.36H49.227V10.58H65.397V14.36H59.577V32Z" fill="white"/>
<path d="M78 13L85 21L78 29" stroke="white" stroke-width="2" stroke-linecap="round" stroke-linejoin="round"/>
</svg>
