<svg width="55" height="14" viewBox="0 0 55 14" fill="none" xmlns="http://www.w3.org/2000/svg">
<path d="M10.78 8.626L8.932 8.444C9.352 6.106 9.366 4.37 9.366 2.886H1.736V1.416H11.214V2.662C11.214 4.244 11.214 6.022 10.78 8.626ZM8.05 10.166H12.278V11.65H0.602V10.166H3.052V6.092H4.872V10.166H6.244V6.092H8.05V10.166ZM15.8749 4.23C15.8749 5.238 16.6309 5.826 17.6249 5.826C18.6189 5.826 19.3749 5.238 19.3749 4.23C19.3749 3.222 18.6189 2.634 17.6249 2.634C16.6309 2.634 15.8749 3.222 15.8749 4.23ZM18.5489 7.31V9.032C19.5989 8.962 20.6769 8.878 21.6849 8.724L21.7969 10.054C19.0249 10.614 16.0009 10.642 13.7749 10.642L13.5369 9.144C14.4749 9.144 15.5669 9.144 16.7009 9.116V7.31C15.1609 6.974 14.0829 5.784 14.0829 4.23C14.0829 2.382 15.6089 1.052 17.6249 1.052C19.6409 1.052 21.1809 2.382 21.1809 4.23C21.1809 5.784 20.0889 6.974 18.5489 7.31ZM22.3849 0.296H24.2329V13.232H22.3849V0.296ZM37.8925 5.924L36.9965 7.38C35.5545 6.918 34.5605 6.008 33.9865 4.846C33.3985 6.092 32.3625 7.1 30.8505 7.59L29.9405 6.134C32.0965 5.448 33.0205 3.768 33.0205 2.13V0.897999H34.8965V2.13C34.8965 3.74 35.8065 5.28 37.8925 5.924ZM31.9145 10.026V8.556H40.7065V13.218H38.8445V10.026H31.9145ZM38.8445 0.309999H40.7065V7.996H38.8445V0.309999ZM50.1834 5.21L50.3654 6.68C48.7834 7.016 47.2994 7.086 44.4154 7.086H43.3234V1.178H49.1054V2.648H45.1574V5.602C47.4954 5.588 48.7834 5.504 50.1834 5.21ZM48.7974 11.734C50.4354 11.734 51.3454 11.37 51.3454 10.586C51.3454 9.816 50.4354 9.452 48.7974 9.452C47.1734 9.452 46.2634 9.816 46.2634 10.586C46.2634 11.37 47.1734 11.734 48.7974 11.734ZM48.7974 7.982C51.4714 7.982 53.1654 8.962 53.1654 10.586C53.1654 12.238 51.4714 13.218 48.7974 13.218C46.1514 13.218 44.4434 12.238 44.4434 10.586C44.4434 8.962 46.1514 7.982 48.7974 7.982ZM53.0534 3.362H54.7334V4.86H53.0534V7.758H51.1914V0.296H53.0534V3.362Z" fill="white"/>
</svg>
