<svg width="200" height="199" viewBox="0 0 200 199" fill="none" xmlns="http://www.w3.org/2000/svg">
<mask id="mask0_46_425" style="mask-type:alpha" maskUnits="userSpaceOnUse" x="0" y="0" width="200" height="199">
<rect width="200" height="199" rx="10" fill="#F6F6F6"/>
</mask>
<g mask="url(#mask0_46_425)">
<path d="M203.984 183.43C203.984 194.202 195.144 203 184.321 203H15.6625C4.85625 203 -4 194.202 -4 183.43V15.5695C-4 4.79819 4.84 -4 15.6625 -4H184.338C195.144 -4 204 4.79819 204 15.5695V183.43H203.984Z" fill="url(#paint0_linear_46_425)"/>
<mask id="mask1_46_425" style="mask-type:luminance" maskUnits="userSpaceOnUse" x="-4" y="-4" width="208" height="207">
<path d="M203.984 183.43C203.984 194.202 195.144 203 184.321 203H15.6625C4.85625 203 -4 194.202 -4 183.43V15.5695C-4 4.79819 4.84 -4 15.6625 -4H184.338C195.144 -4 204 4.79819 204 15.5695V183.43H203.984Z" fill="white"/>
</mask>
<g mask="url(#mask1_46_425)">
<path d="M9.9425 172.74H191.114V204.876H9.9425V172.74Z" fill="#2F2F2F"/>
<path d="M80.4837 141.041C80.4837 132.97 73.8537 126.372 65.745 126.372H24.6325C16.5237 126.372 9.89374 132.97 9.89374 141.041V190.191C9.89374 198.261 16.5237 204.86 24.6325 204.86H65.745C73.8537 204.86 80.4837 198.261 80.4837 190.191V141.041Z" fill="#2F2F2F"/>
<path d="M67.0938 149.435H135.571V204.876H67.0938V149.435Z" fill="#2F2F2F"/>
<path d="M191.032 100.511C191.032 92.4404 184.402 85.8418 176.294 85.8418H137.31C129.201 85.8418 122.571 92.4404 122.571 100.511V190.207C122.571 198.277 129.201 204.876 137.31 204.876H176.294C184.402 204.876 191.032 198.277 191.032 190.207V100.511Z" fill="#2F2F2F"/>
<path d="M148.457 113.983C148.457 116.199 146.637 118.026 144.411 118.026H139.666C137.44 118.026 135.62 116.215 135.62 113.983V106.495C135.62 104.279 137.44 102.468 139.666 102.468H144.411C146.637 102.468 148.457 104.295 148.457 106.495V113.983ZM180.129 115.455C180.129 116.199 178.309 118.01 176.082 118.01H171.337C169.111 118.01 167.275 116.199 167.275 113.967V106.479C167.275 104.263 169.095 102.452 171.337 102.452H176.082C178.309 102.452 180.129 104.279 180.129 105.007V115.455Z" fill="#FCC21B"/>
<path d="M180.129 140.232C180.129 140.976 178.309 142.787 176.082 142.787H171.337C169.111 142.787 167.275 140.976 167.275 138.76V131.272C167.275 129.056 169.095 127.229 171.337 127.229H176.082C178.309 127.229 180.129 129.056 180.129 129.784V140.232Z" fill="#F79329"/>
<path d="M162.79 162.648C162.79 163.392 160.97 165.203 158.744 165.203H153.999C151.773 165.203 149.936 163.392 149.936 161.176V153.688C149.936 151.472 151.756 149.645 153.999 149.645H158.744C160.97 149.645 162.79 151.456 162.79 152.2V162.648ZM34.025 161.322C34.025 163.538 32.205 165.365 29.9625 165.365H25.2338C24.1563 165.365 23.123 164.939 22.3611 164.181C21.5993 163.423 21.1713 162.394 21.1713 161.322V153.834C21.1713 151.618 22.9913 149.807 25.2338 149.807H29.9625C32.1888 149.807 34.025 151.618 34.025 153.834V161.322Z" fill="#FCC21B"/>
<path d="M52.0787 161.322C52.0787 163.538 50.2587 165.365 48.0162 165.365H43.2875C42.21 165.365 41.1767 164.939 40.4149 164.181C39.653 163.423 39.225 162.394 39.225 161.322V153.834C39.225 151.618 41.045 149.807 43.2875 149.807H48.0162C50.2425 149.807 52.0787 151.618 52.0787 153.834V161.322Z" fill="#F79329"/>
<path d="M70.1325 161.322C70.1325 163.538 68.3125 165.365 66.07 165.365H61.3412C60.2638 165.365 59.2305 164.939 58.4686 164.181C57.7068 163.423 57.2787 162.394 57.2787 161.322V153.834C57.2787 151.618 59.0987 149.807 61.3412 149.807H66.07C68.2962 149.807 70.1325 151.618 70.1325 153.834V161.322Z" fill="#FCC21B"/>
</g>
</g>
<defs>
<linearGradient id="paint0_linear_46_425" x1="99.9919" y1="-2.96977" x2="99.9919" y2="202.339" gradientUnits="userSpaceOnUse">
<stop stop-color="#FD9C42"/>
<stop offset="0.359375" stop-color="#FD9C42"/>
<stop offset="0.895833" stop-color="#FFD45A"/>
</linearGradient>
</defs>
</svg>
