<svg width="480" height="150" viewBox="0 0 480 150" fill="none" xmlns="http://www.w3.org/2000/svg">
<rect width="480" height="150" fill="#F6F6F6"/>
<path d="M36.356 89.772V94.42C40.276 94.392 43.524 94.196 47.164 93.58L47.556 96.576C43.356 97.304 39.576 97.472 34.9 97.472H32.576V86.86H40.948V82.744H32.548V79.804H44.728V89.772H36.356ZM48.956 77.592H52.652V103.464H48.956V77.592ZM73.9018 86.86V84.284H63.2898V86.86H73.9018ZM77.5418 78.544V89.8H59.6218V78.544H63.2898V81.372H73.9018V78.544H77.5418ZM80.3138 92.236V95.204H75.1058V103.436H71.3818V95.204H65.8658V103.436H62.1698V95.204H56.9618V92.236H80.3138ZM98.9811 82.688V89.996H104.245V82.688H98.9811ZM103.461 97.528H113.345V100.496H89.9931V97.528H99.7651V92.936H91.9531V89.996H95.3131V82.688H91.8131V79.748H111.413V82.688H107.913V89.996H111.329V92.936H103.461V97.528ZM137.171 77.648V96.156H133.447V77.648H137.171ZM119.727 85.824C119.727 87.896 121.239 89.156 123.143 89.156C125.075 89.156 126.531 87.896 126.531 85.824C126.531 83.696 125.075 82.464 123.143 82.464C121.239 82.464 119.727 83.696 119.727 85.824ZM130.143 85.824C130.143 89.576 127.091 92.348 123.143 92.348C119.195 92.348 116.115 89.576 116.115 85.824C116.115 82.016 119.195 79.272 123.143 79.272C127.091 79.272 130.143 82.016 130.143 85.824ZM123.703 100.02H137.815V102.96H120.007V94.336H123.703V100.02ZM162.369 90.92V93.832H144.253V79.496H162.173V82.464H148.005V85.18H161.585V88.036H148.005V90.92H162.369ZM141.509 97.444H164.861V100.44H141.509V97.444ZM184.508 83.136V84.564C184.508 88.764 186.58 93.216 190.892 95.008L188.876 97.92C185.88 96.632 183.836 94.112 182.688 91.004C181.54 94.364 179.468 97.192 176.444 98.564L174.344 95.624C178.656 93.692 180.756 88.96 180.756 84.564V83.136H175.38V80.084H189.828V83.136H184.508ZM192.208 77.62H195.904V103.408H192.208V77.62ZM217.154 100.16V97.836H206.738V100.16H217.154ZM217.154 94.98V92.292H220.85V103.128H203.07V92.292H206.738V94.98H217.154ZM220.346 87.672H223.65V90.64H200.298V87.672H216.678C217.182 85.236 217.266 83.304 217.266 81.596H203.182V78.656H220.906V80.728C220.906 82.744 220.906 84.788 220.346 87.672Z" fill="#FFBA35"/>
<path d="M36.8 51.04V48.704H32.736V51.04H36.8ZM38.08 45.552V52.08H31.44V45.552H32.736V47.68H36.8V45.552H38.08ZM40.688 57.936V56.128H34.24V57.936H40.688ZM40.688 55.088V53.376H41.984V58.992H32.944V53.376H34.24V55.088H40.688ZM44.112 48.128V49.232H41.984V52.72H40.672V44.832H41.984V48.128H44.112ZM53.3428 58H45.2628V56.768L51.1188 48.064H45.4388V46.576H53.1988V47.808L47.3428 56.512H53.3428V58ZM58.9463 58H54.5143V57.008L55.8743 56.608V47.984L54.5143 47.568V46.576H58.9463V47.568L57.6023 47.984V56.608L58.9463 57.008V58ZM64.2825 46.576C65.7758 46.576 66.8638 46.88 67.5465 47.488C68.2292 48.0853 68.5705 48.9227 68.5705 50C68.5705 50.48 68.4905 50.9387 68.3305 51.376C68.1812 51.8133 67.9305 52.208 67.5785 52.56C67.2265 52.9013 66.7572 53.1733 66.1705 53.376C65.5945 53.568 64.8852 53.664 64.0425 53.664H62.8105V58H61.0825V46.576H64.2825ZM64.1545 48.032H62.8105V52.208H63.8505C64.5012 52.208 65.0452 52.1387 65.4825 52C65.9198 51.8507 66.2452 51.6213 66.4585 51.312C66.6825 50.992 66.7945 50.576 66.7945 50.064C66.7945 49.3813 66.5812 48.8747 66.1545 48.544C65.7385 48.2027 65.0718 48.032 64.1545 48.032ZM73.4554 54.816C74.5754 54.816 75.3114 53.36 75.3114 51.008C75.3114 48.704 74.5754 47.248 73.4554 47.248C72.3034 47.248 71.5834 48.704 71.5834 51.008C71.5834 53.36 72.3034 54.816 73.4554 54.816ZM78.3034 50.416V45.152H79.5514V58.48H78.3034V51.488H76.4954C76.3834 54.304 75.2154 56.032 73.4554 56.032C71.5834 56.032 70.3834 54.112 70.3834 51.008C70.3834 47.952 71.5834 46.032 73.4554 46.032C75.1834 46.032 76.3354 47.712 76.4954 50.416H78.3034ZM81.1514 44.832H82.3994V59.184H81.1514V44.832ZM89.9501 46.064V48.64C89.9501 51.248 91.5821 53.856 93.6621 54.848L92.8941 55.888C91.2621 55.072 89.9501 53.36 89.2941 51.344C88.6701 53.472 87.3421 55.28 85.7261 56.144L84.9261 55.104C87.0061 54.064 88.6381 51.296 88.6381 48.64V46.064H89.9501ZM95.4381 44.832H96.7501V59.2H95.4381V50.768H92.1101V49.696H95.4381V44.832ZM114.233 44.832H115.545V59.216H114.233V44.832ZM107.977 45.936C110.105 45.936 111.625 47.888 111.625 50.944C111.625 54 110.105 55.952 107.977 55.952C105.849 55.952 104.329 54 104.329 50.944C104.329 47.888 105.849 45.936 107.977 45.936ZM107.977 47.12C106.569 47.12 105.577 48.624 105.577 50.944C105.577 53.28 106.569 54.784 107.977 54.784C109.369 54.784 110.361 53.28 110.361 50.944C110.361 48.624 109.369 47.12 107.977 47.12ZM125 58.16C127.24 58.16 128.584 57.6 128.584 56.624C128.584 55.648 127.24 55.088 125 55.088C122.744 55.088 121.416 55.648 121.416 56.624C121.416 57.6 122.744 58.16 125 58.16ZM125 54.064C128.088 54.064 129.912 54.976 129.912 56.624C129.912 58.272 128.088 59.168 125 59.168C121.928 59.168 120.088 58.272 120.088 56.624C120.088 54.976 121.928 54.064 125 54.064ZM123.016 50.256V51.936H127V50.256C126.408 50.352 125.736 50.416 125 50.416C124.28 50.416 123.608 50.352 123.016 50.256ZM121.304 47.76C121.304 48.784 122.712 49.408 125 49.408C127.288 49.408 128.696 48.784 128.696 47.76C128.696 46.72 127.288 46.112 125 46.112C122.712 46.112 121.304 46.72 121.304 47.76ZM128.296 51.936H131.496V52.992H118.504V51.936H121.72V49.92C120.584 49.456 119.96 48.736 119.96 47.76C119.96 46.08 121.896 45.088 125 45.088C128.12 45.088 130.04 46.08 130.04 47.76C130.04 48.72 129.4 49.456 128.296 49.904V51.936ZM146.051 51.584L145.395 52.624C143.747 52.032 142.451 50.8 141.811 49.216C141.187 50.912 139.875 52.24 138.195 52.88L137.523 51.84C139.683 51.056 141.139 49.056 141.139 46.912V45.504H142.451V46.912C142.451 48.976 143.923 50.848 146.051 51.584ZM139.571 55.264V54.208H149.171V59.2H147.859V55.264H139.571ZM147.859 44.848H149.171V53.472H147.859V44.848ZM160.434 50.656L160.578 51.728C158.61 52.128 156.898 52.224 153.874 52.224H152.754V45.936H159.09V46.992H154.05V51.152C156.898 51.152 158.546 51.056 160.434 50.656ZM158.69 58.112C160.802 58.112 162.114 57.472 162.114 56.416C162.114 55.36 160.802 54.72 158.69 54.72C156.562 54.72 155.25 55.36 155.25 56.416C155.25 57.472 156.562 58.112 158.69 58.112ZM158.69 53.664C161.586 53.664 163.41 54.688 163.41 56.416C163.41 58.144 161.586 59.168 158.69 59.168C155.778 59.168 153.954 58.144 153.954 56.416C153.954 54.688 155.778 53.664 158.69 53.664ZM163.266 48.56H165.378V49.648H163.266V53.376H161.938V44.832H163.266V48.56ZM173.133 51.28V54.64C175.485 54.64 177.597 54.528 180.109 54.128L180.237 55.2C177.645 55.632 175.469 55.728 173.005 55.728H171.821V50.224H177.101V47.232H171.773V46.16H178.429V51.28H173.133ZM181.453 44.816H182.765V59.2H181.453V44.816ZM195.755 50.448V48.368H188.635V50.448H195.755ZM197.067 45.392V51.504H187.339V45.392H188.635V47.312H195.755V45.392H197.067ZM198.715 53.216V54.288H195.419V59.184H194.107V54.288H190.283V59.184H188.971V54.288H185.691V53.216H198.715ZM212.918 51.856L212.246 52.88C210.646 52.32 209.414 51.152 208.79 49.68C208.182 51.28 206.886 52.544 205.206 53.168L204.518 52.128C206.678 51.376 208.118 49.52 208.118 47.472V46.896H204.902V45.84H212.598V46.896H209.43V47.456C209.43 49.36 210.806 51.136 212.918 51.856ZM206.374 55.312V54.256H215.718V59.2H214.406V55.312H206.374ZM217.846 48.608V49.696H215.718V53.488H214.406V44.848H215.718V48.608H217.846ZM229.797 53.328V48.96H226.677V47.888H229.797V44.848H231.125V53.328H229.797ZM227.717 51.632L227.013 52.656C225.445 52.064 224.229 50.928 223.605 49.44C222.997 51.136 221.701 52.432 219.973 53.088L219.285 52.016C221.493 51.232 222.917 49.312 222.917 47.12V45.648H224.229V47.072C224.229 49.12 225.621 50.896 227.717 51.632ZM226.389 58.128C228.549 58.128 229.861 57.504 229.861 56.464C229.861 55.408 228.549 54.784 226.389 54.784C224.229 54.784 222.917 55.408 222.917 56.464C222.917 57.504 224.229 58.128 226.389 58.128ZM226.389 53.76C229.333 53.76 231.173 54.736 231.173 56.464C231.173 58.176 229.333 59.168 226.389 59.168C223.445 59.168 221.605 58.176 221.605 56.464C221.605 54.736 223.445 53.76 226.389 53.76ZM243.264 46.08V48.656C243.264 51.28 244.976 53.92 247.104 54.88L246.32 55.936C244.688 55.136 243.312 53.44 242.624 51.392C241.968 53.552 240.592 55.344 238.912 56.208L238.112 55.136C240.224 54.128 241.968 51.376 241.968 48.656V46.08H243.264ZM248.608 44.832H249.92V59.216H248.608V44.832ZM255.263 56.32C255.167 56.6933 255.044 57.0987 254.895 57.536C254.746 57.9733 254.586 58.4053 254.415 58.832C254.244 59.2693 254.068 59.68 253.887 60.064H252.655C252.762 59.648 252.863 59.2053 252.959 58.736C253.066 58.2773 253.162 57.824 253.247 57.376C253.332 56.928 253.402 56.5173 253.455 56.144H255.151L255.263 56.32Z" fill="#191919"/>
<g clip-path="url(#clip0_55_973)">
<path d="M333.006 121.454V37.9142C333.006 37.3245 333.24 36.759 333.657 36.3421C334.074 35.9252 334.64 35.6909 335.229 35.6909H399.93C400.519 35.6909 401.085 35.9252 401.502 36.3421C401.919 36.759 402.153 37.3245 402.153 37.9142V121.454C402.153 122.044 401.919 122.61 401.502 123.026C401.085 123.443 400.519 123.678 399.93 123.678H335.237C334.009 123.678 333.006 122.682 333.006 121.454Z" fill="#B0BEC5"/>
<path d="M331.008 119.449V35.9088C331.008 35.3192 331.242 34.7537 331.659 34.3367C332.076 33.9198 332.642 33.6855 333.231 33.6855H397.924C398.514 33.6855 399.08 33.9198 399.497 34.3367C399.913 34.7537 400.148 35.3192 400.148 35.9088V119.449C400.148 120.039 399.913 120.604 399.497 121.021C399.08 121.438 398.514 121.672 397.924 121.672H333.231C332.003 121.68 331.008 120.677 331.008 119.449Z" fill="#E0E0E0"/>
<path d="M340.758 52.8162H390.404M340.758 63.9035H390.404M340.758 74.9836H390.404M340.758 86.0709H390.404M340.758 97.1583H361.989" stroke="#616161" stroke-width="3.63281" stroke-miterlimit="10" stroke-linecap="round" stroke-linejoin="round"/>
<path d="M392.434 52.0919L397.33 47.1956L401.507 51.3726L396.611 56.2689L392.434 52.0919Z" fill="#EEEEEE"/>
<path d="M396.609 56.2647L401.504 51.3691L407.413 57.2768L402.516 62.1731L396.609 56.2647Z" fill="#C5C5C5"/>
<path d="M402.519 62.1756L407.415 57.2786L411.592 61.4563L406.695 66.3519L402.519 62.1756Z" fill="#E0E0E0"/>
<path d="M407.384 41.7433C406.773 41.1326 405.945 40.7896 405.081 40.7896C404.217 40.7896 403.389 41.1326 402.778 41.7433L397.336 47.1852L401.514 51.363L409.266 43.6105L407.384 41.7433Z" fill="#E95F5D"/>
<path d="M417.04 51.3992L415.166 49.5247L407.413 57.2771L411.591 61.4548L417.033 56.0129C418.312 54.7341 418.312 52.6707 417.04 51.3992Z" fill="#D64545"/>
<path d="M401.509 51.3686L409.262 43.6162L415.17 49.5239L407.418 57.2763L401.509 51.3686Z" fill="#DF4C49"/>
<path d="M370.686 82.1911L396.609 56.2673L392.432 52.0896L366.508 78.0206L365.098 82.8886C365.432 83.2228 366.159 83.5498 369.661 82.1838C370.264 81.9513 370.649 82.1693 370.678 82.1838L370.686 82.1911Z" fill="#FFD05F"/>
<path d="M363.812 93.0603C363.82 93.0675 363.82 93.0893 363.827 93.1038L363.849 93.0748C363.849 93.0748 363.82 93.0603 363.812 93.0603Z" fill="#F59252"/>
<path d="M370.686 82.1982L363.841 93.0749L363.82 93.1039C363.841 93.1766 363.856 93.2856 363.798 93.4309C363.282 94.8114 363.413 95.102 363.551 95.2328C363.682 95.3636 363.972 95.5016 365.353 94.9857C365.498 94.9276 365.607 94.9422 365.68 94.964L365.709 94.9422L376.585 88.0979L370.686 82.1982Z" fill="#F59252"/>
<path d="M365.868 96.6059C365.805 96.5901 365.747 96.5574 365.701 96.5115C365.6 96.4097 365.476 96.1918 365.752 95.2327C365.788 95.0947 365.752 95.0075 365.73 94.9711C365.723 94.9639 365.701 94.9639 365.687 94.9566C365.579 94.9251 365.463 94.9328 365.36 94.9784C363.979 95.4943 363.689 95.3635 363.558 95.2254C363.427 95.0947 363.289 94.804 363.805 93.4236C363.863 93.2783 363.849 93.1693 363.827 93.0966C363.819 93.0821 363.819 93.0603 363.812 93.053C363.776 93.0312 363.689 92.9949 363.551 93.0312C362.599 93.3073 362.381 93.1911 362.272 93.0821C362.226 93.0359 362.193 92.9782 362.177 92.915V92.9077L361.051 96.7948C360.884 97.3688 361.415 97.8992 361.989 97.7321L365.868 96.6059ZM365.868 96.6059C365.876 96.6059 365.876 96.6059 365.868 96.6059V96.6059Z" fill="#333333"/>
<path d="M365.729 94.9775C365.722 94.9705 365.715 94.9495 365.715 94.9495L365.687 94.9705C365.701 94.9705 365.722 94.9705 365.729 94.9775Z" fill="#F59252"/>
<path d="M365.868 96.6059H365.876L367.045 96.2717L367.038 96.2644L365.868 96.6059Z" fill="#E5823B"/>
<path d="M376.593 88.105L365.716 94.9492L365.767 95.0001C365.767 95.0001 365.752 94.9928 365.73 94.9855C365.752 95.0219 365.789 95.109 365.752 95.2471C365.476 96.1989 365.592 96.4169 365.701 96.5258C365.738 96.5622 365.789 96.5985 365.869 96.6203L367.038 96.2788L380.77 92.29L376.593 88.105Z" fill="#E5823B"/>
<path d="M365.766 94.9923L365.716 94.9421C365.716 94.9421 365.723 94.9636 365.73 94.9708C365.752 94.9852 365.766 94.9923 365.766 94.9923Z" fill="#E5823B"/>
<path d="M370.686 82.1982C370.686 82.1982 370.286 81.9439 369.654 82.1909C366.152 83.5569 365.418 83.2227 365.091 82.8957L362.519 91.7525L362.177 92.9223C362.199 93.0022 362.236 93.0531 362.272 93.0894C362.374 93.1911 362.592 93.3146 363.551 93.0385C363.689 93.0022 363.776 93.0385 363.812 93.0603C363.805 93.0385 363.798 93.024 363.798 93.024L363.849 93.0749L370.686 82.1982Z" fill="#F9A371"/>
<path d="M363.848 93.0741L363.798 93.0239C363.798 93.0239 363.805 93.0383 363.812 93.0598C363.819 93.0598 363.848 93.0741 363.848 93.0741Z" fill="#F9A371"/>
<path d="M396.609 56.2673L370.686 82.1983L376.593 88.1053L402.524 62.1743L396.609 56.2673ZM370.686 82.1983C370.686 82.1983 370.991 82.6779 370.715 83.419C369.16 87.5531 369.567 88.425 369.966 88.8246C370.366 89.2242 371.238 89.6311 375.372 88.0762C376.113 87.8001 376.593 88.1053 376.593 88.1053L373.643 85.1555L370.686 82.1983Z" fill="#FFBF24"/>
<path d="M402.516 62.1743L376.585 88.1053L380.763 92.2831L406.694 66.3521L402.516 62.1743ZM376.585 88.1053C376.585 88.1053 376.84 88.5049 376.593 89.1371C375.227 92.6391 375.561 93.3729 375.888 93.6999L380.763 92.2831L379.034 90.5538L376.585 88.1053Z" fill="#EBA81B"/>
</g>
<g clip-path="url(#clip1_55_973)">
<path d="M387.462 23.5999C390.814 21.229 392.89 18.498 394.026 16.6699C395.162 18.498 397.238 21.2262 400.591 23.5999C397.241 25.9709 395.162 28.699 394.026 30.5271C392.893 28.7018 390.814 25.9709 387.462 23.5999ZM409.056 34.0174C408.353 33.1287 407.217 31.9474 405.535 30.859C407.217 29.7705 408.35 28.5893 409.056 27.7005C409.759 28.5893 410.896 29.7705 412.575 30.859C410.896 31.9474 409.762 33.1287 409.056 34.0174ZM399.918 42.0499C399.172 40.9551 398.266 39.9786 397.23 39.153C398.462 38.1715 399.333 37.114 399.918 36.2534C400.503 37.1112 401.375 38.1715 402.607 39.153C401.571 39.9786 400.665 40.9551 399.918 42.0499Z" fill="#FCC21B"/>
<path d="M395.134 33.5196C395.157 33.4662 397.41 28.2153 403.403 24.6293L405.124 23.6L403.403 22.5678C397.41 18.9846 395.157 13.7337 395.137 13.6831L394.035 11.0225L392.921 13.6803C392.898 13.7337 390.646 18.9846 384.652 22.5706L382.928 23.6L384.649 24.6293C390.643 28.2153 392.896 33.4662 392.918 33.5196L394.021 36.1746L395.134 33.5196ZM387.462 23.6C390.814 21.229 392.89 18.4981 394.026 16.67C395.162 18.4981 397.238 21.2262 400.591 23.6C397.241 25.9709 395.162 28.699 394.026 30.5271C392.893 28.7018 390.814 25.9709 387.462 23.6ZM415.165 29.9168C411.419 28.0662 410.007 25.3803 409.996 25.3578L409.065 23.5128L408.12 25.355C408.106 25.3803 406.694 28.0662 402.947 29.9196L401.041 30.8618L402.947 31.804C406.685 33.6518 408.1 36.3265 408.12 36.3687L409.048 38.2109L409.993 36.3687C410.007 36.3434 411.419 33.6575 415.165 31.804L417.072 30.8618L415.165 29.9168ZM409.056 34.0175C408.353 33.1287 407.217 31.9475 405.535 30.859C407.217 29.7706 408.35 28.5893 409.056 27.7006C409.759 28.5893 410.896 29.7706 412.575 30.859C410.896 31.9475 409.762 33.1287 409.056 34.0175ZM400.894 33.7306L399.93 31.3287L398.948 33.7278C398.937 33.7531 397.815 36.4306 394.859 38.2587L393.413 39.1531L394.859 40.0446C397.801 41.8643 398.926 44.5221 398.948 44.5756L399.913 46.9746L400.894 44.5756C400.906 44.5475 402.025 41.8728 404.984 40.0446L406.429 39.1531L404.984 38.2587C402.025 36.4306 400.903 33.7559 400.894 33.7306ZM399.918 42.05C399.172 40.9552 398.266 39.9786 397.23 39.1531C398.462 38.1715 399.333 37.114 399.918 36.2534C400.503 37.1112 401.375 38.1715 402.607 39.1531C401.571 39.9786 400.665 40.9552 399.918 42.05Z" fill="#F79329"/>
</g>
<g clip-path="url(#clip2_55_973)">
<path d="M444.635 99.9234C442.268 96.4758 437.375 101.55 428.445 102.581C425.139 102.962 422.159 105.723 418.319 105.46C416.744 105.352 414.545 100.821 412.898 101.543C412.051 101.915 411.663 103.157 412.533 104.091L422.202 115.628C422.202 115.628 422.694 116.194 424.349 115.802C424.757 115.922 430.89 113.464 434.435 108.545C435.284 107.367 436.296 106.386 437.344 105.566C440.746 103.051 444.444 102.175 444.444 102.175C444.917 101.784 445.027 101.369 445.002 101.009C445.033 100.407 444.635 99.9234 444.635 99.9234Z" fill="#5C913B"/>
<path d="M422.52 94.4179C419.052 99.2304 412.979 101.51 412.979 101.51C411.846 102.47 412.803 103.601 412.803 103.601L422.371 114.93C422.371 114.93 422.85 115.496 424.461 115.103C424.461 115.103 430.534 112.828 434.001 108.016C437.575 103.057 444.02 101.491 444.02 101.491C445.152 100.531 444.196 99.3981 444.196 99.3981L434.628 88.0709C434.628 88.0709 434.149 87.5044 432.538 87.8949C432.538 87.8949 426.094 89.4569 422.52 94.4179Z" fill="#A7D28B"/>
<path d="M432.167 102.875C434.951 102.875 437.208 100.618 437.208 97.8334C437.208 95.049 434.951 92.7917 432.167 92.7917C429.382 92.7917 427.125 95.049 427.125 97.8334C427.125 100.618 429.382 102.875 432.167 102.875Z" fill="#77B255"/>
<path d="M423.8 114.268C422.993 114.268 422.697 113.968 422.656 113.922L414.031 103.854C414.015 103.835 413.578 103.334 413.631 102.698C413.663 102.312 413.863 101.968 414.224 101.676L414.282 101.641C414.338 101.619 419.931 99.3202 423.066 95.165C426.383 90.7687 432.103 88.8822 432.16 88.8638C433.76 88.4917 434.283 89.0233 434.339 89.0857L442.85 99.2093C442.866 99.2258 443.302 99.7282 443.249 100.365C443.217 100.75 443.017 101.094 442.656 101.386L442.565 101.431C442.509 101.445 436.947 102.827 433.725 107.097C430.518 111.351 424.919 114.102 424.863 114.129C424.437 114.23 424.087 114.268 423.8 114.268ZM423.002 113.62C423.003 113.62 423.416 114.002 424.711 113.701C424.719 113.691 430.22 110.986 433.361 106.822C436.512 102.647 441.817 101.155 442.406 101C442.641 100.798 442.772 100.573 442.793 100.332C442.831 99.8922 442.507 99.5137 442.504 99.51L433.993 89.3854C433.991 89.3854 433.58 89.005 432.284 89.3057C432.246 89.3185 426.66 91.1628 423.433 95.4409C420.347 99.5302 414.964 101.853 414.488 102.053C414.242 102.259 414.108 102.489 414.087 102.736C414.051 103.172 414.373 103.549 414.376 103.552L423.002 113.62Z" fill="#5C913B"/>
<path d="M431.503 105.319L431.497 110.764L431.953 111.305C432.841 110.494 433.695 109.583 434.433 108.558C435.174 107.537 436.046 106.617 437.025 105.821L436.582 105.294L431.503 105.319Z" fill="#FFAC33"/>
<path d="M436.565 105.275L425.101 91.6963C424.17 92.4626 423.275 93.3564 422.514 94.4133C421.771 95.4455 420.905 96.3539 420.007 97.155L421.347 98.7418L421.346 98.7427L431.498 110.764C432.428 109.939 433.266 109.016 433.996 108.011C434.757 106.955 435.651 106.062 436.581 105.296L436.565 105.275Z" fill="#FFE8B6"/>
<path d="M425.272 105.676C423.845 103.985 420.824 106.728 419.962 105.708C419.545 105.214 419.814 104.573 420.362 104.111C421.283 103.332 421.948 103.785 422.365 103.432C422.661 103.183 422.645 102.878 422.469 102.668C422.06 102.185 421.015 102.437 420.203 102.906L419.808 102.439C419.688 102.305 419.521 102.224 419.342 102.211C419.162 102.199 418.986 102.257 418.848 102.372C418.711 102.488 418.624 102.653 418.606 102.832C418.588 103.01 418.641 103.189 418.752 103.33L419.161 103.815C418.54 104.638 418.33 105.731 419.064 106.599C420.435 108.221 423.494 105.524 424.457 106.665C424.79 107.061 424.697 107.816 423.995 108.408C422.942 109.298 421.989 108.881 421.561 109.242C421.352 109.417 421.314 109.751 421.537 110.016C421.892 110.435 423.022 110.345 424.108 109.669C424.11 109.67 424.11 109.672 424.11 109.674L424.557 110.202C424.614 110.275 424.686 110.335 424.767 110.379C424.848 110.423 424.938 110.451 425.03 110.46C425.122 110.469 425.215 110.46 425.304 110.432C425.392 110.405 425.474 110.36 425.545 110.3C425.616 110.24 425.674 110.167 425.716 110.084C425.757 110.002 425.782 109.912 425.789 109.819C425.795 109.727 425.783 109.634 425.753 109.546C425.723 109.459 425.675 109.378 425.613 109.309L425.167 108.781C425.162 108.776 425.155 108.772 425.15 108.767C425.882 107.87 426.13 106.688 425.272 105.676Z" fill="#5C913B"/>
<path d="M441.751 114.872C441.76 114.865 441.769 114.86 441.777 114.853C441.839 114.791 441.888 114.719 441.943 114.651C441.981 114.603 442.024 114.557 442.06 114.508C442.092 114.463 442.119 114.416 442.148 114.369C443.45 112.364 442.597 108.965 440.021 106.388C437.443 103.81 434.043 102.958 432.039 104.26C431.992 104.289 431.945 104.315 431.899 104.348C431.85 104.384 431.804 104.427 431.758 104.465C431.69 104.52 431.618 104.568 431.555 104.631C431.547 104.64 431.541 104.649 431.535 104.657C431.525 104.667 431.513 104.674 431.502 104.685L431.508 104.689C430.591 105.663 430.58 107.169 431.502 108.092C432.426 109.016 433.931 109.003 434.906 108.086L434.916 108.097C434.896 108.116 434.875 108.128 434.857 108.146C433.886 109.117 433.863 110.665 434.803 111.606C435.743 112.546 437.294 112.523 438.263 111.552C438.282 111.534 438.294 111.513 438.312 111.494L438.322 111.505C437.405 112.478 437.393 113.984 438.317 114.908C439.241 115.83 440.746 115.819 441.719 114.903L441.725 114.908C441.734 114.895 441.741 114.883 441.751 114.872Z" fill="#E1E8ED"/>
<path d="M431.504 108.129C432.334 108.958 433.632 109.026 434.593 108.368C434.996 107.68 435.111 107.027 435.111 106.822C433.088 108.331 431.282 106.831 430.878 105.933C430.71 106.709 430.914 107.537 431.504 108.129ZM438.195 111.649C438.468 111.264 438.68 110.893 438.779 110.642C437.491 111.823 435.029 110.958 434.282 109.086C433.954 109.956 434.122 110.959 434.806 111.643C435.724 112.562 437.22 112.554 438.195 111.649ZM441.728 114.944L441.754 114.911C441.763 114.904 441.772 114.898 441.78 114.891C441.843 114.828 441.892 114.757 441.946 114.689C441.985 114.641 442.027 114.596 442.063 114.546C442.096 114.501 442.123 114.454 442.152 114.407C442.212 114.315 442.244 114.207 442.294 114.11C439.977 115.147 438.247 113.387 437.762 112.51C437.492 113.351 437.668 114.292 438.32 114.946C439.242 115.869 440.748 115.858 441.722 114.94L441.728 114.944Z" fill="#CCD6DD"/>
<path d="M424.793 96.4567L424.819 96.4365C424.882 96.3742 424.931 96.3027 424.985 96.2348C425.023 96.1872 425.065 96.1422 425.101 96.0927C425.134 96.0469 425.161 96.0002 425.19 95.9534C426.492 93.9487 425.638 90.5487 423.061 87.972C420.484 85.3943 417.085 84.5409 415.08 85.8426C415.033 85.8719 414.986 85.8985 414.94 85.9315C414.89 85.9672 414.845 86.0094 414.798 86.0479C414.73 86.1029 414.658 86.1506 414.596 86.2138C414.588 86.2221 414.582 86.2322 414.576 86.2395C414.566 86.2487 414.553 86.2569 414.543 86.267L414.547 86.2716C413.631 87.2451 413.62 88.7512 414.543 89.6742C415.466 90.5973 416.972 90.5863 417.946 89.6697L417.956 89.6797C417.936 89.6972 417.915 89.71 417.897 89.7283C416.926 90.6991 416.903 92.2473 417.844 93.1887C418.784 94.1302 420.333 94.1063 421.304 93.1356C421.323 93.1172 421.334 93.0962 421.353 93.0769L421.363 93.087C420.446 94.0605 420.434 95.5666 421.358 96.4897C422.281 97.4127 423.787 97.4017 424.76 96.4842L424.765 96.4897C424.775 96.4796 424.783 96.4677 424.793 96.4567Z" fill="#E1E8ED"/>
<path d="M414.542 89.6748C415.372 90.5053 416.67 90.5731 417.631 89.9131C418.034 89.2256 418.148 88.573 418.148 88.3685C416.126 89.8765 414.319 88.375 413.916 87.4775C413.748 88.254 413.952 89.0835 414.542 89.6748ZM421.235 93.193C421.507 92.8089 421.719 92.4395 421.817 92.1883C420.528 93.369 418.066 92.5036 417.32 90.6309C416.992 91.5017 417.16 92.5045 417.843 93.1884C418.763 94.1078 420.26 94.0995 421.235 93.193ZM424.765 96.4902C424.775 96.4801 424.783 96.4682 424.792 96.4572L424.818 96.437C424.881 96.3747 424.93 96.3032 424.984 96.2354C425.022 96.1877 425.064 96.1428 425.1 96.0933C425.133 96.0475 425.16 96.0007 425.189 95.954C425.249 95.8623 425.281 95.7532 425.331 95.656C423.014 96.6928 421.284 94.9346 420.799 94.0574C420.529 94.898 420.705 95.8394 421.357 96.492C422.28 97.4151 423.786 97.4041 424.759 96.4865L424.765 96.4902Z" fill="#CCD6DD"/>
</g>
<g clip-path="url(#clip3_55_973)">
<path d="M315.525 104.446C312.441 99.9533 306.065 106.565 294.428 107.908C290.12 108.405 286.238 112.003 281.233 111.66C279.181 111.519 276.316 105.615 274.171 106.556C273.067 107.041 272.56 108.66 273.695 109.876L286.294 124.909C286.294 124.909 286.934 125.647 289.092 125.136C289.623 125.292 297.614 122.09 302.234 115.679C303.34 114.144 304.659 112.866 306.024 111.799C310.457 108.521 315.275 107.379 315.275 107.379C315.891 106.87 316.036 106.329 316.002 105.86C316.043 105.076 315.525 104.446 315.525 104.446Z" fill="#5C913B"/>
<path d="M286.707 97.2718C282.189 103.543 274.276 106.513 274.276 106.513C272.799 107.764 274.046 109.238 274.046 109.238L286.514 124C286.514 124 287.137 124.737 289.237 124.226C289.237 124.226 297.151 121.261 301.668 114.99C306.325 108.528 314.723 106.488 314.723 106.488C316.198 105.238 314.953 103.761 314.953 103.761L302.485 89.0015C302.485 89.0015 301.861 88.2633 299.762 88.7722C299.762 88.7722 291.365 90.8075 286.707 97.2718Z" fill="#A7D28B"/>
<path d="M299.278 108.292C302.906 108.292 305.847 105.35 305.847 101.722C305.847 98.0941 302.906 95.1528 299.278 95.1528C295.65 95.1528 292.708 98.0941 292.708 101.722C292.708 105.35 295.65 108.292 299.278 108.292Z" fill="#77B255"/>
<path d="M288.376 123.138C287.324 123.138 286.938 122.746 286.885 122.686L275.647 109.567C275.625 109.542 275.056 108.89 275.125 108.061C275.167 107.558 275.427 107.11 275.898 106.729L275.973 106.684C276.046 106.655 283.334 103.66 287.419 98.2453C291.741 92.5167 299.195 90.0586 299.269 90.0347C301.354 89.5497 302.036 90.2425 302.109 90.3237L313.199 103.515C313.219 103.537 313.788 104.191 313.719 105.021C313.677 105.523 313.416 105.971 312.946 106.352L312.828 106.411C312.755 106.428 305.507 108.23 301.308 113.793C297.129 119.336 289.833 122.921 289.76 122.956C289.206 123.087 288.75 123.138 288.376 123.138ZM287.336 122.293C287.337 122.293 287.876 122.79 289.563 122.398C289.573 122.385 296.741 118.86 300.834 113.435C304.939 107.994 311.853 106.051 312.62 105.849C312.927 105.585 313.096 105.293 313.124 104.978C313.174 104.405 312.751 103.912 312.748 103.907L301.657 90.7143C301.655 90.7143 301.12 90.2186 299.431 90.6104C299.382 90.6271 292.103 93.0303 287.897 98.6048C283.877 103.933 276.862 106.96 276.242 107.22C275.922 107.489 275.747 107.789 275.72 108.11C275.672 108.679 276.092 109.17 276.096 109.174L287.336 122.293Z" fill="#5C913B"/>
<path d="M298.413 111.476L298.406 118.571L298.999 119.276C300.157 118.22 301.269 117.033 302.23 115.697C303.197 114.367 304.332 113.168 305.608 112.131L305.031 111.444L298.413 111.476Z" fill="#FFAC33"/>
<path d="M305.009 111.419L290.071 93.7256C288.857 94.7241 287.692 95.8887 286.7 97.2659C285.732 98.6109 284.604 99.7946 283.433 100.839L285.18 102.906L285.179 102.907L298.407 118.571C299.619 117.497 300.71 116.294 301.662 114.984C302.653 113.608 303.818 112.445 305.03 111.446L305.009 111.419Z" fill="#FFE8B6"/>
<path d="M290.294 111.941C288.435 109.738 284.498 113.312 283.375 111.983C282.832 111.339 283.181 110.504 283.896 109.902C285.096 108.887 285.962 109.478 286.506 109.018C286.891 108.693 286.871 108.296 286.642 108.022C286.109 107.393 284.747 107.721 283.689 108.333L283.174 107.723C283.018 107.549 282.8 107.443 282.566 107.427C282.333 107.411 282.102 107.486 281.924 107.637C281.745 107.788 281.632 108.002 281.608 108.235C281.585 108.468 281.653 108.701 281.798 108.884L282.331 109.516C281.522 110.589 281.248 112.013 282.204 113.144C283.991 115.258 287.977 111.744 289.231 113.23C289.666 113.746 289.544 114.73 288.629 115.502C287.258 116.661 286.016 116.118 285.458 116.589C285.186 116.817 285.137 117.251 285.427 117.597C285.889 118.143 287.362 118.025 288.777 117.144C288.78 117.146 288.78 117.149 288.78 117.151L289.362 117.839C289.437 117.934 289.53 118.012 289.636 118.07C289.742 118.128 289.858 118.163 289.978 118.175C290.099 118.187 290.22 118.175 290.335 118.139C290.45 118.103 290.557 118.045 290.649 117.967C290.742 117.889 290.817 117.793 290.872 117.686C290.926 117.578 290.959 117.461 290.967 117.34C290.975 117.22 290.96 117.099 290.92 116.985C290.881 116.871 290.819 116.766 290.739 116.676L290.157 115.988C290.151 115.981 290.142 115.976 290.134 115.969C291.089 114.8 291.411 113.261 290.294 111.941Z" fill="#5C913B"/>
<path d="M311.767 123.925C311.778 123.915 311.79 123.908 311.8 123.9C311.882 123.818 311.945 123.725 312.017 123.636C312.067 123.574 312.123 123.514 312.169 123.451C312.211 123.391 312.246 123.33 312.284 123.269C313.98 120.657 312.869 116.228 309.512 112.869C306.153 109.51 301.723 108.399 299.112 110.097C299.05 110.134 298.989 110.168 298.929 110.211C298.866 110.258 298.805 110.314 298.745 110.363C298.657 110.436 298.563 110.498 298.481 110.58C298.47 110.591 298.463 110.603 298.455 110.614C298.442 110.627 298.426 110.635 298.412 110.65L298.419 110.656C297.225 111.924 297.21 113.887 298.412 115.089C299.616 116.293 301.577 116.277 302.847 115.082L302.86 115.097C302.835 115.12 302.807 115.136 302.783 115.16C301.519 116.425 301.489 118.442 302.713 119.669C303.938 120.893 305.958 120.863 307.222 119.598C307.246 119.575 307.261 119.547 307.285 119.522L307.298 119.536C306.104 120.805 306.088 122.767 307.292 123.971C308.495 125.173 310.457 125.159 311.725 123.964L311.732 123.971C311.744 123.955 311.754 123.939 311.767 123.925Z" fill="#E1E8ED"/>
<path d="M298.414 115.137C299.496 116.218 301.186 116.306 302.439 115.449C302.964 114.553 303.114 113.701 303.114 113.435C300.478 115.401 298.125 113.446 297.598 112.276C297.38 113.287 297.645 114.367 298.414 115.137ZM307.132 119.724C307.488 119.223 307.764 118.74 307.893 118.412C306.215 119.951 303.007 118.824 302.035 116.384C301.607 117.519 301.826 118.826 302.717 119.717C303.913 120.913 305.863 120.904 307.132 119.724ZM311.736 124.018L311.77 123.975C311.782 123.965 311.794 123.958 311.804 123.948C311.886 123.867 311.95 123.774 312.02 123.686C312.071 123.622 312.126 123.564 312.173 123.499C312.216 123.441 312.251 123.379 312.289 123.318C312.366 123.198 312.408 123.057 312.474 122.931C309.454 124.282 307.201 121.99 306.569 120.847C306.216 121.942 306.446 123.169 307.296 124.02C308.498 125.223 310.459 125.209 311.729 124.013L311.736 124.018Z" fill="#CCD6DD"/>
<path d="M289.67 99.9282L289.703 99.902C289.786 99.8207 289.849 99.7276 289.919 99.6392C289.97 99.5771 290.024 99.5186 290.071 99.4541C290.114 99.3943 290.149 99.3334 290.187 99.2725C291.883 96.6602 290.771 92.2301 287.413 88.8725C284.055 85.5137 279.626 84.4017 277.013 86.0978C276.952 86.136 276.89 86.1706 276.831 86.2136C276.766 86.2602 276.708 86.3152 276.645 86.3653C276.557 86.437 276.464 86.4991 276.383 86.5815C276.372 86.5923 276.365 86.6054 276.356 86.615C276.343 86.6269 276.327 86.6377 276.313 86.6508L276.319 86.6568C275.125 87.9253 275.111 89.8877 276.313 91.0906C277.516 92.2934 279.479 92.279 280.747 91.0846L280.76 91.0977C280.735 91.1204 280.708 91.1371 280.684 91.161C279.419 92.4259 279.389 94.4434 280.615 95.6701C281.84 96.8967 283.859 96.8657 285.124 95.6008C285.148 95.5769 285.163 95.5494 285.187 95.5243L285.2 95.5375C284.006 96.806 283.99 98.7684 285.194 99.9712C286.397 101.174 288.358 101.16 289.627 99.9641L289.633 99.9712C289.646 99.9581 289.657 99.9426 289.67 99.9282Z" fill="#E1E8ED"/>
<path d="M276.312 91.0914C277.394 92.1735 279.085 92.2619 280.338 91.4019C280.862 90.5061 281.011 89.6556 281.011 89.3893C278.376 91.3541 276.022 89.3976 275.496 88.2283C275.278 89.24 275.543 90.3209 276.312 91.0914ZM285.033 95.6756C285.388 95.1752 285.664 94.6938 285.791 94.3665C284.112 95.905 280.904 94.7774 279.933 92.3372C279.505 93.4719 279.724 94.7786 280.613 95.6697C281.813 96.8677 283.763 96.8569 285.033 95.6756ZM289.633 99.972C289.646 99.9589 289.657 99.9434 289.669 99.929L289.702 99.9028C289.784 99.8216 289.848 99.7284 289.918 99.64C289.968 99.5779 290.023 99.5194 290.07 99.4549C290.113 99.3951 290.148 99.3342 290.186 99.2733C290.263 99.1539 290.305 99.0117 290.371 98.8851C287.351 100.236 285.097 97.9451 284.466 96.802C284.113 97.8973 284.343 99.124 285.193 99.9744C286.396 101.177 288.357 101.163 289.626 99.9673L289.633 99.972Z" fill="#CCD6DD"/>
</g>
<g clip-path="url(#clip4_55_973)">
<path d="M348.392 39.8724C344.447 34.1264 336.292 42.5826 321.408 44.3014C315.898 44.9369 310.932 49.5386 304.531 49.1001C301.906 48.9199 298.241 41.3681 295.497 42.5719C294.086 43.1922 293.438 45.2624 294.889 46.8176L311.004 66.0462C311.004 66.0462 311.823 66.9904 314.582 66.3365C315.262 66.5367 325.483 62.4407 331.392 54.2411C332.807 52.2779 334.494 50.6432 336.24 49.2774C341.91 45.0851 348.073 43.6246 348.073 43.6246C348.861 42.9738 349.046 42.2817 349.003 41.6813C349.055 40.679 348.392 39.8724 348.392 39.8724Z" fill="#5C913B"/>
<path d="M311.533 30.6965C305.753 38.7173 295.632 42.5169 295.632 42.5169C293.743 44.1165 295.338 46.0017 295.338 46.0017L311.285 64.8835C311.285 64.8835 312.083 65.8262 314.769 65.1723C314.769 65.1723 324.89 61.3804 330.668 53.3595C336.625 45.0942 347.367 42.4848 347.367 42.4848C349.254 40.8852 347.66 38.9969 347.66 38.9969L331.713 20.1181C331.713 20.1181 330.916 19.174 328.23 19.8248C328.23 19.8248 317.49 22.4281 311.533 30.6965Z" fill="#A7D28B"/>
<path d="M327.611 44.7916C332.252 44.7916 336.014 41.0296 336.014 36.3889C336.014 31.7481 332.252 27.9861 327.611 27.9861C322.97 27.9861 319.208 31.7481 319.208 36.3889C319.208 41.0296 322.97 44.7916 327.611 44.7916Z" fill="#77B255"/>
<path d="M313.667 63.7806C312.321 63.7806 311.828 63.2795 311.76 63.2031L297.386 46.4235C297.358 46.3915 296.629 45.5573 296.718 44.497C296.771 43.8538 297.104 43.2809 297.706 42.7935L297.803 42.7355C297.896 42.6988 307.218 38.8672 312.443 31.9417C317.971 24.6145 327.506 21.4703 327.6 21.4398C330.266 20.8195 331.139 21.7056 331.232 21.8095L345.417 38.6823C345.443 38.7098 346.171 39.547 346.082 40.6088C346.028 41.2505 345.695 41.8234 345.093 42.3108L344.942 42.3856C344.849 42.4085 335.578 44.7124 330.208 51.8288C324.863 58.9177 315.531 63.5041 315.438 63.5484C314.729 63.7165 314.145 63.7806 313.667 63.7806ZM312.336 62.7005C312.338 62.7005 313.027 63.336 315.186 62.8349C315.198 62.8181 324.366 58.3097 329.602 51.3705C334.853 44.4115 343.696 41.9258 344.676 41.6676C345.069 41.3299 345.286 40.9556 345.321 40.5538C345.385 39.8205 344.844 39.1895 344.84 39.1834L330.654 22.3091C330.651 22.3091 329.967 21.6751 327.807 22.1762C327.744 22.1976 318.434 25.2715 313.054 32.4016C307.912 39.217 298.939 43.0884 298.146 43.4215C297.737 43.7652 297.514 44.1487 297.479 44.5597C297.418 45.2869 297.955 45.9148 297.96 45.9209L312.336 62.7005Z" fill="#5C913B"/>
<path d="M326.505 48.8647L326.496 57.9397L327.255 58.8411C328.736 57.4906 330.158 55.972 331.388 54.2639C332.624 52.562 334.076 51.0284 335.708 49.702L334.97 48.8235L326.505 48.8647Z" fill="#FFAC33"/>
<path d="M334.941 48.7914L315.835 26.1604C314.283 27.4376 312.792 28.9272 311.524 30.6887C310.285 32.409 308.842 33.923 307.345 35.2583L309.579 37.9029L309.577 37.9044L326.497 57.9397C328.047 56.5657 329.443 55.0274 330.661 53.3518C331.929 51.5918 333.418 50.1037 334.969 48.8265L334.941 48.7914Z" fill="#FFE8B6"/>
<path d="M316.121 49.4592C313.742 46.6419 308.706 51.2131 307.27 49.5126C306.575 48.6892 307.023 47.6213 307.936 46.8513C309.472 45.5526 310.579 46.3089 311.275 45.7207C311.768 45.3051 311.742 44.7964 311.449 44.4465C310.767 43.6414 309.026 44.0615 307.672 44.8438L307.014 44.0646C306.814 43.8419 306.535 43.7058 306.236 43.6851C305.937 43.6645 305.643 43.7609 305.414 43.9539C305.185 44.1469 305.04 44.4215 305.01 44.7193C304.98 45.0172 305.068 45.3149 305.254 45.5496L305.935 46.3578C304.901 47.7297 304.549 49.5508 305.773 50.9976C308.059 53.7018 313.157 49.2071 314.761 51.1076C315.317 51.7676 315.161 53.0265 313.991 54.0135C312.237 55.4969 310.648 54.8018 309.935 55.4038C309.586 55.6956 309.524 56.2517 309.895 56.6932C310.486 57.3914 312.37 57.2417 314.18 56.1142C314.183 56.1172 314.183 56.1203 314.183 56.1233L314.927 57.0033C315.024 57.1242 315.143 57.2245 315.278 57.2983C315.414 57.3722 315.563 57.4181 315.717 57.4333C315.87 57.4486 316.025 57.4328 316.173 57.387C316.32 57.3412 316.457 57.2663 316.575 57.1667C316.693 57.067 316.789 56.9448 316.859 56.8071C316.929 56.6694 316.97 56.5191 316.981 56.3651C316.992 56.2111 316.971 56.0566 316.921 55.9106C316.871 55.7646 316.792 55.6302 316.689 55.5153L315.945 54.6353C315.937 54.6261 315.925 54.62 315.916 54.6108C317.137 53.1167 317.549 51.1474 316.121 49.4592Z" fill="#5C913B"/>
<path d="M343.586 64.7872C343.599 64.7749 343.615 64.7658 343.628 64.7551C343.732 64.6512 343.813 64.532 343.905 64.4174C343.969 64.338 344.041 64.2616 344.1 64.1806C344.154 64.1043 344.198 64.0263 344.247 63.9484C346.417 60.6072 344.996 54.9422 340.701 50.6461C336.405 46.3499 330.738 44.9291 327.399 47.1001C327.319 47.1474 327.241 47.1918 327.165 47.2468C327.084 47.3063 327.006 47.3781 326.93 47.4408C326.817 47.534 326.698 47.6134 326.592 47.7188C326.578 47.7326 326.569 47.7479 326.558 47.7616C326.542 47.7784 326.522 47.7891 326.503 47.8074L326.513 47.8151C324.985 49.4376 324.967 51.9477 326.503 53.4862C328.043 55.0262 330.552 55.0048 332.176 53.477L332.193 53.4954C332.161 53.5259 332.126 53.5458 332.095 53.5763C330.477 55.1943 330.439 57.7747 332.005 59.3437C333.573 60.9097 336.156 60.8715 337.772 59.2536C337.803 59.223 337.823 59.1879 337.853 59.1558L337.87 59.1741C336.342 60.7966 336.323 63.3067 337.863 64.8467C339.401 66.3837 341.91 66.3654 343.532 64.8376L343.541 64.8467C343.557 64.8254 343.569 64.8055 343.586 64.7872Z" fill="#E1E8ED"/>
<path d="M326.507 53.5475C327.891 54.9301 330.052 55.0432 331.655 53.9462C332.326 52.8004 332.518 51.7111 332.518 51.3704C329.147 53.8851 326.137 51.3841 325.463 49.8884C325.183 51.1809 325.523 52.562 326.507 53.5475ZM337.658 59.4141C338.113 58.774 338.466 58.1552 338.631 57.7366C336.484 59.7044 332.381 58.2637 331.137 55.1425C330.59 56.5938 330.87 58.2652 332.01 59.405C333.54 60.9358 336.034 60.9236 337.658 59.4141ZM343.546 64.9065L343.59 64.8515C343.605 64.8393 343.621 64.8301 343.633 64.8179C343.738 64.714 343.819 64.5948 343.909 64.4818C343.975 64.4008 344.045 64.3259 344.105 64.2434C344.16 64.1686 344.204 64.0891 344.253 64.0112C344.352 63.8584 344.406 63.6782 344.49 63.5162C340.628 65.2441 337.745 62.3123 336.937 60.8502C336.486 62.2512 336.779 63.8202 337.867 64.9095C339.404 66.448 341.913 66.4297 343.537 64.9004L343.546 64.9065Z" fill="#CCD6DD"/>
<path d="M315.322 34.0943L315.364 34.0606C315.47 33.9568 315.551 33.8376 315.641 33.7245C315.705 33.6451 315.775 33.5702 315.835 33.4877C315.89 33.4113 315.934 33.3334 315.983 33.2555C318.153 29.9143 316.73 24.2477 312.436 19.9531C308.14 15.657 302.475 14.2347 299.133 16.4041C299.055 16.453 298.976 16.4973 298.9 16.5523C298.817 16.6119 298.742 16.6822 298.663 16.7463C298.55 16.838 298.431 16.9175 298.327 17.0229C298.313 17.0366 298.304 17.0534 298.293 17.0656C298.276 17.0809 298.255 17.0947 298.238 17.1115L298.246 17.1191C296.718 18.7416 296.7 21.2518 298.238 22.7902C299.777 24.3287 302.287 24.3104 303.909 22.7826L303.926 22.7994C303.894 22.8284 303.859 22.8498 303.828 22.8804C302.21 24.4983 302.172 27.0787 303.74 28.6477C305.307 30.2168 307.889 30.177 309.507 28.5591C309.538 28.5286 309.557 28.4934 309.588 28.4613L309.605 28.4781C308.077 30.1006 308.057 32.6108 309.597 34.1493C311.136 35.6877 313.644 35.6694 315.267 34.1401L315.274 34.1493C315.291 34.1325 315.305 34.1126 315.322 34.0943Z" fill="#E1E8ED"/>
<path d="M298.237 22.7915C299.621 24.1756 301.783 24.2887 303.385 23.1887C304.056 22.0429 304.247 20.9551 304.247 20.6144C300.877 23.1276 297.865 20.6251 297.193 19.1294C296.913 20.4234 297.253 21.8061 298.237 22.7915ZM309.391 28.6551C309.845 28.0149 310.198 27.3993 310.361 26.9806C308.213 28.9484 304.109 27.5062 302.867 24.385C302.32 25.8363 302.6 27.5077 303.738 28.6474C305.272 30.1798 307.767 30.1661 309.391 28.6551ZM315.274 34.1505C315.291 34.1337 315.305 34.1138 315.32 34.0955L315.363 34.0619C315.468 33.958 315.549 33.8388 315.639 33.7258C315.704 33.6463 315.774 33.5715 315.833 33.489C315.888 33.4126 315.933 33.3347 315.982 33.2568C316.081 33.104 316.134 32.9222 316.218 32.7602C312.356 34.4881 309.473 31.5579 308.665 30.0958C308.214 31.4968 308.508 33.0658 309.596 34.1536C311.134 35.692 313.643 35.6737 315.265 34.1444L315.274 34.1505Z" fill="#CCD6DD"/>
</g>
<defs>
<clipPath id="clip0_55_973">
<rect width="93" height="93" fill="white" transform="translate(328 32)"/>
</clipPath>
<clipPath id="clip1_55_973">
<rect width="36" height="36" fill="white" transform="translate(382 11)"/>
</clipPath>
<clipPath id="clip2_55_973">
<rect width="33" height="33" fill="white" transform="translate(412 85)"/>
</clipPath>
<clipPath id="clip3_55_973">
<rect width="43" height="43" fill="white" transform="translate(273 85)"/>
</clipPath>
<clipPath id="clip4_55_973">
<rect width="55" height="55" fill="white" transform="translate(294 15)"/>
</clipPath>
</defs>
</svg>
