<svg width="111" height="118" viewBox="0 0 111 118" fill="none" xmlns="http://www.w3.org/2000/svg">
<path d="M6.63495 37.6968H105.75V118H6.63495V37.6968Z" fill="#006CA2"/>
<path d="M38.174 10.3994H73.4672V44.2053H38.174V10.3994Z" fill="white"/>
<path d="M101.791 30.8261H85.0923C83.2059 30.8261 81.5332 30.5843 80.4553 29.7011C79.4888 28.9108 79.1729 27.4325 79.1171 26.1773V14.546C79.1171 13.514 78.383 12.2588 77.4816 11.7568L57.1216 0.376551C56.2295 -0.125517 54.7519 -0.125517 53.8506 0.376551L33.4812 11.7568C32.5798 12.2588 31.8457 13.514 31.8457 14.546V26.4283C31.7621 27.6277 31.4275 28.9666 30.5262 29.7104C29.4575 30.5936 27.7756 30.8354 25.8985 30.8354H9.20896C4.1445 30.8354 0 34.9821 0 40.0399V118H40.0697V105.932C40.0697 103.105 42.3742 100.79 45.1992 100.79H65.7822C68.6072 100.79 70.9211 103.096 70.9211 105.932V118H111V40.0399C110.991 34.9728 106.855 30.8261 101.791 30.8261ZM22.8598 88.0433H11.4113V73.4461H22.8598V88.0433ZM22.8598 64.8458H11.4113V50.2487H22.8598V64.8458ZM42.0397 88.0433H30.5912V73.4461H42.0397V88.0433ZM42.0397 64.8458H30.5912V50.2487H42.0397V64.8458ZM61.2103 88.0433H49.7618V73.4461H61.2103V88.0433ZM61.2103 64.8458H49.7618V50.2487H61.2103V64.8458ZM55.4861 37.4552C53.3488 37.4552 51.3416 36.9346 49.5574 36.042C47.2435 34.8798 45.32 33.0668 44.0283 30.8354C42.8946 28.8829 42.2441 26.6236 42.2441 24.2062C42.2441 16.8797 48.1728 10.9479 55.4954 10.9479C62.8086 10.9479 68.7466 16.889 68.7466 24.2062C68.7466 26.6236 68.0868 28.8829 66.9531 30.8354C65.7873 32.8458 64.1148 34.5151 62.1027 35.6767C60.0906 36.8383 57.8091 37.4515 55.4861 37.4552ZM80.3902 88.0433H68.9417V73.4461H80.3902V88.0433ZM80.3902 64.8458H68.9417V50.2487H80.3902V64.8458ZM99.5701 88.0433H88.1123V73.4461H99.5608V88.0433H99.5701ZM99.5701 64.8458H88.1123V50.2487H99.5608V64.8458H99.5701Z" fill="#F79329"/>
<path d="M56.7684 22.2259V12.6587H54.1851V22.2352C53.5811 22.635 53.1722 23.2765 53.1257 24.0482L47.2156 27.4046L48.498 29.6546L54.4081 26.2889C54.7426 26.4563 55.0958 26.5771 55.4953 26.5771C56.1312 26.5771 56.741 26.3244 57.1906 25.8746C57.6402 25.4247 57.8928 24.8146 57.8928 24.1784C57.8835 23.3509 57.4282 22.6536 56.7684 22.2259Z" fill="#2F2F2F"/>
</svg>
