<svg width="181" height="19" viewBox="0 0 181 19" fill="none" xmlns="http://www.w3.org/2000/svg">
<path d="M4.92 6.32C4.92 8.2 6.66 9.3 9.18 9.3C11.72 9.3 13.46 8.2 13.46 6.32C13.46 4.44 11.72 3.34 9.18 3.34C6.66 3.34 4.92 4.44 4.92 6.32ZM10.5 14.44H17.54V16.58H0.86V14.44H7.86V11.32C4.62 10.92 2.32 9.06 2.32 6.32C2.32 3.24 5.26 1.24 9.18 1.24C13.12 1.24 16.06 3.24 16.06 6.32C16.06 9.06 13.76 10.94 10.5 11.32V14.44ZM34.0184 4V6.08H21.3184V0.479999H23.9584V4H34.0184ZM23.8184 15.36V16.52H34.4984V18.5H21.1584V13.5H31.3184V12.46H21.1384V10.48H33.9784V15.36H23.8184ZM19.2584 7.26H35.9384V9.34H19.2584V7.26ZM43.5769 1.52C46.4569 1.52 48.6569 3.42 48.6569 6.06C48.6569 8.72 46.4569 10.6 43.5769 10.6C40.6969 10.6 38.5169 8.72 38.5169 6.06C38.5169 3.42 40.6969 1.52 43.5769 1.52ZM43.5769 3.78C42.1569 3.78 41.0769 4.62 41.0769 6.06C41.0769 7.5 42.1569 8.34 43.5769 8.34C44.9969 8.34 46.0769 7.5 46.0769 6.06C46.0769 4.62 44.9969 3.78 43.5769 3.78ZM50.3769 0.279999H53.0169V18.76H50.3769V0.279999ZM38.0769 15.02L37.7369 12.88C40.9769 12.88 45.4969 12.86 49.3769 12.28L49.5369 14.18C45.5769 14.98 41.2569 15.02 38.0769 15.02ZM69.9106 3.06V5.18H61.2306V3.06H64.2706V0.759999H66.8706V3.06H69.9106ZM69.4506 10.56H71.0306V8.36H69.0506C69.3106 8.96 69.4506 9.66 69.4506 10.42V10.56ZM65.5306 12.66C66.4906 12.66 67.1706 11.84 67.1706 10.44C67.1706 9.02 66.4906 8.2 65.5306 8.2C64.5906 8.2 63.8906 9.02 63.8906 10.44C63.8906 11.84 64.5906 12.66 65.5306 12.66ZM71.0306 6.26V0.619999H73.4906V17.9H71.0306V12.66H68.9906C68.3306 14.02 67.0906 14.88 65.5306 14.88C63.2506 14.88 61.6106 13.04 61.6106 10.44C61.6106 7.84 63.2506 6 65.5306 6C67.1306 6 68.4306 6.92 69.0506 8.36V6.26H71.0306ZM74.5506 0.299999H77.0506V18.72H74.5506V0.299999ZM87.9291 8.32L88.1691 10.42C86.0691 10.76 84.2891 10.82 81.5491 10.82H80.2691V1.54H87.5091V3.62H82.8091V5.14H87.3291V7.14H82.8091V8.7C84.7891 8.68 86.2491 8.58 87.9291 8.32ZM82.6691 14.44V12.34H95.3491V18.74H92.7091V14.44H82.6691ZM92.8491 0.299999H95.3491V11.54H92.8491V6.92H91.3691V11.42H88.9091V0.619999H91.3691V4.82H92.8491V0.299999ZM113.443 5.12V2.76H109.663V5.12H113.443ZM107.043 5.12V2.76H104.703V0.799999H118.403V2.76H116.063V5.12H118.263V7.08H104.823V5.12H107.043ZM107.783 15.68V16.68H118.343V18.58H105.163V13.92H115.263V13.02H105.143V11.12H117.863V15.68H107.783ZM103.243 8.02H119.883V10.1H103.243V8.02ZM124.701 9.16V12.26C126.441 12.22 128.081 12.12 129.941 11.82L130.161 13.94C127.781 14.36 125.741 14.42 123.441 14.42H122.141V7.08H126.081V4.2H122.121V2.1H128.641V9.16H124.701ZM131.201 6.56V0.619999H133.641V17.86H131.201V8.72H129.381V6.56H131.201ZM134.941 0.279999H137.441V18.7H134.941V0.279999ZM152.66 0.279999H155.3V18.76H152.66V0.279999ZM145.4 1.58C148.18 1.58 150.24 4.1 150.24 8.14C150.24 12.2 148.18 14.74 145.4 14.74C142.62 14.74 140.56 12.2 140.56 8.14C140.56 4.1 142.62 1.58 145.4 1.58ZM145.4 3.96C144.04 3.96 143.1 5.42 143.1 8.14C143.1 10.88 144.04 12.34 145.4 12.34C146.76 12.34 147.7 10.88 147.7 8.14C147.7 5.42 146.76 3.96 145.4 3.96ZM174.538 8.96L173.418 11.18C170.218 10.54 167.858 8.76 166.678 6.42C165.498 8.76 163.158 10.56 159.958 11.18L158.838 8.96C162.978 8.26 165.278 5.34 165.278 2.7V1.38H168.098V2.7C168.098 5.4 170.378 8.26 174.538 8.96ZM158.438 14.34H175.118V16.48H158.438V14.34ZM179.737 12.54H177.817L177.317 2.72H180.237L179.737 12.54ZM177.237 15.72C177.237 15.16 177.383 14.7667 177.677 14.54C177.97 14.3 178.337 14.18 178.777 14.18C179.19 14.18 179.543 14.2933 179.837 14.52C180.143 14.7467 180.297 15.1467 180.297 15.72C180.297 16.2667 180.143 16.66 179.837 16.9C179.543 17.14 179.19 17.26 178.777 17.26C178.337 17.26 177.97 17.14 177.677 16.9C177.383 16.66 177.237 16.2667 177.237 15.72Z" fill="#191919"/>
</svg>
