<svg width="40" height="40" viewBox="0 0 40 40" fill="none" xmlns="http://www.w3.org/2000/svg">
<path d="M26.45 25.4163L20.8333 22.0829V14.5329C20.8333 13.8663 20.3 13.3329 19.6333 13.3329H19.5333C18.8667 13.3329 18.3333 13.8663 18.3333 14.5329V22.3996C18.3333 22.9829 18.6333 23.5329 19.15 23.8329L25.2333 27.4829C25.8 27.8162 26.5333 27.6496 26.8667 27.0829C27.2167 26.4996 27.0333 25.7496 26.45 25.4163ZM35.3 8.34958L30.1667 4.08292C29.4667 3.49958 28.4167 3.58292 27.8167 4.29958C27.2333 4.99958 27.3333 6.04958 28.0333 6.64958L33.15 10.9162C33.85 11.4996 34.9 11.4162 35.5 10.6996C36.1 9.99958 36 8.94958 35.3 8.34958ZM6.83334 10.9162L11.95 6.64958C12.6667 6.04958 12.7667 4.99958 12.1667 4.29958C11.5833 3.58292 10.5333 3.49958 9.83334 4.08292L4.7 8.34958C4 8.94958 3.9 9.99958 4.5 10.6996C5.08334 11.4162 6.13334 11.4996 6.83334 10.9162ZM20 6.66625C11.7167 6.66625 5 13.3829 5 21.6663C5 29.9496 11.7167 36.6663 20 36.6663C28.2833 36.6663 35 29.9496 35 21.6663C35 13.3829 28.2833 6.66625 20 6.66625ZM20 33.3329C13.5667 33.3329 8.33334 28.0996 8.33334 21.6663C8.33334 15.2329 13.5667 9.99958 20 9.99958C26.4333 9.99958 31.6667 15.2329 31.6667 21.6663C31.6667 28.0996 26.4333 33.3329 20 33.3329Z" fill="#4AD917"/>
</svg>
