<svg width="40" height="40" viewBox="0 0 40 40" fill="none" xmlns="http://www.w3.org/2000/svg">
<g clip-path="url(#clip0_1807_2297)">
<path d="M27.5 19.9997C29.8 19.9997 31.65 18.133 31.65 15.833C31.65 13.533 29.8 11.6663 27.5 11.6663C25.2 11.6663 23.3333 13.533 23.3333 15.833C23.3333 18.133 25.2 19.9997 27.5 19.9997ZM15 18.333C17.7667 18.333 19.9833 16.0997 19.9833 13.333C19.9833 10.5663 17.7667 8.33301 15 8.33301C12.2333 8.33301 10 10.5663 10 13.333C10 16.0997 12.2333 18.333 15 18.333ZM27.5 23.333C24.45 23.333 18.3333 24.8663 18.3333 27.9163V29.9997C18.3333 30.9163 19.0833 31.6663 20 31.6663H35C35.9167 31.6663 36.6667 30.9163 36.6667 29.9997V27.9163C36.6667 24.8663 30.55 23.333 27.5 23.333ZM15 21.6663C11.1167 21.6663 3.33334 23.6163 3.33334 27.4997V29.9997C3.33334 30.9163 4.08334 31.6663 5.00001 31.6663H15V27.9163C15 26.4997 15.55 24.0163 18.95 22.133C17.5 21.833 16.1 21.6663 15 21.6663Z" fill="#E32525"/>
</g>
<defs>
<clipPath id="clip0_1807_2297">
<rect width="40" height="40" fill="white"/>
</clipPath>
</defs>
</svg>
